<?xml version="1.0" encoding="utf-8"?>
<!-- Generator: Adobe Illustrator 16.0.4, SVG Export Plug-In . SVG Version: 6.00 Build 0)  -->
<!DOCTYPE svg PUBLIC "-//W3C//DTD SVG 1.1//EN" "http://www.w3.org/Graphics/SVG/1.1/DTD/svg11.dtd" [
	<!ENTITY ns_extend "http://ns.adobe.com/Extensibility/1.0/">
	<!ENTITY ns_ai "http://ns.adobe.com/AdobeIllustrator/10.0/">
	<!ENTITY ns_graphs "http://ns.adobe.com/Graphs/1.0/">
	<!ENTITY ns_vars "http://ns.adobe.com/Variables/1.0/">
	<!ENTITY ns_imrep "http://ns.adobe.com/ImageReplacement/1.0/">
	<!ENTITY ns_sfw "http://ns.adobe.com/SaveForWeb/1.0/">
	<!ENTITY ns_custom "http://ns.adobe.com/GenericCustomNamespace/1.0/">
	<!ENTITY ns_adobe_xpath "http://ns.adobe.com/XPath/1.0/">
]>
<svg version="1.1" id="Layer_1" xmlns:x="&ns_extend;" xmlns:i="&ns_ai;" xmlns:graph="&ns_graphs;"
	 xmlns="http://www.w3.org/2000/svg" xmlns:xlink="http://www.w3.org/1999/xlink" x="0px" y="0px" width="100px" height="50px"
	 viewBox="0 0 100 50" enable-background="new 0 0 100 50" xml:space="preserve">
<metadata>
	<sfw  xmlns="&ns_sfw;">
		<slices></slices>
		<sliceSourceBounds  x="-87.461" y="-39.826" height="88.797" width="186.961" bottomLeftOrigin="true"></sliceSourceBounds>
	</sfw>
</metadata>
<path fill="#231F20" d="M-86.903,90.326l-0.058-0.013c0.021-0.016,0.038-0.034,0.058-0.053V90.326z"/>
<path fill="#231F20" d="M0,39.333V50h100V35.666h-1.262v2.973h-0.138v0.354h0.138v0.303H98.59v0.353h0.148v0.303h-0.163v0.353h0.163
	v0.302h-0.176v0.354h0.176v0.302h-0.188v0.353h0.188v0.302h-0.2v0.354h0.2v0.303h-0.213v0.353h0.213v0.303h-0.227v0.354h0.227v0.301
	H98.5v0.354h0.238v0.303h-0.252v0.227h-0.68v-0.303h-0.314v-0.504h-0.139v-0.77h-0.34v0.77h-0.09v-1.498l0.488-0.822l-0.444-0.488
	l-0.022-2.064l0.145-0.26v-1h-1.099v2.015h-0.517v0.898l-2.496-1.664v-0.366l-0.133-0.434l-0.018-1.497l0.15-0.15v-0.21
	l-0.121-0.039v-0.355l0.058-0.059v-0.285h-0.058l0.004-1.998h0.111l-0.011-0.665l0.071-0.106l-0.006-1.209l-0.156-0.108v-0.441
	l0.19-0.191l-0.034-0.466l-0.09-0.05l-0.059-0.607l-0.291-0.166l-0.459,0.175v0.614l-0.074,0.075l-0.033,0.408l0.083,0.1
	l-0.017,0.108l-1.09-1.007v-1.091h-0.1v-0.573l0.125-0.192v-1.14l-0.097-0.095v-2.494l-0.394-0.394l-0.185-1.37l0.159-0.209
	l0.031-0.358L90.29,22.11l-0.116-1.331l0.15-0.266l-0.176-0.109l-0.124-2.247l0.101-0.166l0.156-0.041l-0.241-0.208L90,17.567
	l0.049-0.084l-0.083-0.084l0.009-0.241l0.174-0.163l-0.171-0.15l-0.034-0.565l-0.033-0.011l-0.033,0.011l-0.033,0.565l-0.172,0.15
	l0.174,0.163l0.009,0.241l-0.083,0.084l0.05,0.084l-0.041,0.175l-0.241,0.208l0.157,0.041l0.101,0.166l-0.125,2.247l-0.176,0.109
	l0.15,0.266l-0.117,1.331l-0.25,0.116l0.033,0.358l0.159,0.209l-0.187,1.37l-0.392,0.394v2.494l-0.096,0.095v1.14l0.124,0.192v0.573
	h-0.1v1.091l-1.089,1.007l-0.018-0.108l0.083-0.1l-0.031-0.408l-0.076-0.075v-0.614l-0.457-0.175l-0.293,0.166l-0.059,0.607
	l-0.092,0.05l-0.033,0.466l0.193,0.191v0.441l-0.16,0.108l-0.006,1.209l0.073,0.106l-0.011,0.665h0.111l0.005,1.998h-0.058v0.285
	l0.058,0.059v0.355l-0.122,0.039v0.21l0.15,0.15l-0.017,1.48l-0.327-0.891H85.84l-1.312,3.249l-0.165,0.111l-0.018-0.045v-0.843
	h-0.339l-0.176-0.438v-1.577h-0.635l-0.176-0.434l-0.82,0.048l-1.418,3.128l-0.712-1.345l-0.548-0.035v-6.853l0.057-0.062v-1.854
	l-0.008-0.88l-0.104-5.842l-0.413-5.376l0.048-0.397l-0.063-0.841l-0.412-4.33l-0.087-2.007l0.15-0.357l-0.056-0.491L78.491,9.73
	l-0.088-1.683l0.11-0.324l-0.142-0.381c0,0,0.515-0.27,0.587-0.477c0.07-0.205,0.104-0.482-0.127-0.801
	c-0.23-0.317-0.715-0.864-0.715-0.864S77.595,5.811,77.5,5.954c-0.096,0.144-0.484,0.667-0.198,1.039
	c0.284,0.373,0.491,0.404,0.491,0.404l-0.111,0.365l0.088,0.302l-0.238,1.657l-0.097,0.152l-0.055,0.562l0.199,0.381l-0.723,6.444
	l0.024,0.214l-0.179,0.023l0.154,0.56l-0.167,0.571l-0.845-0.286l-0.331-4.045l0.082-0.522l-0.178-0.667L75.25,9.527l-0.249-0.845
	l-0.06-1.701l0.213-0.499l-0.262-0.75l-0.082-1.688l0.096-0.238l-0.083-0.239c0,0,0.638-0.331,0.621-0.618
	c-0.015-0.285-0.276-0.745-0.476-0.982c-0.198-0.239-0.404-0.437-0.404-0.437l-0.491,0.477c0,0-0.595,0.642-0.421,0.966
	c0.174,0.326,0.531,0.611,0.531,0.611l-0.079,0.191l0.104,0.27l-0.136,1.721l-0.255,0.729l0.191,0.444l-0.15,1.792l-0.18,0.809
	l-0.344,3.403l-0.167,0.428l0.154,0.666l-0.52,4.315l-0.349,6.296l-0.079,0.699l-0.508-0.126l0.031-0.478l-0.222-0.078l-0.096-3.173
	l-0.046-0.539l0.3-0.254c0,0,0.19-0.286,0.145-0.508c-0.05-0.223-0.637-0.809-0.637-0.809s-0.619,0.705-0.617,0.76
	c0.016,0.611,0.246,0.667,0.373,0.763l0.015,0.54l-0.136,0.522l0.129,0.381l-0.15,1.229l-0.112-0.032l-0.206-0.999l0.04-0.477
	l-0.103-0.135l0.182-0.253l-0.223-0.04l-0.221,0.04l0.182,0.253l-0.104,0.135l0.04,0.477l-0.206,0.999l-0.111,0.032l-0.15-1.229
	l0.126-0.381l-0.135-0.522l0.016-0.54c0.128-0.096,0.356-0.151,0.374-0.763c0-0.055-0.619-0.76-0.619-0.76s-0.588,0.586-0.635,0.809
	c-0.048,0.222,0.143,0.508,0.143,0.508l0.303,0.254l-0.049,0.539l-0.095,3.173l-0.224,0.078l0.033,0.478l-0.508,0.126l-0.08-0.699
	l-0.348-6.296l-0.52-4.315l0.154-0.666l-0.166-0.428l-0.346-3.403L67.213,8.73l-0.15-1.792l0.189-0.444l-0.254-0.729l-0.135-1.721
	l0.104-0.27l-0.08-0.191c0,0,0.357-0.285,0.531-0.611c0.176-0.324-0.42-0.966-0.42-0.966l-0.492-0.477c0,0-0.206,0.197-0.404,0.437
	c-0.197,0.237-0.46,0.697-0.476,0.982c-0.017,0.287,0.624,0.618,0.624,0.618l-0.084,0.239l0.094,0.238l-0.082,1.688l-0.264,0.75
	l0.215,0.499L66.07,8.683l-0.25,0.845l-0.168,3.581l-0.177,0.667l0.083,0.522l-0.334,4.045l-0.844,0.286l-0.166-0.571l0.153-0.56
	l-0.178-0.023l0.024-0.214l-0.723-6.444l0.199-0.381l-0.057-0.562l-0.094-0.152l-0.238-1.657l0.087-0.302l-0.112-0.365
	c0,0,0.206-0.031,0.492-0.404c0.287-0.372-0.104-0.896-0.197-1.039c-0.096-0.144-0.619-0.753-0.619-0.753s-0.484,0.547-0.714,0.864
	c-0.229,0.318-0.198,0.596-0.127,0.801c0.071,0.207,0.587,0.477,0.587,0.477l-0.143,0.381l0.111,0.324L62.58,9.73l-0.143,0.166
	l-0.055,0.491l0.15,0.357l-0.088,2.007l-0.412,4.33l-0.062,0.841l0.047,0.397l-0.413,5.376l-0.103,5.842l-0.008,0.88v1.854
	l0.055,0.062v3.248l-0.123,0.198v0.173h-0.041v0.084h0.033v0.101l-0.064,0.068l-0.009,0.08l0.033,0.067l-0.009,0.12l0.016,0.065
	v0.308h-0.084v0.256c0,0-0.367,0.197-0.684,0.668v-4.91h-0.135v-0.243h-1.586v0.243h-0.429v3.535h-1.261v-1.462h-0.201v1.462H56.93
	v0.296h-0.143v3.837l-0.139,0.348l-1.416-3.51h-0.809l-0.15,0.406l-0.004-0.219L54,37.561l-0.004-0.251h-0.081l-0.009-0.367
	l0.045-0.001l-0.004-0.192l-0.053,0.001l-0.006-0.24l0.15-0.132l0.005-0.107l-0.11-0.106l0.005-0.266l-0.079,0.003l-0.004-0.225
	l0.062-0.001l-0.002-0.124l-0.084,0.001l-0.007-0.284h0.028l-0.002-0.093l-0.076,0.002l-0.011-0.501l-0.048,0.002l0.01,0.501
	l-0.084,0.001l0.004,0.116h0.027l0.006,0.248l-0.101,0.002l-0.396-0.7l0.006-0.256l0.075-0.003l-0.001-0.12l-0.092-0.054
	l-0.018-0.509l-0.168-0.16l-0.01-0.416l0.102-0.106l-0.016-0.14l-0.119,0.006l-0.01-0.404l-0.075,0.003l0.003,0.171l-0.062,0.002
	l-0.016-0.649l0.102-0.105l-0.001-0.069l-0.097,0.003l-0.016-0.328l-0.117-0.082l-0.002-0.144l-0.191-0.248l-0.036-0.012
	l-0.011-0.492l-0.044,0.001l0.011,0.491l-0.06,0.007l-0.163,0.243l0.004,0.133l-0.119,0.099l0.008,0.344l-0.104,0.003l0.002,0.112
	l0.109,0.062l0.015,0.651l-0.071,0.002l-0.006-0.261l-0.074,0.002l0.013,0.485l-0.14,0.003l-0.021,0.141l0.133,0.061l0.011,0.461
	h-0.028l-0.006-0.224h-0.071l0.008,0.378L51.7,34.052l0.005,0.215l-0.073,0.002v-0.204l-0.196-0.141l-0.02-0.894l-0.043,0.002
	l0.02,0.897l-0.184,0.189l0.012,0.479l-0.171,0.036l-0.001,0.116l0.043,0.062l0.012,0.576l-0.129,0.016l0.002,0.225
	c0,0-0.106,0.026-0.106,0.042c0,0.017,0.014,0.104,0.014,0.104l0.085,0.066l0.059,0.283l-0.063,0.141l-0.038-0.219l-0.052,0.006
	l-0.017,0.324l-0.07,0.097l0.005,0.398l-0.101,0.056l0.002,0.084l0.061,0.059l0.006,0.21l-0.252,0.648l-0.002-0.149l-0.096,0.002
	l-0.025-0.624h-0.043l-0.015,0.638l-0.072,0.014l0.01,0.468l-0.09,0.003l0.007,0.342l-0.083,0.002l0.004,0.174l-0.974,2.006
	c-0.904-0.323-2.522-0.867-3.497-0.992v-0.121h-0.096v-0.516h-0.108v0.102l-2.066-0.811v-0.95h-0.06v0.914h-0.042v-0.564h-0.908
	v-0.187h0.096v-0.241l-0.138-0.144l0.025-1.473l0.059-0.083v-0.144l-0.054-0.049l0.012-0.204l0.294-0.139v-0.241l-0.366-0.168
	v-0.251l-0.091,0.006l0.012-0.079l0.056-0.005v-0.36h-0.109v-0.547h-0.289c0,0-0.108-1.713-1.826-2.759v-0.092l0.12-0.161v-0.184
	h-0.132v-0.408l-0.054-0.055v-0.53l0.13-0.084v-0.092h-0.144l-0.008-0.425l0.036-0.036V28.6l-0.05-0.05l-0.407-0.527l-0.012-0.16
	h0.041v-0.089h-0.041v-0.126l0.03-0.031v-0.078h-0.046l-0.032-0.693l-0.024,0.004l-0.024-0.004l-0.032,0.693h-0.047v0.078
	l0.031,0.031v0.126h-0.041v0.089h0.041l-0.012,0.16L38.95,28.55l-0.051,0.05v0.132l0.036,0.036l-0.008,0.425h-0.145v0.092
	l0.131,0.084v0.53l-0.054,0.055v0.408h-0.132v0.184l0.119,0.161v0.092c-1.718,1.046-1.825,2.759-1.825,2.759h-0.289v0.547h-0.109
	v0.36l0.054,0.005l0.012,0.079l-0.09-0.006v0.251l-0.367,0.168v0.241l0.294,0.139l0.013,0.204l-0.054,0.049v0.144l0.059,0.083
	l0.024,1.473l-0.138,0.144v0.241h0.096v0.187H35.62v0.564h-0.042v-0.914h-0.06v0.95l-2.068,0.811v-0.102h-0.108v0.516h-0.096v0.121
	c-1.406,0.181-4.297,1.296-4.297,1.296l0.009-0.168l-0.186-0.255l0.023-0.486l-0.128-0.212l-0.009-0.308l-0.09-0.004l0.042-0.828
	l0.089,0.004l0.01-0.173l-0.085-0.005l0.018-0.342l-0.09-0.005l0.023-0.467l-0.072-0.017l0.002-0.638l-0.042-0.002l-0.042,0.624
	l-0.097-0.005l-0.007,0.149l-0.231-0.655l0.01-0.21l0.063-0.057l0.003-0.084l-0.099-0.059l0.016-0.396l-0.068-0.1l-0.007-0.325
	l-0.052-0.007l-0.042,0.219l-0.062-0.144l0.066-0.281l0.088-0.063c0,0,0.016-0.089,0.017-0.104c0.001-0.017-0.106-0.046-0.106-0.046
	l0.008-0.225l-0.128-0.018l0.029-0.577l0.042-0.062l0.002-0.116l-0.169-0.04l0.024-0.479l-0.177-0.194l0.044-0.896l-0.043-0.004
	l-0.045,0.893l-0.198,0.135l-0.007,0.205l-0.074-0.004l0.01-0.215l-0.116-0.128l0.019-0.376l-0.072-0.004l-0.011,0.226l-0.028-0.003
	l0.024-0.46l0.134-0.058l-0.017-0.142l-0.14-0.006l0.024-0.484l-0.071-0.003l-0.014,0.26l-0.071-0.004l0.032-0.652l0.112-0.059
	l0.006-0.111l-0.104-0.006l0.018-0.344l-0.116-0.103l0.006-0.132l-0.155-0.249l-0.06-0.006l0.024-0.491l-0.043-0.003l-0.025,0.491
	l-0.037,0.011l-0.197,0.242l-0.007,0.146l-0.12,0.078l-0.025,0.327l-0.096-0.006l-0.003,0.068l0.1,0.11l-0.033,0.647l-0.064-0.003
	l0.009-0.172l-0.076-0.005l-0.021,0.404l-0.12-0.01l-0.019,0.139l0.099,0.109l-0.021,0.417l-0.17,0.155l-0.034,0.509l-0.092,0.05
	l-0.005,0.121l0.076,0.003l-0.001,0.257l-0.416,0.689l-0.1-0.005l0.013-0.248l0.027,0.002l0.006-0.116l-0.084-0.005l0.024-0.5
	l-0.047-0.002l-0.025,0.5l-0.076-0.003l-0.004,0.092h0.028l-0.015,0.285l-0.084-0.004l-0.005,0.124l0.063,0.003l-0.011,0.224
	l-0.081-0.004l0,0.264l-0.113,0.104l0.002,0.108l0.146,0.136l-0.011,0.239l-0.053-0.001l-0.01,0.19l0.045,0.002l-0.019,0.37
	l-0.079-0.005l-0.013,0.251l-0.268-0.013l-0.013,0.252l0.035,0.038l-0.009,0.176l-0.047-0.002l-0.007,0.128l0.031,0.001
	l-0.017,0.332l-0.22-0.011l-0.005,0.1l0.244,0.421l-0.006,0.125l-0.032-0.002l-0.011,0.208l0.052,0.003l-0.102,2.054l-0.674,0.015
	v-1.195h-0.067v-0.454h-0.404v0.454h-0.353v-2.219h-0.403v-0.284h-0.521v-2.033h-0.184v-0.101h-0.925v-0.066h-0.269v0.167h-0.068
	v2.033h-0.017v0.284h-0.084v2.673h-0.235v-0.202h-0.235v-2.05h-0.824v2.252h-0.134v0.233H18.82v-0.896l0.036-0.044l-0.024-0.2
	l0.199-0.112l-0.007-0.104l-0.265-0.151v-0.16h0.089v-0.201h-0.132v-0.212l-0.076-0.075c-0.249-1.131-1.062-1.563-1.062-1.563
	v-0.256h-0.085v-0.308l0.017-0.065l-0.008-0.12l0.031-0.067l-0.007-0.08l-0.064-0.068v-0.101h0.031v-0.084h-0.04V35.78l-0.24-0.384
	v-0.172h0.032l-0.004-0.117h-0.043l-0.041-0.704l-0.024,0.004l-0.023,0.705h-0.033v0.104h0.029v0.186l-0.249,0.377v0.16h-0.033v0.09
	h0.048l-0.023,0.125l-0.07,0.07l0.002,0.095l0.037,0.037v0.137l0.028,0.026v0.339H16.75v0.219c-0.999,0.5-1.018,1.474-1.018,1.474
	h-0.124v0.244h-0.08v0.136h-0.045v0.077l0.045,0.047v0.096l-0.24,0.216v0.049l0.169,0.181v0.214l0.023,0.022l-0.029,1.146
	l-1.102,0.452v-0.32h-0.072v-0.265h-0.141v0.265h-0.083v0.452l-0.081-0.009l-0.272-0.271v-0.334h-0.068v0.337l-0.304,0.268
	l-0.256,0.05l0.144,0.128v0.063l-0.17,0.116v0.368h-0.275l0.269,0.233v0.344h-0.057v0.14h0.028v0.586h-0.612v-4.84h-1.042v-4.906
	h-0.773V33.6h-1.84v-0.227H8.09v-0.857H7.863v0.857H7.762v0.461H7.729v9.073H7.561v0.302H7.25V32.07H6.78v-1.092H6.3v-0.151H4.108
	v0.151H3.982v-0.227H3.755v0.856H3.654v0.462H3.621v3.885H3.403v0.618h0.218v0.125H3.39v0.618h0.231v0.126H3.378v0.617h0.243v0.126
	H3.365v0.617h0.256v0.127H3.352v0.188H2.269v1.614H2.017v-0.38H1.916v-4.334H0.806v2.167H0.479v1.147H0z M54.253,37.83l-0.013,0.035
	l-0.002-0.021L54.253,37.83z M65.214,20.039c0,0.018-0.036,2.593-0.036,2.593l-0.428-0.018l-0.227-2.397l0.351-0.435
	C64.874,19.782,65.214,20.021,65.214,20.039z M69.044,26.838l-0.158,3.83l-0.151-0.127l-0.015-3.513L69.044,26.838z M72.352,27.028
	l-0.016,3.513l-0.152,0.127l-0.157-3.83L72.352,27.028z M76.547,20.217l-0.227,2.397l-0.428,0.018c0,0-0.035-2.575-0.035-2.593
	c0-0.019,0.34-0.257,0.34-0.257L76.547,20.217z"/>
</svg>
