<?xml version="1.0" encoding="utf-8"?>
<!-- Generator: Adobe Illustrator 16.0.4, SVG Export Plug-In . SVG Version: 6.00 Build 0)  -->
<!DOCTYPE svg PUBLIC "-//W3C//DTD SVG 1.1//EN" "http://www.w3.org/Graphics/SVG/1.1/DTD/svg11.dtd" [
	<!ENTITY ns_extend "http://ns.adobe.com/Extensibility/1.0/">
	<!ENTITY ns_ai "http://ns.adobe.com/AdobeIllustrator/10.0/">
	<!ENTITY ns_graphs "http://ns.adobe.com/Graphs/1.0/">
	<!ENTITY ns_vars "http://ns.adobe.com/Variables/1.0/">
	<!ENTITY ns_imrep "http://ns.adobe.com/ImageReplacement/1.0/">
	<!ENTITY ns_sfw "http://ns.adobe.com/SaveForWeb/1.0/">
	<!ENTITY ns_custom "http://ns.adobe.com/GenericCustomNamespace/1.0/">
	<!ENTITY ns_adobe_xpath "http://ns.adobe.com/XPath/1.0/">
]>
<svg version="1.1" id="Layer_1" xmlns:x="&ns_extend;" xmlns:i="&ns_ai;" xmlns:graph="&ns_graphs;"
	 xmlns="http://www.w3.org/2000/svg" xmlns:xlink="http://www.w3.org/1999/xlink" x="0px" y="0px" width="100px" height="50px"
	 viewBox="0 0 100 50" enable-background="new 0 0 100 50" xml:space="preserve">
<metadata>
	<sfw  xmlns="&ns_sfw;">
		<slices></slices>
		<sliceSourceBounds  x="-87.461" y="-39.826" height="72.479" width="186.961" bottomLeftOrigin="true"></sliceSourceBounds>
	</sfw>
</metadata>
<path fill="#231F20" d="M-86.903,90.326l-0.058-0.013c0.021-0.016,0.038-0.034,0.058-0.053V90.326z"/>
<g>
	<path fill="#231F20" d="M99.451,46.422v-3.633l-0.85-1.185v-1.232h-0.184v-3.337l-0.596-0.152l-0.828-0.062l-0.178-3.913
		l-0.602-0.225v-1.602l-0.103-0.102l-0.071-4.816h-0.082l-0.043,4.834l-0.061,0.092v1.331h-0.093v-0.106h-0.084v-0.146h-0.658v0.122
		H94.5v-1.193l-0.084-0.085l-0.061-4.224h-0.055l-0.04,4.242l-0.074,0.073v1.21h-0.36v0.13h0.177v0.16h0.106v0.123l-0.619,0.038
		l-0.475,7.867h-2.027v-1.087h-0.523v-1.321l-0.357-0.479v-0.133H89.98v0.143l-0.338,0.393c0,0,0,0.261,0,0.296
		c0,0.036-0.157,0-0.157,0v-0.438h-0.097l-0.24-0.372v-0.209h-0.098v0.219L88.791,38h-0.097v0.443h-0.188V38.03l-0.066-0.005
		l-0.24-0.372v-0.204h-0.111v0.215l-0.225,0.347h-0.051v0.433L87,38.489v0.261h-0.352v-0.413h-0.336l-0.846,0.996l-0.115-0.008
		v3.351h-0.346v-0.19h-0.082V42.33h0.082v-0.608h-0.082v-0.154h0.082v-0.608h-0.082v-0.155h0.082v-0.608h-0.082V40.04h0.082v-0.608
		h-0.082v-0.155h0.082v-0.608h-0.082v-0.155h0.082v-0.608h-0.082V37.75h0.082v-0.608h-0.082v-0.155h0.082v-0.608h-0.082v-0.155
		h0.082v-0.608h-0.082v-0.125h-1.45v-1.45h-3.559v0.76h-0.208l-0.656-0.76h-0.656v-0.242h-0.691v-1.728h-0.241v1.692h-1.071v0.374
		h-0.451v0.076h-2.123v-0.076h-0.752v0.076h-0.094v1.243h-0.587v0.219h-0.083v0.478h0.083v0.227h-0.083v0.477h0.083v0.227h-0.083
		v0.478h0.083v0.228h-0.083v0.477h0.083v0.227h-0.083v0.478h0.083v0.227h-0.083v0.477h0.083v0.227h-0.083v0.478h0.083v0.227h-0.083
		v0.478h0.083v0.227h-0.083v0.478h0.083v0.227h-0.083v0.477h0.083v0.227h-0.083v0.478h0.083v0.227h-0.083v0.478h0.083v0.227h-0.083
		v0.145h-0.32v-17.09h-0.944V26.83h-0.722v-0.063h-0.107v-0.055h-0.143v0.055h-0.156V26.53H69.43v-0.892h-0.135v0.892h-0.032v-1.082
		h-0.392v1.209h-0.265l-0.173,0.173h-0.944v0.368h-1.405v0.247h-0.037v2.381h0.037v13.886H65.67v-7.301h-0.299v-1.129l-0.6-0.714
		v-1.843H64.08v-0.276h-0.783l-1.727,3.063v4.515h-0.76v-8.868h-0.346v-0.368h-0.346v-3.432h-0.161v3.478h-0.253l-0.691,0.346h-1.75
		v8.016h-1.129v0.414h-1.911v-0.208h-0.368l-0.197,0.196H52.07v3.489h-0.145v-3.771l-0.609-0.042v-0.35l-1.722-0.101l-1.049,0.089
		v-3.278l-2.364-0.153V35.39l-2.429-0.225v0.165l-0.153-0.023l-1.993,0.283v4.327l-0.377,0.012v0.178l-1.793,0.188v-1.062
		l-1.485-0.106v-0.2l-0.849-0.059l-0.731,0.094v-2.138l-0.045-0.046v-1.204h-0.116v0.212h-0.369v-0.621H35.65v-0.173h-0.244v-0.505
		h-0.069v0.519h-0.159v-0.519h-0.083v0.524H34.99v0.26h-0.643v-0.213h-0.442v0.065h-0.083v-0.33h-0.042v0.317h-0.448v0.118h-0.236
		v0.666h-0.372v-0.177h-0.135v0.755h-0.047v0.519h-0.036v2.358h-0.136v0.743h-0.177v1.12h-0.118v-1.061h-0.2V39.28h-0.259v-0.094
		h-0.566v0.105h-0.153v-0.153h-0.424v0.142h-0.13v-0.142h-0.483v0.118l-0.378-0.059l-1.521,0.212v3.479h-0.495v0.188l-0.129,0.13
		v-0.032h-0.094v0.038h-0.127v-0.041h-0.111v0.05h-0.166v-0.047H26.7v0.041h-0.253l-0.474,0.078v-0.629l-0.228-0.071v-9.457
		l-0.731-0.056v-5.573h-0.495V27.24l-0.771-0.079v-4.323l-0.314-0.095l-0.018-1.289v-0.069h0l-0.014-1h-0.086v1h-0.322v-1.927
		l-0.137-1.557l-0.094,1.533v3.302H22.68v-2.383h-0.079v2.092l-0.306,0.07v-1.776h-0.063v-0.472l-0.103-0.016v-1.093l-0.039-0.067
		l-0.047-1.244l-0.041,1.251l-0.035,0.047l0.025,1.095l-0.047,0.004v1.489l-0.131,0.03v0.89l-0.083,0.041v0.248h-0.141v-2.323
		L21.5,20.637v2.358l-0.372,0.112v4.133l-0.572,0.158v5.77l-0.597,0.157v7.288l-0.393,0.047v0.174h0.047v0.251h-1.093v1.463h-0.11
		v0.393h-0.047v0.652h-0.118v-0.605h-0.574v-0.039H17.57v-0.676h-0.259v-3.609h-0.126v0.047h-0.181v-0.062h-0.142v0.047H16.54
		v-0.086h-0.291v-3.963h0.045v-0.085h-0.241v-0.217h0.054v-0.114h-0.054v-0.114h-0.158v-0.302h-0.436v-0.138H15.38
		c0,0,0.035-0.413,0-0.413c-0.036,0-0.417,0-0.417,0v-0.149h-0.118V32.96h-0.26v0.153h-0.035v0.122h-0.366v0.487h-0.491v0.307
		h-0.185v0.534h-0.193v3.942l-0.115,0.037v-0.038l-0.1,0.012v0.051l-0.059,0.015v-0.036l-0.103,0.009v1.351h-0.383v-0.298H12.19
		v0.343L11.958,40v0.097l-1.125,0.164V28.306l-0.078-0.035v-0.419l-0.036-0.035v-0.27h-0.206v-0.292h-0.042v-1.477h-0.107v-0.191
		c0,0-0.383-0.007-0.858,0.071c-0.476,0.078-1.427,0.292-2.087,0.589c-0.394,0.178-0.468,0.49-0.468,0.49l-0.068,0.027v0.075H6.822
		v0.117h0.032v0.096H6.591v0.295l-0.056,0.057v0.656H6.206l-0.074,0.112v4.339l-0.335,0.096v0.102H5.604v5.911H4.188l-0.213,0.1
		v1.665H3.781v0.173H3.199v-0.078H2.845l-0.079,0.078H2.46v-0.299H2.311v0.275H2.02v-0.071H1.422v1.542H0.589v1.147l-0.33,0.299
		v2.768L0,46.518V50h100v-3.578H99.451z M23.316,22.775l-0.322-0.055v-1.266h0.322V22.775z"/>
</g>
</svg>
