<?xml version="1.0" encoding="utf-8"?>
<!-- Generator: Adobe Illustrator 16.0.4, SVG Export Plug-In . SVG Version: 6.00 Build 0)  -->
<!DOCTYPE svg PUBLIC "-//W3C//DTD SVG 1.1//EN" "http://www.w3.org/Graphics/SVG/1.1/DTD/svg11.dtd" [
	<!ENTITY ns_extend "http://ns.adobe.com/Extensibility/1.0/">
	<!ENTITY ns_ai "http://ns.adobe.com/AdobeIllustrator/10.0/">
	<!ENTITY ns_graphs "http://ns.adobe.com/Graphs/1.0/">
	<!ENTITY ns_vars "http://ns.adobe.com/Variables/1.0/">
	<!ENTITY ns_imrep "http://ns.adobe.com/ImageReplacement/1.0/">
	<!ENTITY ns_sfw "http://ns.adobe.com/SaveForWeb/1.0/">
	<!ENTITY ns_custom "http://ns.adobe.com/GenericCustomNamespace/1.0/">
	<!ENTITY ns_adobe_xpath "http://ns.adobe.com/XPath/1.0/">
]>
<svg version="1.1" id="Layer_1" xmlns:x="&ns_extend;" xmlns:i="&ns_ai;" xmlns:graph="&ns_graphs;"
	 xmlns="http://www.w3.org/2000/svg" xmlns:xlink="http://www.w3.org/1999/xlink" x="0px" y="0px" width="100px" height="50px"
	 viewBox="0 0 100 50" enable-background="new 0 0 100 50" xml:space="preserve">
<metadata>
	<sfw  xmlns="&ns_sfw;">
		<slices></slices>
		<sliceSourceBounds  x="-87.461" y="-39.826" height="60.888" width="186.961" bottomLeftOrigin="true"></sliceSourceBounds>
	</sfw>
</metadata>
<path fill="#231F20" d="M-86.903,90.326l-0.058-0.013c0.021-0.016,0.038-0.034,0.058-0.053V90.326z"/>
<path id="XMLID_653_" fill="#0D0C0C" d="M98.741,33.231h-4.782v14.348H92.5V32.431h-0.973v-0.988H87.02v0.988h-0.973v7.993
	l-1.459,0.72v-6.77h-5.17v12.925h-0.797V36.713l-2.519-1.133v-2.458H73.98V45.62h-1.9v-9.5h-1.502v-2.273h-3.669v14.624H65.44
	v-1.243h-1.423v-1.055l-0.523-0.4l-0.109-3.274h0.16c0.08,0,0.145-0.065,0.145-0.146s-0.064-0.146-0.145-0.146h-0.17l-0.104-3.11
	h0.139c0.07,0,0.129-0.058,0.129-0.128s-0.059-0.128-0.129-0.128h-0.146l-0.119-3.575h0.091c0.058,0,0.105-0.048,0.105-0.105
	c0-0.059-0.048-0.105-0.105-0.105h-0.099l-0.033-0.991h0.092c0.056,0,0.101-0.046,0.101-0.101s-0.045-0.101-0.101-0.101h-0.185
	c-0.001-0.145-0.043-0.479-0.402-0.685c0,0-0.063-0.036-0.091-0.129h-0.057v-0.689h-0.08v0.689h-0.057
	c-0.027,0.093-0.092,0.129-0.092,0.129c-0.359,0.206-0.402,0.54-0.402,0.685h-0.186c-0.055,0-0.1,0.046-0.1,0.101
	s0.045,0.101,0.1,0.101h0.092l-0.032,0.991h-0.099c-0.059,0-0.105,0.047-0.105,0.105c0,0.058,0.047,0.105,0.105,0.105h0.092
	l-0.119,3.575H61.43c-0.07,0-0.127,0.058-0.127,0.128s0.057,0.128,0.127,0.128h0.14l-0.104,3.11h-0.169
	c-0.08,0-0.146,0.065-0.146,0.146s0.065,0.146,0.146,0.146h0.16l-0.109,3.27c-0.027,0.001-0.044,0.003-0.044,0.005l-0.485,0.371
	h-4.133l-0.065-1.669h0.099c0.046,0,0.083-0.037,0.083-0.082s-0.037-0.082-0.083-0.082h-0.105l-0.08-2.063h0.139
	c0.045,0,0.082-0.037,0.082-0.082s-0.037-0.082-0.082-0.082h-0.145l-0.086-2.208h0.064c0.064,0,0.116-0.053,0.116-0.117
	c0-0.063-0.052-0.116-0.116-0.116h-0.104v-0.641h0.092c0.038,0,0.069-0.031,0.069-0.069s-0.031-0.069-0.069-0.069h-0.072
	c-0.013-0.116-0.077-0.509-0.389-0.562v-0.382h-0.06v0.387c-0.29,0.07-0.351,0.444-0.362,0.557h-0.103
	c-0.037,0-0.068,0.031-0.068,0.069s0.031,0.069,0.068,0.069h0.099v0.641H55.49c-0.064,0-0.117,0.053-0.117,0.116
	c0,0.064,0.053,0.117,0.117,0.117h0.049l-0.086,2.208h-0.145c-0.045,0-0.082,0.037-0.082,0.082s0.037,0.082,0.082,0.082h0.139
	l-0.08,2.063h-0.105c-0.046,0-0.083,0.037-0.083,0.082s0.037,0.082,0.083,0.082h0.099l-0.065,1.669h-0.527v-6.723h0.006V37.99h0.072
	v-0.161h-0.15v-0.397H54.6v0.397h-0.174v0.161h0.083v1.355l-0.474-0.112V37.44h0.072v-0.16h-0.15v-0.397h-0.096v0.397h-0.174v0.16
	h0.083v1.729l-0.436-0.104v-1.321h0.073v-0.161h-0.152v-0.397h-0.094v0.397h-0.176v0.161h0.084v1.26h-0.363v-0.89h0.133v-0.236
	h-0.141c0.003-0.128-0.005-0.975-0.865-1.259h0.021v-0.18h-0.236V35.54h-0.143v0.899h-0.198v0.18h0.003
	c-0.859,0.284-0.868,1.131-0.864,1.259h-0.18v0.236h0.142v0.89h-0.331v-1.413c0,0,1.192-3.868-2.574-5.591l-0.423-0.454h-0.105
	v-0.221h-0.382v-0.156c0.156-0.056,0.269-0.204,0.269-0.38s-0.112-0.324-0.269-0.38v-0.221c0.112-0.052,0.189-0.164,0.189-0.296
	c0-0.131-0.078-0.243-0.189-0.295v-0.159h-0.271v0.159c-0.112,0.052-0.189,0.164-0.189,0.295c0,0.132,0.078,0.244,0.189,0.296v0.221
	c-0.156,0.056-0.268,0.204-0.268,0.38s0.112,0.324,0.268,0.38v0.156h-0.382v0.221h-0.105L45.383,32
	c-3.767,1.723-2.574,5.591-2.574,5.591v1.413h-0.331v-0.89h0.142v-0.236h-0.18c0.004-0.128-0.004-0.975-0.864-1.259h0.004v-0.18
	H41.38V35.54h-0.142v0.899h-0.237v0.18h0.021c-0.86,0.284-0.868,1.131-0.865,1.259h-0.141v0.236h0.133v0.89h-0.363v-1.26h0.084
	v-0.161h-0.175v-0.397h-0.095v0.397h-0.151v0.161h0.073v1.321l-0.436,0.104V37.44h0.083v-0.16h-0.175v-0.397H38.9v0.397h-0.151v0.16
	h0.073v1.793l-0.474,0.112V37.99h0.084v-0.161h-0.175v-0.397h-0.095v0.397h-0.151v0.161h0.073v1.431h0.006v6.723h-0.528
	l-0.065-1.669h0.1c0.045,0,0.082-0.037,0.082-0.082s-0.037-0.082-0.082-0.082H37.49l-0.08-2.063h0.138
	c0.045,0,0.082-0.037,0.082-0.082s-0.037-0.082-0.082-0.082h-0.145l-0.086-2.208h0.049c0.064,0,0.117-0.053,0.117-0.117
	c0-0.063-0.053-0.116-0.117-0.116H37.25v-0.641h0.098c0.038,0,0.069-0.031,0.069-0.069s-0.031-0.069-0.069-0.069h-0.102
	c-0.012-0.112-0.072-0.486-0.362-0.557v-0.387h-0.06v0.382c-0.312,0.053-0.376,0.445-0.389,0.562h-0.072
	c-0.038,0-0.069,0.031-0.069,0.069s0.031,0.069,0.069,0.069h0.092v0.641h-0.104c-0.064,0-0.117,0.053-0.117,0.116
	c0,0.064,0.052,0.117,0.117,0.117h0.064l-0.085,2.208h-0.145c-0.045,0-0.082,0.037-0.082,0.082s0.037,0.082,0.082,0.082h0.138
	l-0.081,2.063h-0.105c-0.045,0-0.082,0.037-0.082,0.082s0.037,0.082,0.082,0.082h0.1l-0.065,1.669h-4.134l-0.485-0.371
	c0-0.002-0.016-0.004-0.044-0.005l-0.109-3.27h0.16c0.08,0,0.146-0.065,0.146-0.146s-0.066-0.146-0.146-0.146h-0.17l-0.104-3.11
	h0.14c0.07,0,0.128-0.058,0.128-0.128s-0.058-0.128-0.128-0.128h-0.148l-0.119-3.575h0.092c0.058,0,0.105-0.048,0.105-0.105
	c0-0.059-0.047-0.105-0.105-0.105h-0.099l-0.033-0.991h0.092c0.055,0,0.1-0.046,0.1-0.101s-0.045-0.101-0.1-0.101h-0.186
	c0-0.145-0.042-0.479-0.402-0.685c0,0-0.064-0.036-0.091-0.129h-0.057v-0.689h-0.08v0.689h-0.057
	c-0.027,0.093-0.091,0.129-0.091,0.129c-0.359,0.206-0.401,0.54-0.401,0.685h-0.186c-0.055,0-0.1,0.046-0.1,0.101
	s0.045,0.101,0.1,0.101h0.092l-0.033,0.991h-0.099c-0.058,0-0.105,0.047-0.105,0.105c0,0.058,0.047,0.105,0.105,0.105h0.091
	l-0.119,3.575h-0.148c-0.07,0-0.128,0.058-0.128,0.128s0.058,0.128,0.128,0.128h0.139l-0.104,3.11h-0.169
	c-0.08,0-0.146,0.065-0.146,0.146s0.065,0.146,0.146,0.146h0.16l-0.109,3.274l-0.523,0.4v1.055h-1.773v1.243h-0.72v-5.771
	l-4.622-3.072v8.844h-0.626V37.81h-0.65V36.41h-4.903v1.399h-0.629v7.501h-0.677v-3.331l-4.637-2.878v7.914H7.943V34.225H6.651
	v-1.999H2.733v1.999H1.441v14.246H0V50h27.041h6.905H100v-1.529h-1.259V33.231z M40.664,45.591v-1.324
	c-0.022-0.516,0.833-0.962,0.833-0.962s0.855,0.446,0.833,0.962v1.324H40.664z M50.527,45.591v-1.324
	c-0.021-0.516,0.834-0.962,0.834-0.962s0.854,0.446,0.832,0.962v1.324H50.527z M62.709,34.397c0-0.085,0.068-0.154,0.154-0.154
	c0.085,0,0.154,0.069,0.154,0.154v0.509h-0.309V34.397z M62.262,34.397c0-0.085,0.069-0.154,0.154-0.154
	c0.086,0,0.155,0.069,0.155,0.154v0.509h-0.31V34.397z M61.828,34.397c0-0.085,0.069-0.154,0.154-0.154
	c0.086,0,0.156,0.069,0.156,0.154v0.509h-0.311V34.397z M56.158,39.132c0-0.039,0.039-0.071,0.086-0.071
	c0.048,0,0.086,0.032,0.086,0.071v0.236h-0.172V39.132z M56,39.061c0.047,0,0.086,0.031,0.086,0.07l0.002,0.237l-0.172,0.001
	l-0.002-0.237C55.914,39.093,55.953,39.062,56,39.061z M55.68,39.132c0-0.039,0.038-0.071,0.086-0.071
	c0.047,0,0.086,0.032,0.086,0.071v0.236H55.68V39.132z M53.316,41.363c-0.016-0.557,0.522-0.962,0.522-0.962
	s0.474,0.494,0.462,0.985v1.214h-0.984V41.363z M53.316,44.354c-0.016-0.557,0.522-0.963,0.522-0.963s0.474,0.495,0.462,0.985v1.214
	h-0.984V44.354z M52.022,38.531c0-0.178,0.257-0.322,0.257-0.322s0.258,0.145,0.258,0.322v0.473h-0.515V38.531z M52.193,41.275
	v1.325h-1.666v-1.325c-0.021-0.515,0.834-0.962,0.834-0.962S52.216,40.761,52.193,41.275z M51.278,38.531
	c0-0.178,0.257-0.322,0.257-0.322s0.258,0.145,0.258,0.322v0.473h-0.515V38.531z M50.521,38.531c0-0.178,0.257-0.322,0.257-0.322
	s0.257,0.145,0.257,0.322v0.473h-0.514V38.531z M44.525,41.565c-0.025-0.479,0.782-1.174,0.782-1.174l1.121-0.597l1.121,0.597
	c0,0,0.808,0.694,0.782,1.174v4.578h-3.806V41.565z M41.822,38.531c0-0.178,0.257-0.322,0.257-0.322s0.257,0.145,0.257,0.322v0.473
	h-0.514V38.531z M41.064,38.531c0-0.178,0.257-0.322,0.257-0.322s0.257,0.145,0.257,0.322v0.473h-0.515V38.531z M41.497,40.313
	c0,0,0.855,0.447,0.833,0.962v1.325h-1.665v-1.325C40.642,40.761,41.497,40.313,41.497,40.313z M40.32,38.531
	c0-0.178,0.257-0.322,0.257-0.322s0.257,0.145,0.257,0.322v0.473H40.32V38.531z M38.556,41.387
	c-0.012-0.491,0.462-0.985,0.462-0.985s0.538,0.405,0.522,0.962v1.237h-0.984V41.387z M38.556,44.377
	c-0.012-0.49,0.462-0.985,0.462-0.985s0.538,0.406,0.522,0.963v1.236h-0.984V44.377z M37.006,39.132
	c0-0.039,0.039-0.071,0.086-0.071s0.086,0.032,0.086,0.071v0.236h-0.172V39.132z M36.771,39.131c0-0.039,0.039-0.07,0.086-0.07
	c0.047,0.001,0.086,0.032,0.085,0.071l-0.001,0.237l-0.172-0.001L36.771,39.131z M36.526,39.132c0-0.039,0.039-0.071,0.086-0.071
	c0.048,0,0.086,0.032,0.086,0.071v0.236h-0.172V39.132z M30.719,34.397c0-0.085,0.069-0.154,0.155-0.154s0.155,0.069,0.155,0.154
	v0.509h-0.31V34.397z M30.286,34.397c0-0.085,0.069-0.154,0.155-0.154s0.155,0.069,0.155,0.154v0.509h-0.31V34.397z M29.839,34.397
	c0-0.085,0.069-0.154,0.155-0.154c0.085,0,0.155,0.069,0.155,0.154v0.509h-0.31V34.397z"/>
</svg>
