<?xml version="1.0" encoding="utf-8"?>
<!-- Generator: Adobe Illustrator 16.0.4, SVG Export Plug-In . SVG Version: 6.00 Build 0)  -->
<!DOCTYPE svg PUBLIC "-//W3C//DTD SVG 1.1//EN" "http://www.w3.org/Graphics/SVG/1.1/DTD/svg11.dtd" [
	<!ENTITY ns_extend "http://ns.adobe.com/Extensibility/1.0/">
	<!ENTITY ns_ai "http://ns.adobe.com/AdobeIllustrator/10.0/">
	<!ENTITY ns_graphs "http://ns.adobe.com/Graphs/1.0/">
	<!ENTITY ns_vars "http://ns.adobe.com/Variables/1.0/">
	<!ENTITY ns_imrep "http://ns.adobe.com/ImageReplacement/1.0/">
	<!ENTITY ns_sfw "http://ns.adobe.com/SaveForWeb/1.0/">
	<!ENTITY ns_custom "http://ns.adobe.com/GenericCustomNamespace/1.0/">
	<!ENTITY ns_adobe_xpath "http://ns.adobe.com/XPath/1.0/">
]>
<svg version="1.1" id="Layer_1" xmlns:x="&ns_extend;" xmlns:i="&ns_ai;" xmlns:graph="&ns_graphs;"
	 xmlns="http://www.w3.org/2000/svg" xmlns:xlink="http://www.w3.org/1999/xlink" x="0px" y="0px" width="40px" height="40px"
	 viewBox="0 0 40 40" enable-background="new 0 0 40 40" xml:space="preserve">
<metadata>
	<sfw  xmlns="&ns_sfw;">
		<slices></slices>
		<sliceSourceBounds  x="-0.5" y="0.5" height="40" width="40" bottomLeftOrigin="true"></sliceSourceBounds>
	</sfw>
</metadata>
<g>
	<rect fill="none" width="40" height="40"/>
</g>
<path fill="#FFFFFF" d="M29.62,8.593L25.884,8c4.263,8.779-4.55,10.761-5.884,10.761c-0.492,0-2-0.273-3.494-1.051
	c-1.591-3.125-3.242-5.558-3.517-5.957c0.091-1.087,0.434-2.33,1.125-3.754L10.38,8.593c0,0-2.78,6.152-0.459,10.569l0,0l0,0
	c0.297,0.562,0.678,1.099,1.157,1.59c1.774,3.194,1.674,7.546,1.674,7.546h0.004V32h0.548v-3.702h0.504v3.701h0.548v-3.701h0.504
	v3.701h0.548v-3.701h0.504v3.701h0.549v-3.701h0.503v3.701h0.55v-3.701h0.504v3.701h0.548v-3.701h0.504v3.701h0.548v-3.701
	c0.074-1.47-0.217-3.105-0.71-4.762c0.352,0.015,0.712,0.026,1.088,0.026C36.383,23.562,29.62,8.593,29.62,8.593z"/>
</svg>
