<?xml version="1.0" encoding="utf-8"?>
<!-- Generator: Adobe Illustrator 16.0.4, SVG Export Plug-In . SVG Version: 6.00 Build 0)  -->
<!DOCTYPE svg PUBLIC "-//W3C//DTD SVG 1.1//EN" "http://www.w3.org/Graphics/SVG/1.1/DTD/svg11.dtd" [
	<!ENTITY ns_extend "http://ns.adobe.com/Extensibility/1.0/">
	<!ENTITY ns_ai "http://ns.adobe.com/AdobeIllustrator/10.0/">
	<!ENTITY ns_graphs "http://ns.adobe.com/Graphs/1.0/">
	<!ENTITY ns_vars "http://ns.adobe.com/Variables/1.0/">
	<!ENTITY ns_imrep "http://ns.adobe.com/ImageReplacement/1.0/">
	<!ENTITY ns_sfw "http://ns.adobe.com/SaveForWeb/1.0/">
	<!ENTITY ns_custom "http://ns.adobe.com/GenericCustomNamespace/1.0/">
	<!ENTITY ns_adobe_xpath "http://ns.adobe.com/XPath/1.0/">
]>
<svg version="1.1" id="Layer_1" xmlns:x="&ns_extend;" xmlns:i="&ns_ai;" xmlns:graph="&ns_graphs;"
	 xmlns="http://www.w3.org/2000/svg" xmlns:xlink="http://www.w3.org/1999/xlink" x="0px" y="0px" width="40px" height="40px"
	 viewBox="0 0 40 40" enable-background="new 0 0 40 40" xml:space="preserve">
<metadata>
	<sfw  xmlns="&ns_sfw;">
		<slices></slices>
		<sliceSourceBounds  x="-0.5" y="0.5" height="40" width="40" bottomLeftOrigin="true"></sliceSourceBounds>
	</sfw>
</metadata>
<g>
	<rect fill="none" width="40" height="40"/>
</g>
<g>
	<path fill="#FFFFFF" d="M14.057,24.839c1.372-0.562,2.11-0.949,2.603-2.252c0.422-1.125,0.246-3.164-0.352-4.148
		c-0.457-0.739-1.723-1.337-2.813-1.688c1.055,1.583,1.477,4.009,1.161,6.12C14.515,23.608,14.338,24.276,14.057,24.839z"/>
	<path fill="#FFFFFF" d="M10.893,25.858c2.075,0.211,2.637-2.109,2.778-3.129c0.422-2.814-0.668-6.366-2.708-6.718
		c-0.704-0.141-1.372,0.141-1.899,0.844c-1.266,1.548-1.618,4.747-0.739,6.858C8.677,24.593,9.416,25.683,10.893,25.858z"/>
	<path fill="#FFFFFF" d="M29.389,15.977c-0.105,0-0.211,0-0.316,0.035c-2.004,0.352-3.094,3.903-2.707,6.718
		c0.105,0.773,0.457,2.285,1.477,2.883l0,0l0,0c0.352,0.211,0.773,0.281,1.266,0.246c1.477-0.176,2.215-1.23,2.566-2.145
		c0.879-2.111,0.527-5.311-0.738-6.894C30.514,16.258,29.986,15.977,29.389,15.977z"/>
	<path fill="#FFFFFF" d="M21.02,27.44c2.074-0.211,3.764-0.879,4.396-1.793c-1.373-0.562-2.322-1.125-2.955-2.742
		c-0.527-1.408-0.316-3.764,0.457-4.995c0.387-0.598,1.055-1.09,1.795-1.477c-0.178-0.316-0.318-0.703-0.494-1.09
		c-0.984-2.181-2.32-5.135-4.183-5.135H20c-1.617,0.035-3.165,2.603-4.325,4.466c-0.352,0.563-0.668,1.055-0.949,1.477
		c0.949,0.422,1.898,0.984,2.391,1.723c0.773,1.231,0.985,3.586,0.457,4.995c-0.598,1.582-1.583,2.18-2.954,2.742
		C15.851,27.194,18.664,27.687,21.02,27.44z M21.477,24.593c0.387,0,0.703,0.316,0.703,0.703s-0.316,0.703-0.703,0.703
		s-0.703-0.316-0.703-0.703S21.09,24.593,21.477,24.593z M20.141,24.312c-0.387,0-0.704-0.316-0.704-0.703s0.316-0.703,0.704-0.703
		c0.386,0,0.703,0.316,0.703,0.703C20.844,24.03,20.527,24.312,20.141,24.312z M19.508,12.459c0-0.352,0.316-0.633,0.668-0.633
		c0.351,0,0.632,0.316,0.632,0.668l-0.176,4.361c0,0.352-0.316,0.633-0.668,0.633H19.93c-0.352,0-0.633-0.317-0.633-0.668
		L19.508,12.459z M18.664,24.593c0.387,0,0.703,0.316,0.703,0.703s-0.316,0.703-0.703,0.703s-0.704-0.316-0.704-0.703
		S18.312,24.593,18.664,24.593z"/>
	<path fill="#FFFFFF" d="M23.727,18.438c-0.598,0.984-0.773,3.023-0.352,4.148c0.492,1.303,1.23,1.725,2.604,2.252
		c-0.281-0.562-0.457-1.23-0.598-1.969c-0.316-2.146,0.141-4.538,1.195-6.155C25.451,17.102,24.219,17.7,23.727,18.438z"/>
</g>
</svg>
