<?xml version="1.0" encoding="utf-8"?>
<!-- Generator: Adobe Illustrator 16.0.4, SVG Export Plug-In . SVG Version: 6.00 Build 0)  -->
<!DOCTYPE svg PUBLIC "-//W3C//DTD SVG 1.1//EN" "http://www.w3.org/Graphics/SVG/1.1/DTD/svg11.dtd" [
	<!ENTITY ns_extend "http://ns.adobe.com/Extensibility/1.0/">
	<!ENTITY ns_ai "http://ns.adobe.com/AdobeIllustrator/10.0/">
	<!ENTITY ns_graphs "http://ns.adobe.com/Graphs/1.0/">
	<!ENTITY ns_vars "http://ns.adobe.com/Variables/1.0/">
	<!ENTITY ns_imrep "http://ns.adobe.com/ImageReplacement/1.0/">
	<!ENTITY ns_sfw "http://ns.adobe.com/SaveForWeb/1.0/">
	<!ENTITY ns_custom "http://ns.adobe.com/GenericCustomNamespace/1.0/">
	<!ENTITY ns_adobe_xpath "http://ns.adobe.com/XPath/1.0/">
]>
<svg version="1.1" id="Layer_1" xmlns:x="&ns_extend;" xmlns:i="&ns_ai;" xmlns:graph="&ns_graphs;"
	 xmlns="http://www.w3.org/2000/svg" xmlns:xlink="http://www.w3.org/1999/xlink" x="0px" y="0px" width="40px" height="40px"
	 viewBox="0 0 40 40" enable-background="new 0 0 40 40" xml:space="preserve">
<metadata>
	<sfw  xmlns="&ns_sfw;">
		<slices></slices>
		<sliceSourceBounds  x="-0.5" y="0.5" height="40" width="40" bottomLeftOrigin="true"></sliceSourceBounds>
	</sfw>
</metadata>
<g>
	<rect fill="none" width="40" height="40"/>
	<g>
		<path fill="#FFFFFF" d="M30.722,20.584c-0.12,0-0.214-0.053-0.309-0.133c-0.776-0.724-1.5-1.233-2.612-1.233
			c-1.272,0-2.371,0.791-3.094,1.796c-0.162,0.228-0.282,0.469-0.43,0.696c-0.094,0.147-0.201,0.228-0.375,0.228
			c-0.188,0-0.295-0.08-0.389-0.228c-0.146-0.228-0.268-0.469-0.428-0.696c-0.725-1.005-1.809-1.796-3.082-1.796
			c-1.273,0-2.358,0.791-3.082,1.796c-0.161,0.228-0.281,0.469-0.429,0.696c-0.094,0.147-0.201,0.228-0.388,0.228
			c-0.174,0-0.281-0.08-0.375-0.228c-0.147-0.228-0.268-0.469-0.429-0.696c-0.723-1.005-1.822-1.796-3.095-1.796
			c-1.112,0-1.835,0.509-2.612,1.233c-0.094,0.081-0.188,0.133-0.308,0.133c-0.228,0-0.429-0.2-0.429-0.428
			c0-0.04,0-0.067,0.013-0.094c1.233-5.064,6.123-7.931,11.133-7.931c4.984,0,9.928,2.867,11.133,7.931
			c0.014,0.027,0.014,0.054,0.014,0.094C31.15,20.384,30.949,20.584,30.722,20.584z M20.861,27.564c0,1.862-1.567,3.43-3.43,3.43
			s-3.43-1.567-3.43-3.43c0-0.469,0.389-0.857,0.857-0.857s0.857,0.389,0.857,0.857c0,0.897,0.817,1.715,1.715,1.715
			s1.715-0.817,1.715-1.715v-7.771c0.281-0.094,0.562-0.147,0.857-0.147s0.576,0.054,0.857,0.147V27.564z M20.861,11.729
			c-0.281-0.014-0.576-0.027-0.857-0.027s-0.576,0.013-0.857,0.027v-1.313c0-0.469,0.389-0.857,0.857-0.857s0.857,0.389,0.857,0.857
			V11.729z"/>
	</g>
</g>
</svg>
