<?xml version="1.0" encoding="utf-8"?>
<!-- Generator: Adobe Illustrator 16.0.4, SVG Export Plug-In . SVG Version: 6.00 Build 0)  -->
<!DOCTYPE svg PUBLIC "-//W3C//DTD SVG 1.1//EN" "http://www.w3.org/Graphics/SVG/1.1/DTD/svg11.dtd" [
	<!ENTITY ns_extend "http://ns.adobe.com/Extensibility/1.0/">
	<!ENTITY ns_ai "http://ns.adobe.com/AdobeIllustrator/10.0/">
	<!ENTITY ns_graphs "http://ns.adobe.com/Graphs/1.0/">
	<!ENTITY ns_vars "http://ns.adobe.com/Variables/1.0/">
	<!ENTITY ns_imrep "http://ns.adobe.com/ImageReplacement/1.0/">
	<!ENTITY ns_sfw "http://ns.adobe.com/SaveForWeb/1.0/">
	<!ENTITY ns_custom "http://ns.adobe.com/GenericCustomNamespace/1.0/">
	<!ENTITY ns_adobe_xpath "http://ns.adobe.com/XPath/1.0/">
]>
<svg version="1.1" id="Layer_1" xmlns:x="&ns_extend;" xmlns:i="&ns_ai;" xmlns:graph="&ns_graphs;"
	 xmlns="http://www.w3.org/2000/svg" xmlns:xlink="http://www.w3.org/1999/xlink" x="0px" y="0px" width="40px" height="40px"
	 viewBox="0 0 40 40" enable-background="new 0 0 40 40" xml:space="preserve">
<metadata>
	<sfw  xmlns="&ns_sfw;">
		<slices></slices>
		<sliceSourceBounds  x="-0.5" y="0.5" height="40" width="40" bottomLeftOrigin="true"></sliceSourceBounds>
	</sfw>
</metadata>
<g>
	<rect fill="none" width="40" height="40"/>
</g>
<path fill="#FFFFFF" d="M26.824,11.312c-0.015-0.011-0.033-0.028-0.057-0.046C24.791,9.707,22.387,8.851,20,8.851
	c-2.388,0-4.79,0.856-6.766,2.415c-0.024,0.018-0.042,0.035-0.059,0.046c-0.9,0.692-1.313,1.75-1.228,3.144
	c0.09,1.464,0.243,2.547,0.308,2.97h0.55c-0.053-0.331-0.222-1.464-0.315-3.003c-0.074-1.201,0.269-2.103,1.017-2.68
	c0.018-0.014,0.039-0.03,0.064-0.05C15.45,10.21,17.735,9.395,20,9.395c2.268,0,4.55,0.816,6.428,2.297
	c0.027,0.02,0.048,0.037,0.063,0.05c0.749,0.578,1.094,1.479,1.02,2.68c-0.094,1.539-0.265,2.673-0.318,3.003h0.553
	c0.065-0.423,0.22-1.506,0.309-2.97C28.138,13.062,27.726,12.004,26.824,11.312z M24.066,14.291l-0.078-0.425l-0.35,0.253
	c-0.026,0.02-2.645,1.888-6.418,1.888h-3.834v1.418h0.542v-0.874h3.292c3.203,0,5.57-1.258,6.408-1.777
	c0.09,0.288,0.239,0.698,0.49,1.11c0.607,1.005,1.433,1.54,2.498,1.54v-0.543C24.512,16.882,24.085,14.396,24.066,14.291z
	 M28.557,17.738l0.028-0.182c0.064-0.414,0.226-1.539,0.319-3.048c0.1-1.692-0.423-2.994-1.56-3.869l-0.053-0.041
	C25.169,8.922,22.578,8,20,8c-2.578,0-5.167,0.922-7.292,2.597c-0.021,0.017-0.037,0.03-0.049,0.04
	c-1.137,0.875-1.663,2.178-1.558,3.87c0.092,1.508,0.25,2.634,0.316,3.048l0.027,0.182c-0.925,0.12-1.639,0.91-1.639,1.868v4.751
	c0,1.038,0.844,1.882,1.884,1.882h1.385c0.146,0.669,0.442,1.423,1.042,2.26c1.415,1.974,1.964,2.654,3.069,3.16
	C17.87,31.975,18.79,32,19.53,32c0.088,0,0.175,0,0.255,0c0.075,0,0.146,0,0.215,0c0.069,0,0.14,0,0.216,0c0.083,0,0.168,0,0.255,0
	c0.742,0,1.659-0.025,2.344-0.342c1.106-0.506,1.657-1.187,3.069-3.16c0.603-0.837,0.898-1.591,1.044-2.26h1.385
	c1.039,0,1.883-0.844,1.883-1.883v-4.75C30.195,18.648,29.482,17.857,28.557,17.738z M28.359,14.475
	c-0.089,1.486-0.249,2.592-0.312,2.997l-0.041,0.273c-0.896,0.145-1.581,0.922-1.581,1.86v4.528c0,0.004-0.001,0.006-0.001,0.008
	c0,0.024,0.001,0.051,0.001,0.074v0.14c0,0.024,0.002,0.047,0.004,0.071c0,0.016,0,0.03,0.001,0.047
	c0.019,0.9,0.044,2.133-1.052,3.66c-1.417,1.975-1.879,2.525-2.824,2.958c-0.639,0.297-1.621,0.291-2.336,0.286
	c-0.077,0-0.149-0.001-0.219-0.001s-0.142,0.001-0.218,0.001c-0.715,0.005-1.696,0.011-2.337-0.285
	c-0.944-0.434-1.407-0.983-2.822-2.959c-1.096-1.526-1.072-2.76-1.052-3.66c0-0.005,0-0.016,0-0.023
	c0.002-0.031,0.003-0.064,0.003-0.095v-0.14c0-0.023,0-0.05,0-0.074c0-0.002,0-0.004,0-0.008v-4.528c0-0.937-0.683-1.714-1.58-1.86
	l-0.042-0.273c-0.063-0.406-0.22-1.513-0.312-2.997c-0.091-1.501,0.361-2.647,1.347-3.408c0.015-0.011,0.034-0.025,0.057-0.043
	c2.028-1.6,4.498-2.48,6.954-2.48c2.455,0,4.928,0.88,6.957,2.479l0.055,0.044C27.997,11.829,28.451,12.974,28.359,14.475z"/>
</svg>
