<?xml version="1.0" encoding="utf-8"?>
<!-- Generator: Adobe Illustrator 16.0.4, SVG Export Plug-In . SVG Version: 6.00 Build 0)  -->
<!DOCTYPE svg PUBLIC "-//W3C//DTD SVG 1.1//EN" "http://www.w3.org/Graphics/SVG/1.1/DTD/svg11.dtd" [
	<!ENTITY ns_extend "http://ns.adobe.com/Extensibility/1.0/">
	<!ENTITY ns_ai "http://ns.adobe.com/AdobeIllustrator/10.0/">
	<!ENTITY ns_graphs "http://ns.adobe.com/Graphs/1.0/">
	<!ENTITY ns_vars "http://ns.adobe.com/Variables/1.0/">
	<!ENTITY ns_imrep "http://ns.adobe.com/ImageReplacement/1.0/">
	<!ENTITY ns_sfw "http://ns.adobe.com/SaveForWeb/1.0/">
	<!ENTITY ns_custom "http://ns.adobe.com/GenericCustomNamespace/1.0/">
	<!ENTITY ns_adobe_xpath "http://ns.adobe.com/XPath/1.0/">
]>
<svg version="1.1" id="Layer_1" xmlns:x="&ns_extend;" xmlns:i="&ns_ai;" xmlns:graph="&ns_graphs;"
	 xmlns="http://www.w3.org/2000/svg" xmlns:xlink="http://www.w3.org/1999/xlink" x="0px" y="0px" width="40px" height="40px"
	 viewBox="0 0 40 40" enable-background="new 0 0 40 40" xml:space="preserve">
<metadata>
	<sfw  xmlns="&ns_sfw;">
		<slices></slices>
		<sliceSourceBounds  width="40" height="40" x="-0.5" y="0.5" bottomLeftOrigin="true"></sliceSourceBounds>
	</sfw>
</metadata>
<g>
	<rect fill="none" width="40" height="40"/>
</g>
<path fill="#FFFFFF" d="M32.982,16.378c-3.105-0.746-6.312-0.874-9.336-0.304c-1.047,0.197-2.072,0.591-3.09,0.68
	c-1.64,0.139-2.717-0.406-4.067-0.68c-3.024-0.609-6.568-0.599-9.49,0.152c0,0.577,0.043,1.111,0.151,1.582
	c0.051,0.199,0.276,0.22,0.378,0.299c0.572,0.469,0.614,1.879,0.828,2.712c0.328,1.294,0.831,2.37,1.816,2.962
	c1.815,1.079,6.423,0.529,7.691-2.105c0.13-0.367,0.938-2.627,1.487-3.266c0.21-0.247,1.102-0.213,1.317-0.014
	c0.736,1.164,0.855,2.485,1.621,3.477c1.498,1.941,3.42,2.49,4.973,2.488c0.982-0.004,2.249-0.159,2.938-0.604
	c1.556-1.01,1.26-3.531,2.029-5.349c0.087-0.241,0.536-0.121,0.607-0.375C32.936,17.552,33.041,16.779,32.982,16.378z M8.331,17.298
	c-0.337,0-0.609-0.109-0.609-0.245c0-0.133,0.271-0.243,0.609-0.243c0.336,0,0.609,0.11,0.609,0.243
	C8.939,17.188,8.667,17.298,8.331,17.298z M29.82,23.23c-0.713,0.469-2.234,0.551-3.389,0.453c-1.149-0.096-1.819-0.606-2.49-1.03
	l-0.896-1.079c-0.327-0.502-0.507-1.046-0.68-1.735c-0.204-0.808-0.462-1.988,0.15-2.561c0.488-0.457,2.203-0.822,3.314-0.903
	c2.238-0.166,4.885,0.084,5.195,1.808C31.323,19.814,30.768,22.615,29.82,23.23z M16.947,21.602c-0.439,0.73-2.099,1.881-3.32,2.007
	c-1.354,0.14-2.993-0.159-3.589-0.893c-0.591-0.363-1.18-2.698-1.156-3.775c0.05-2.192,1.279-2.234,3.54-2.505
	c1.711-0.206,4.81,0.21,5.273,1.072C18.336,18.701,16.947,21.602,16.947,21.602z M31.774,17.594c-0.339,0-0.609-0.11-0.609-0.244
	c0-0.135,0.271-0.243,0.609-0.243c0.336,0,0.606,0.109,0.606,0.243C32.381,17.485,32.11,17.594,31.774,17.594z M16.947,21.602
	c-0.439,0.73-2.099,1.881-3.32,2.007c-1.354,0.14-2.993-0.159-3.589-0.893c-0.249-0.306-0.985-3.004-0.198-4.674
	c0.646-1.372,2.487-1.597,2.582-1.606c1.711-0.207,4.81,0.21,5.273,1.072C18.336,18.701,16.947,21.602,16.947,21.602z M29.82,23.23
	c-0.713,0.469-2.234,0.551-3.389,0.453c-1.149-0.096-1.819-0.606-2.49-1.03l-0.896-1.079c-0.327-0.502-0.507-1.046-0.68-1.735
	c-0.204-0.808-0.462-1.988,0.15-2.561c0.488-0.457,2.203-0.822,3.314-0.903c2.238-0.166,4.885,0.084,5.195,1.808
	C31.323,19.814,30.768,22.615,29.82,23.23z"/>
</svg>
