<?xml version="1.0" encoding="utf-8"?>
<!-- Generator: Adobe Illustrator 16.0.4, SVG Export Plug-In . SVG Version: 6.00 Build 0)  -->
<!DOCTYPE svg PUBLIC "-//W3C//DTD SVG 1.1//EN" "http://www.w3.org/Graphics/SVG/1.1/DTD/svg11.dtd" [
	<!ENTITY ns_extend "http://ns.adobe.com/Extensibility/1.0/">
	<!ENTITY ns_ai "http://ns.adobe.com/AdobeIllustrator/10.0/">
	<!ENTITY ns_graphs "http://ns.adobe.com/Graphs/1.0/">
	<!ENTITY ns_vars "http://ns.adobe.com/Variables/1.0/">
	<!ENTITY ns_imrep "http://ns.adobe.com/ImageReplacement/1.0/">
	<!ENTITY ns_sfw "http://ns.adobe.com/SaveForWeb/1.0/">
	<!ENTITY ns_custom "http://ns.adobe.com/GenericCustomNamespace/1.0/">
	<!ENTITY ns_adobe_xpath "http://ns.adobe.com/XPath/1.0/">
]>
<svg version="1.1" id="Layer_1" xmlns:x="&ns_extend;" xmlns:i="&ns_ai;" xmlns:graph="&ns_graphs;"
	 xmlns="http://www.w3.org/2000/svg" xmlns:xlink="http://www.w3.org/1999/xlink" x="0px" y="0px" width="100px" height="50px"
	 viewBox="0 0 100 50" enable-background="new 0 0 100 50" xml:space="preserve">
<metadata>
	<sfw  xmlns="&ns_sfw;">
		<slices></slices>
		<sliceSourceBounds  x="-87.461" y="-39.826" height="83.357" width="186.961" bottomLeftOrigin="true"></sliceSourceBounds>
	</sfw>
</metadata>
<path fill="#231F20" d="M-86.903,90.326l-0.058-0.013c0.021-0.016,0.038-0.034,0.058-0.053V90.326z"/>
<path fill="#231F20" d="M99.879,35.166v-0.075l-0.202-0.069v0.039l-2.621-1.838h-0.045l-0.124-0.097v-0.048h0.033v-0.041
	l-0.033-0.027v-0.905l0.013-0.025v-0.046l-0.051-0.016l-0.05,0.016v0.046l0.012,0.025v0.905l-0.033,0.027v0.041h0.033v0.048
	l-0.125,0.097h-0.043l-2.622,1.838v-0.039l-0.2,0.069v0.075l-0.122,0.076v0.062h0.038v0.051l0.178,0.027v0.694l-0.031,0.044v0.062
	l0.023,0.023l-0.023,0.231L94,36.514v0.079l0.119,0.035v1.094h-2.4v-0.11l0.053-0.053v-0.06l-0.048-0.051v-0.113l0.048-0.032v-0.036
	h-0.631v0.036l0.04,0.023v0.164l-0.036,0.036v0.07l0.057,0.021v0.093h-0.375l-0.031-0.113h-0.502l-0.051,0.089h-0.666v-0.229
	l-0.062-0.062V37.32l0.086-0.074v-0.131h-0.305l-0.376,0.081l0.077,0.104v0.143l-0.031,0.032v0.061l0.031,0.032v0.114h-0.934
	l-0.423,0.928l-0.866,1.086h-0.625l0.066-0.124v-0.039c0,0-0.562-0.483-0.568-0.697c-0.006-0.211,0.254-0.412,0.254-0.412
	l-0.223-0.194l0.078-0.162c0,0,0.057-0.262-0.098-0.423c-0.154-0.16-0.499-0.181-0.627-0.21c-0.129-0.029-0.238-0.157-0.238-0.157
	l-0.02-0.072l0.062-0.047l-0.018-0.044l-0.053-0.116l0.053-0.032v-0.043l-0.064-0.114v-0.143l0.064-0.097l-0.105-0.138l-0.105,0.138
	l0.065,0.097v0.143l-0.065,0.114v0.043l0.053,0.032l-0.053,0.116l-0.018,0.044l0.062,0.047l-0.018,0.072c0,0-0.111,0.128-0.24,0.157
	c-0.127,0.029-0.473,0.05-0.627,0.21c-0.154,0.161-0.098,0.423-0.098,0.423l0.078,0.162l-0.221,0.194c0,0,0.258,0.201,0.252,0.412
	c-0.004,0.214-0.566,0.697-0.566,0.697v0.039l0.058,0.113l-0.324-0.179V39.02h0.034v-0.043l-0.084-0.148v-0.335h-0.035v0.337
	l-0.037,0.094l-0.048-0.066v-0.373L82.7,38.356v-0.322l-0.042-0.04l-0.044,0.04v0.322l-0.076,0.128v0.373l-0.047,0.066l-0.038-0.094
	v-0.337H82.42v0.335l-0.086,0.148v0.043h0.035v0.166l-0.542-0.3l-0.988-1.582h-0.058v-0.401h0.058v-0.074h-0.071v-0.22h-0.051v0.22
	h-0.07v0.074h0.07v0.393H80.58v0.093l-3.078-0.1c0.001-0.004,0.004-0.009,0.004-0.013c0.008-0.268-0.113-0.389-0.219-0.474
	c-0.104-0.087-0.217-0.205-0.249-0.309c-0.032-0.102-0.034-0.342-0.034-0.342h0.034v-0.062h-0.032v-0.515h-0.059v0.512h-0.026v0.077
	h0.026c0,0-0.019,0.174-0.033,0.318c-0.015,0.144-0.22,0.304-0.22,0.304l-0.104-0.111v-0.429h0.031v-0.067h-0.033v-0.065l0.25-0.144
	c0,0-0.1-0.146-0.129-0.197c-0.031-0.049,0.012-0.401,0.029-0.562c0.021-0.158-0.103-0.27-0.103-0.27v-0.812l-0.052-0.059v-0.137
	h-0.068v0.137l-0.052,0.059v0.689l-0.159-0.142v-0.696l-0.047-0.038v-0.11h-0.045v0.116l-0.041,0.041v0.519h-0.053v-0.423h-0.064
	v0.386l-0.194-0.182l0.036-0.076v-0.051h-0.033v-0.202l0.108-0.076v-0.102l-0.091-0.064v-0.372h-0.039v0.344h-0.084v-0.688
	l0.075-0.057l0.001-0.075h0.098l0.04-0.031v-0.046c0,0-0.127,0.001-0.173,0c-0.046-0.003-0.072-0.245-0.072-0.245l-0.15-0.193
	l-0.168-0.044V32h0.031v-0.099l0.125-0.112l0.021-0.095h0.024v-0.069l-0.274-0.676v-0.117l-0.032-0.109v-0.089h0.026v-0.051
	l0.15-0.116v-0.14l-0.107-0.094l-0.07,0.032V29.9l0.07-0.068l-0.016-0.077l-0.062-0.042v-1.007l0.026-0.021V28.62l-0.052-0.044
	l-0.051,0.044v0.065l0.025,0.021v1.007l-0.062,0.042l-0.017,0.077l0.072,0.068v0.365l-0.072-0.032l-0.107,0.094v0.14l0.151,0.116
	v0.051h0.025v0.089l-0.032,0.109v0.117l-0.273,0.676v0.069h0.023l0.022,0.095l0.124,0.112V32h0.032v0.31l-0.167,0.044l-0.153,0.193
	c0,0-0.024,0.242-0.069,0.245c-0.047,0.001-0.174,0-0.174,0v0.046l0.039,0.031h0.098l0.001,0.075l0.077,0.057v0.688h-0.084v-0.344
	h-0.041v0.372l-0.09,0.064v0.102l0.109,0.076v0.202h-0.034v0.051l0.036,0.076l-0.196,0.182v-0.386h-0.064v0.423h-0.052v-0.519
	l-0.04-0.041v-0.116h-0.045v0.11l-0.046,0.038v0.696l-0.16,0.142v-0.689l-0.052-0.059v-0.137h-0.067v0.137l-0.053,0.059v0.812
	c0,0-0.123,0.111-0.104,0.27c0.019,0.161,0.062,0.514,0.031,0.562c-0.031,0.052-0.128,0.197-0.128,0.197l0.25,0.144v0.065H73.92
	v0.067h0.03v0.429l-0.104,0.111c0,0-0.205-0.16-0.221-0.304c-0.016-0.145-0.033-0.318-0.033-0.318h0.027v-0.077h-0.027v-0.512
	h-0.059v0.515h-0.031v0.062h0.034c0,0-0.003,0.24-0.034,0.342c-0.033,0.104-0.146,0.222-0.251,0.309
	c-0.085,0.07-0.179,0.163-0.208,0.341l-0.207-0.006l-0.398-0.897v-0.088h0.055v-0.065l-0.062-0.031v-0.117l0.126-0.04v-0.071h-0.126
	v-0.112l0.035-0.038l-0.085-0.09l-0.094,0.081l0.039,0.05v0.113h-0.114v0.064l0.099,0.055v0.11l-0.059,0.021v0.064h0.059v0.083
	l-0.279,0.683l-1.167,0.227l-0.08-0.122h-1.353V36.32h-0.129v0.661l-0.174-0.095v-0.315h0.088v-0.105h-0.069v-1.941l0.11-0.087
	h0.209v-0.089l-0.109-0.041c0,0-0.857-0.873-1.01-1.192c-0.15-0.322-0.934-2.259-0.934-2.259l0.018-0.044l0.033-0.042l-0.013-0.062
	l-0.058-0.045v-0.27h0.269l-0.077-0.091l0.077-0.097h-0.269v-0.051l0.035-0.065l-0.07-0.047l-0.07,0.047l0.035,0.065v0.508
	l-0.059,0.045l-0.012,0.062l0.032,0.042l0.017,0.044c0,0-0.782,1.937-0.933,2.259c-0.116,0.243-0.644,0.812-0.887,1.066
	c-0.004-0.029-0.011-0.059-0.018-0.086c-0.022-0.088-0.134-0.143-0.134-0.143l-0.021-0.181l-0.048-0.023l0.19-0.555l0.032-0.011
	l0.037-0.053l-0.025-0.059l0.137-0.393l0.053-0.083l-0.018-0.078l-0.084,0.055v0.099l-0.135,0.372l-0.201-0.008l-0.012-0.062
	l-0.113-0.084l-0.006-0.104l0.055-0.137l-0.058-0.148l-0.09-0.003l-0.085,0.146l0.035,0.2l-0.09,0.104l-0.114-0.104v-1.178
	l0.124-0.125v-0.102l-0.094-0.101v-0.054l0.088-0.055l0.01-0.085h0.056v-0.056h-0.109v-0.166h0.026v-0.052h0.035l0.078-0.086
	l0.289-0.041l0.055-0.092l0.15-0.031v-0.059h-0.377l-0.105-0.076c0,0,0-0.108,0-0.244s-0.102-0.244-0.132-0.273
	s-0.073-0.048-0.073-0.048V29.82l0.021-0.125l-0.033-0.031v-0.167h0.109v-0.044l-0.193-0.14v-0.158h0.056v-0.053l-0.077-0.046
	v-0.306h-0.104v0.301l-0.054,0.036v0.066h0.054v0.144L64.4,29.44v0.059h0.07v0.087l-0.166-0.083L64.16,29.28v-0.264l0.044-0.034
	v-0.123l-0.097-0.043v-0.117h-0.039v-1.809l0.127-0.068v-0.087h0.047v-0.032h-0.043v-0.047l-0.169-0.133v-0.181h-0.048v-0.146
	c0,0,0.033,0.02,0.072-0.044c0.041-0.064-0.089-0.189-0.089-0.189v-0.113h0.03v-0.054h-0.028v-0.101h-0.042v0.101h-0.02v0.049h0.02
	v0.123c0,0-0.08,0.09-0.08,0.151c0,0.061,0.08,0.069,0.08,0.069v0.148H63.89v0.096l-0.249-0.119l-0.04-0.122l0.065-0.161
	l0.131-0.049v-0.123l-0.28-0.218l0.079-0.127l-0.336-0.481l-0.193-0.1v-0.101l0.058-0.065V24.64l-0.058-0.096v-0.131l-0.047-0.035
	l-0.019-0.161c0,0,0.192-0.014,0.177-0.192c-0.02-0.179-0.175-0.188-0.175-0.188v-0.385l0.05-0.046v-0.151h-0.041v-0.204
	l-0.059-0.146l-0.059,0.146v0.204h-0.041v0.151l0.05,0.046v0.385c0,0-0.155,0.009-0.173,0.188c-0.019,0.179,0.174,0.192,0.174,0.192
	l-0.018,0.161l-0.046,0.035v0.131l-0.058,0.096v0.128l0.058,0.065v0.101l-0.193,0.1l-0.337,0.481l0.078,0.127l-0.279,0.218v0.123
	l0.131,0.049l0.066,0.161l-0.039,0.122l-0.251,0.119v-0.096H61.98v-0.148c0,0,0.08-0.009,0.08-0.069c0-0.062-0.08-0.151-0.08-0.151
	v-0.123h0.019v-0.049H61.98v-0.101h-0.042v0.101H61.91v0.054h0.031v0.113c0,0-0.131,0.125-0.09,0.189
	c0.038,0.063,0.072,0.044,0.072,0.044v0.146h-0.048v0.181l-0.169,0.133v0.047h-0.043v0.032h0.047v0.087l0.127,0.068v1.809h-0.039
	v0.117l-0.097,0.043v0.123l0.044,0.034v0.264l-0.145,0.223l-0.166,0.083v-0.087h0.07V29.44l-0.172-0.143v-0.144h0.054v-0.066
	l-0.054-0.036v-0.301h-0.104v0.306l-0.076,0.046v0.053h0.056v0.158l-0.193,0.14v0.044h0.109v0.167l-0.032,0.031l0.021,0.125v0.101
	c0,0-0.043,0.019-0.073,0.048s-0.132,0.138-0.132,0.273s0,0.244,0,0.244l-0.105,0.076h-0.377v0.059l0.15,0.031l0.056,0.092
	l0.288,0.041l0.078,0.086h0.035v0.052h0.026v0.166H60.95v0.056h0.058l0.008,0.085l0.087,0.055v0.054l-0.093,0.101v0.102l0.124,0.125
	v1.178l-0.113,0.104l-0.091-0.104l0.035-0.2l-0.085-0.146l-0.089,0.003l-0.059,0.148l0.055,0.137l-0.006,0.104l-0.113,0.084
	l-0.012,0.062l-0.202,0.008l-0.134-0.372v-0.099l-0.084-0.055l-0.018,0.078l0.053,0.083l0.137,0.393l-0.025,0.059l0.037,0.053
	l0.032,0.011l0.19,0.555l-0.048,0.023l-0.021,0.181c0,0-0.111,0.055-0.134,0.143c-0.024,0.087-0.044,0.197,0.028,0.288
	c0.074,0.092,0.119,0.13,0.119,0.13h-0.177v0.514l-0.093,0.081l-0.391,0.081v0.064l0.203,0.098v0.105h0.141l0.053,0.1v0.134
	l0.162,0.063v0.141l-0.075,0.075l0.093,0.153v0.167h0.064v3.405l-0.227,0.247V39.64l-0.601-0.342v-0.76l-0.238-0.163v-0.283h-0.566
	v-0.168l-0.391-0.194v-0.183h-1.354v-0.32H57.08v0.391h-0.881v-0.401h-0.091c-0.001-0.151-0.022-0.968-0.306-1.442
	c-0.314-0.522-0.791-0.732-0.791-0.732h-0.097v-0.084h-0.116v-0.374c0,0,0.186-0.069,0.161-0.294
	c-0.024-0.223-0.259-0.365-0.259-0.365l-0.068-0.112v-0.146h0.053v-0.083h-0.07v-0.204l-0.036-0.098l-0.035,0.098v0.204h-0.068
	v0.083h0.052v0.146l-0.07,0.112c0,0-0.232,0.143-0.258,0.365c-0.023,0.225,0.161,0.294,0.161,0.294v0.374h-0.116v0.084h-0.098
	c0,0-0.475,0.21-0.789,0.732c-0.171,0.283-0.246,0.691-0.28,1.006l-0.173-0.043v-0.277H52.64v0.265l-0.28,0.14v0.53h-0.923v-0.545
	h-0.098v0.531h-0.767l-0.239,0.098h-0.105l0.002-0.101l0.104-0.104v-0.11l-0.294-0.282v-0.178l-0.091-0.068V36.21l0.069-0.041V36.04
	l-0.216-0.245v-0.081l0.062-0.048v-0.088l-0.076-0.06v-0.541l-0.049-0.128l-0.05,0.128v0.541l-0.077,0.06v0.088l0.064,0.048v0.081
	l-0.217,0.245v0.129l0.07,0.041v0.425l-0.093,0.068v0.178l-0.292,0.282v0.11l0.104,0.104l0.003,0.101h-0.77v-0.202h-0.112v0.202
	h-0.083v-0.504h-0.161v0.406h-0.425v-0.003l0.105-0.104v-0.11l-0.293-0.282v-0.178l-0.093-0.068V36.21l0.07-0.041V36.04
	l-0.217-0.245v-0.081l0.063-0.048v-0.088l-0.077-0.06v-0.541l-0.049-0.128l-0.049,0.128v0.541l-0.076,0.06v0.088l0.062,0.048v0.081
	l-0.216,0.245v0.129l0.069,0.041v0.425l-0.092,0.068v0.178l-0.092,0.089l-0.139-0.109v-0.491l-0.062-0.242v-0.304h0.062v-0.115
	l-0.189-0.147v-0.942l-0.083-0.115v-0.231l-0.147-0.083v-2.587l0.084-0.062V31.34l-0.136-0.105v-2.377l0.077-0.053v-0.169H46.15
	v-1.57l-0.132-0.182v-0.592l0.056-0.12v-0.125l-0.111-0.092V22.52l0.271-0.404v-0.098l-0.769-0.412v-0.148l0.51-0.152v-0.133h0.139
	l0.169-0.146v-0.166h-0.091v-0.519h0.091v-0.099h-0.127v-0.606l0.127-0.07v-0.229l-0.182-0.216v-1.229h-0.091v1.229h-0.099
	l-0.383-1.886v-1.391h-0.077v1.384l-0.167,0.838l-0.203-1.007v-1.535h-0.084v1.529l-0.076,0.25l-0.042-0.09v-1.158h-0.069v1.158
	l-0.158,1.295h-0.074l-0.083,0.072l-0.548-4.788h0.157l0.14-0.112v-0.231l0.161-0.062v-0.125l-0.034-0.154h-0.196v-0.189
	l-0.147,0.079v0.11h-0.181l-0.14-1.312l0.055-0.071v-0.271h-0.083l-0.067-2.787l0.122-0.167V8.213l-0.16-0.112V7.053l-0.083-0.084
	l-0.084,0.084v1.048l-0.16,0.112v0.285l0.122,0.167l-0.066,2.787h-0.083v0.271l0.056,0.071l-0.14,1.312h-0.182v-0.11l-0.145-0.079
	v0.189h-0.196l-0.036,0.154v0.125l0.161,0.062v0.231l0.14,0.112h0.157l-0.549,4.788l-0.082-0.072H42.33l-0.16-1.295v-1.158h-0.069
	v1.158l-0.042,0.09l-0.076-0.25v-1.529h-0.084v1.535l-0.202,1.007l-0.168-0.838v-1.384h-0.076v1.391l-0.385,1.886h-0.098v-1.229
	h-0.09v1.229l-0.181,0.216v0.229l0.125,0.07v0.606h-0.125v0.099h0.09v0.519h-0.09v0.166l0.167,0.146h0.139v0.133l0.51,0.152v0.148
	l-0.769,0.412v0.098l0.273,0.404v3.436l-0.113,0.092v0.125l0.056,0.12v0.541L40.645,26.3v-0.606h0.083v-0.137h-0.204v-0.219
	l0.11-0.179v-0.178l-0.108-0.126v-1.246l-0.111-0.146l-0.113,0.146v1.246l-0.107,0.126v0.178l0.109,0.179v0.219h-0.203v0.137h0.083
	V26.3l-2.631,4.408v-0.291h-0.087v-3.456l0.138-0.167V26.59h0.103l0.058-0.104v-0.377h-0.036v0.077h-0.176v-0.748l0.095-0.146
	v-0.245l-0.095-0.068v-0.176h-0.204c0,0,0.043-0.223-0.044-0.398c-0.088-0.173-0.233-0.25-0.233-0.25v-0.245l-0.163-0.16v-1.02
	l-0.087-0.111v-0.521h-0.103v0.526l-0.065,0.098v0.579c0,0-0.008-0.202-0.271-0.614c-0.262-0.41-0.6-0.516-0.6-0.516v-0.252h0.11
	v-0.118h-0.124v-0.119h-0.118v-0.544l0.074-0.07v-0.312l0.227-0.128v-0.133l-0.33-0.236v-0.67h0.081l0.125-0.127v-0.104h-0.11
	v-0.111l0.094-0.078l0.06-0.173l-0.052-0.21l-0.702-0.692v-0.125l-0.066-0.061v-1.07l0.121-0.116v-0.192l-0.108-0.089v-0.166
	L35,16.225v-0.629l-0.04-0.083l-0.039,0.083v0.629l-0.063,0.048v0.166l-0.109,0.089v0.192l0.12,0.116v1.07l-0.065,0.061v0.125
	l-0.701,0.692l-0.052,0.21l0.058,0.173l0.095,0.078v0.111h-0.109v0.104l0.124,0.127h0.08v0.67l-0.328,0.236v0.133l0.227,0.128v0.312
	l0.072,0.07v0.544h-0.117v0.119h-0.125v0.118h0.109v0.252c0,0-0.336,0.105-0.599,0.516c-0.263,0.412-0.27,0.614-0.27,0.614v-0.579
	l-0.067-0.098v-0.526h-0.103v0.521l-0.087,0.111v1.02l-0.16,0.16v0.245c0,0-0.147,0.077-0.234,0.25
	c-0.087,0.176-0.044,0.398-0.044,0.398H32.37v0.176l-0.096,0.068v0.245l0.096,0.146v0.748h-0.176v-0.077h-0.037v0.377l0.059,0.104
	h0.102v0.204l0.14,0.167v3.456H32.37v0.368h0.108v3.331h-0.121v0.512l0.1,0.189v2.198h-0.11v0.211h0.11v0.376l-0.234,0.021v-0.273
	H32.15v-0.155l-0.294,0.146v0.247h-0.75v-0.93l-0.104-0.061v-1.395l0.054-0.082V34.9h0.109v-0.168l-0.481-0.25v-2.186h0.118
	l0.077-0.161h0.123v-0.147h-0.149v-0.058h-0.068l-0.11-0.155v-0.219h0.064v-0.153l-0.077-0.119v-0.259h-0.134v0.272l-0.067,0.084
	v0.167h0.067v0.225h-0.174v0.061h-0.1l-0.341-0.354v-0.098h0.06v-0.134h-0.06v-1.172h0.14v-0.078l-0.335-0.192v-0.084h0.141v-0.101
	h-0.061v-0.1l-0.547-0.586l0.071-0.062v-0.095h-0.035v-0.095h-0.13v-0.78h0.13v-0.078l-0.41-0.287l-0.038-0.104
	c0,0,0.342-0.326,0.348-0.408c0.006-0.085-0.573-0.494-0.573-0.494v-0.183l0.062-0.089v-0.2l-0.062-0.068v-0.088l0.123-0.146v-0.222
	l-0.146-0.235v-0.208l0.045-0.085v-0.125l-0.076-0.106v-0.268l-0.025-0.056v-0.719l-0.045-0.125l-0.045,0.125v0.719l-0.025,0.056
	v0.268l-0.076,0.106v0.125l0.046,0.085v0.208l-0.146,0.235v0.222l0.122,0.146v0.088l-0.062,0.068v0.2l0.062,0.089v0.183
	c0,0-0.578,0.409-0.573,0.494c0.005,0.082,0.349,0.408,0.349,0.408l-0.038,0.104l-0.412,0.287v0.078h0.13v0.78h-0.13v0.095h-0.036
	v0.095l0.071,0.062l-0.546,0.586v0.1h-0.06v0.101h0.14v0.084l-0.335,0.192v0.078h0.141v1.172h-0.061v0.134h0.061v0.098l-0.342,0.354
	h-0.1v-0.061h-0.174v-0.225h0.067v-0.167l-0.067-0.084v-0.272h-0.133v0.259l-0.076,0.119v0.153h0.062v0.219l-0.11,0.155h-0.065
	v0.058h-0.152v0.147h0.125l0.076,0.161h0.117v2.186l-0.48,0.25V34.9h0.11v0.222l0.053,0.082v1.395l-0.103,0.061v2.419l-0.019,0.003
	l-0.125-0.304v-0.597h-0.334v0.606l-0.334,0.868l-0.41-0.878V38.17h-0.377v0.607l-0.524,0.92h-0.523v-0.764h-0.105v0.764h-0.628
	v-0.69h-0.116v0.68h-0.241v-0.169l-0.481-0.751v-0.692h-0.367v0.66l-0.513,0.682v0.239h-0.199v-0.827h-0.104v0.096h-0.472
	l-0.733-1.269v-0.503h0.167v-0.262l-0.188-0.062v-0.472l0.062-0.052v-0.22l-0.084-0.074l-0.062-0.501l-0.074,0.524l-0.094,0.071
	v0.178l0.094,0.042v0.503l-0.208,0.115v0.207h0.156v0.522h-4.341v-0.608h-0.068l-0.057-0.153h-0.08v-0.178l-0.11-0.184v-0.88h0.079
	v-0.089l0.111-0.108l-0.048-0.111h-0.094v-0.419L14.343,34.9v-0.305H14.4v-0.082l-0.204-0.151l-0.21,0.141v0.085h0.046v0.229
	l-0.341-0.3l-0.05-0.05l0.036-0.055v-0.142l-0.125-0.077v-0.592l0.077-0.12V33.33h-0.041v-0.224l0.09-0.062v-0.133h-0.118
	l-0.105-0.225V32.43l-0.21-0.121v-0.241l-0.073-0.105v-0.161L13.104,31.7v-0.157l-0.092-0.093v-0.399l0.068-0.046l0.084-0.08v-0.113
	l-0.061-0.105l-0.086-0.079v-0.309l0.086-0.063h0.139v-0.082h-0.163l-0.057-0.059V29.91l-0.058-0.104l-0.057,0.104v0.204
	l-0.059,0.059h-0.162v0.082h0.138l0.086,0.063v0.309l-0.086,0.079l-0.06,0.105v0.113l0.084,0.08l0.068,0.046v0.399l-0.092,0.093
	V31.7l-0.065,0.101v0.161l-0.073,0.105v0.241l-0.209,0.121v0.257l-0.105,0.225h-0.119v0.133l0.09,0.062v0.224h-0.042v0.152
	l0.077,0.12v0.592l-0.125,0.077v0.142l0.034,0.055l-0.048,0.05l-0.342,0.3v-0.229h0.045v-0.085l-0.209-0.141l-0.206,0.151v0.082
	h0.059V34.9l-0.084,0.042v0.419H11.41l-0.047,0.111l0.11,0.108v0.089h0.08v0.88l-0.11,0.184v0.178h-0.079l-0.058,0.153h-0.067v0.608
	H9.761v-0.515h0.131V36.97l-0.237-0.104v-0.523l0.085-0.063v-0.21L9.625,36l-0.067-0.49L9.493,36l-0.1,0.089v0.189l0.1,0.053v0.538
	l-0.23,0.116v0.178h0.105v0.535l-1.602,1.403H6.738v0.125h0.105v0.63h-0.23l0.105,0.375h0.125v0.399l-1.247,1.067v0.304h0.104v0.565
	H5.377v0.314H5.052v-0.942l0.115-0.105v-0.209h0.083v-0.219H2.895v0.21h0.095v0.25l0.094,0.104v1.016l-0.052,0.074v0.23h-0.42
	v-0.136l-0.104-0.104v-1.154l0.083-0.083v-0.262h0.095v-0.146H0.841v0.198h0.094v0.25l0.098,0.085v1.111l-0.126,0.098v0.377H0.544
	v-0.21h0.084v-0.167H0V50h99.815l-0.206-0.305V48.88h0.047v-0.118l-0.078-0.04V36.628l0.118-0.035v-0.079l0.119-0.075l-0.023-0.231
	l0.023-0.023v-0.062l-0.032-0.044v-0.694l0.178-0.027v-0.051H100v-0.062L99.879,35.166z M28.369,28.659h-0.236v-0.54h0.236V28.659z
	 M28.846,28.659H28.61v-0.54h0.236V28.659z M34.869,21.557h-0.196v-0.439h0.196V21.557z M35.249,21.557h-0.198v-0.439h0.198V21.557z
	 M37.442,30.892v-0.106h0.064L37.442,30.892z M75.465,32.982c0.066,0,0.119,0.054,0.119,0.121v0.339h-0.24v-0.339
	C75.344,33.036,75.398,32.982,75.465,32.982z M75.311,31.696h0.133v0.09l-0.105,0.09h-0.027V31.696z M75.096,31.786v-0.09h0.134
	v0.18h-0.028L75.096,31.786z M74.956,33.104c0-0.067,0.053-0.121,0.12-0.121c0.064,0,0.118,0.054,0.118,0.121v0.339h-0.238V33.104z
	 M65.589,36.887l-0.25,0.137V36.29h0.063v-0.167l0.092-0.153l-0.074-0.075v-0.141l0.151-0.058v0.77h-0.069v0.105h0.087V36.887z
	 M65.393,34.438h0.067l0.111,0.087v0.566l-0.077-0.063v-0.514h-0.178C65.316,34.514,65.346,34.488,65.393,34.438z M65.207,33.3
	l0.152-0.128h0.063l-0.198,0.562L65.151,33.7l0.059-0.2L65.207,33.3z M64.772,32.95l0.081,0.131l-0.002,0.514l0.02,0.059v0.122
	h-0.073v-0.317h-0.025V32.95z M62.664,27.608c0-0.158,0.129-0.288,0.289-0.288c0.159,0,0.289,0.13,0.289,0.288v1.095h-0.578V27.608z
	 M62.498,31.51h0.91v1.76h-0.91V31.51z M61.035,33.653l0.02-0.059l-0.002-0.514l0.081-0.131v0.508h-0.025v0.317h-0.073V33.653z
	 M60.483,33.172h0.063l0.152,0.128l-0.003,0.2l0.059,0.2l-0.073,0.033L60.483,33.172z"/>
</svg>
