<?xml version="1.0" encoding="utf-8"?>
<!-- Generator: Adobe Illustrator 16.0.4, SVG Export Plug-In . SVG Version: 6.00 Build 0)  -->
<!DOCTYPE svg PUBLIC "-//W3C//DTD SVG 1.1//EN" "http://www.w3.org/Graphics/SVG/1.1/DTD/svg11.dtd" [
	<!ENTITY ns_extend "http://ns.adobe.com/Extensibility/1.0/">
	<!ENTITY ns_ai "http://ns.adobe.com/AdobeIllustrator/10.0/">
	<!ENTITY ns_graphs "http://ns.adobe.com/Graphs/1.0/">
	<!ENTITY ns_vars "http://ns.adobe.com/Variables/1.0/">
	<!ENTITY ns_imrep "http://ns.adobe.com/ImageReplacement/1.0/">
	<!ENTITY ns_sfw "http://ns.adobe.com/SaveForWeb/1.0/">
	<!ENTITY ns_custom "http://ns.adobe.com/GenericCustomNamespace/1.0/">
	<!ENTITY ns_adobe_xpath "http://ns.adobe.com/XPath/1.0/">
]>
<svg version="1.1" id="Layer_1" xmlns:x="&ns_extend;" xmlns:i="&ns_ai;" xmlns:graph="&ns_graphs;"
	 xmlns="http://www.w3.org/2000/svg" xmlns:xlink="http://www.w3.org/1999/xlink" x="0px" y="0px" width="100px" height="50px"
	 viewBox="0 0 100 50" enable-background="new 0 0 100 50" xml:space="preserve">
<metadata>
	<sfw  xmlns="&ns_sfw;">
		<slices></slices>
		<sliceSourceBounds  x="-87.461" y="-39.826" height="61.326" width="186.961" bottomLeftOrigin="true"></sliceSourceBounds>
	</sfw>
</metadata>
<path fill="#231F20" d="M-86.903,90.326l-0.058-0.013c0.021-0.016,0.038-0.034,0.058-0.053V90.326z"/>
<g>
	<path fill="#0D0C0C" d="M100,49.696V50H0.312v-1.603h0.847c0,0,0.183-0.13,0.183-0.183c0-0.012,0.016-0.018,0.041-0.021
		C1.36,47.606,1.36,46.987,1.36,46.73c-0.136,0.184-0.406,0.434-0.42,0.446l-0.04,0.037l-0.015-0.053
		c-0.068-0.242,0.021-0.521,0.087-0.676c-0.201,0.122-0.408,0.143-0.524,0.143c-0.042,0-0.066-0.002-0.066-0.002L0.347,46.62
		l0.007-0.035c0.056-0.258,0.29-0.462,0.433-0.564c-0.04,0.001-0.078,0.003-0.116,0.003c-0.471,0-0.641-0.183-0.647-0.191L0,45.808
		l0.025-0.022c0.206-0.181,0.551-0.199,0.736-0.209c0.014,0,0.026-0.002,0.039-0.002c-0.176-0.109-0.42-0.37-0.432-0.382
		l-0.043-0.047l0.063-0.008c0.092-0.014,0.182-0.02,0.267-0.02c0.35,0,0.551,0.109,0.638,0.172c0.062-0.48,0.521-0.751,0.542-0.764
		l0.038-0.022l0.01,0.044c0.023,0.097-0.028,0.475-0.056,0.657c0.336-0.26,0.89-0.156,0.9-0.154l0.043,0.008L2.75,45.098
		c-0.032,0.065-0.371,0.26-0.606,0.391c0.04-0.005,0.08-0.006,0.118-0.006c0.519,0,0.793,0.335,0.805,0.35l0.029,0.037L3.05,45.885
		c-0.12,0.039-0.283,0.061-0.481,0.061c-0.144,0-0.28-0.01-0.378-0.021c0.396,0.289,0.481,0.791,0.484,0.814l0.014,0.082l-0.25-0.19
		l0.067,0.158l-0.25-0.262l0.016,0.06l-0.208-0.124c0.158,0.43-0.096,0.731-0.098,0.735l-0.022,0.025l-0.025-0.023
		c-0.09-0.082-0.217-0.346-0.291-0.51c-0.004,0.417,0.067,1.073,0.138,1.624l0.142,0.143l0.273-0.273l0.404,0.404l0.658-0.358
		v-2.293h1.928v-0.373h0.972v0.452h0.782v-1.911h1.572v0.851h0.331v0.391h1.763v-2.536h0.243v-0.13h0.392v-0.208h0.26v-0.156h0.165
		v-0.096h0.521v0.252h0.113v0.208h0.165v0.13h0.686v1.876h1.997V33.438h5.358v1.068h1.016v7.885h0.217V42.08h0.426v0.304h0.886
		v-9.076h2.736v0.773h0.443v0.629h0.252v1.013h0.234v10.847h0.461v0.356h0.895v-0.469l0.212,0.212c0-0.005,0.001-0.01,0.001-0.015
		l0.196,0.183c0,0.01,0,0.021,0,0.03l0.205,0.204c0.001-0.015,0.001-0.027,0.002-0.041l0.191,0.178h0.843v-6.701h2.31v-1.232h0.607
		v0.486h0.217v0.756h0.99v1.589h1.876v1.25h0.339v-6.46h0.234v-3.588h0.513V29.27h0.564V29h1.616l0.191,0.191v4.159h0.339v3.579
		h0.391v2.162h0.79v5.932h0.348v-0.277h0.19v0.365h0.312v-1.756l0.166-0.32h1.528v0.173l0.27,0.27v3.482h0.339v-0.364h0.451V35.818
		h0.738v-0.252h0.382v0.303h1.849v8.077h0.808v-1.328h0.304v-0.66h1.494v-3.995h0.973v-0.435h0.426v-1.649h1.562v-0.278h0.921v0.278
		h0.53v7.799h2.154v3.204h0.285V33.265h0.271v-0.6h3.317v2.519h0.772v0.461h0.27v0.426h0.104v0.555h0.157v1.139h0.226v1.363h0.139
		v1.303h0.113v3.273h1.233v0.392h0.625v1.197h0.209v-0.424l0.086-0.088v1.494h0.062v-0.947h0.391v-0.503h1.007v0.477h0.669v0.609
		h0.226v-2.354l0.369-0.369h1.629l0.41,0.41v0.349h0.9v-1.067h0.174v-1.164h0.722v-2.901h5.255v0.408h0.19v1.155h1.788v0.548h0.427
		v7.025h0.712v0.312h0.076v0.001h0.983v0.295h0.364v-0.442h0.34V35.783h0.26l0.113-0.113h0.929v0.13h1.251v8.165h2.162v-1.086h1.902
		v1.198h0.65v0.981h0.262v-0.555h0.156v-0.565h0.451v2.684h1.598v0.737h0.191v-0.425h1.077l0.331,0.33h0.26v-2.389h3.839v-4.412
		h0.155v-0.13h0.244v-0.218h1.398v0.261h0.547v9.154h0.363v0.165H100z"/>
</g>
</svg>
