<?xml version="1.0" encoding="utf-8"?>
<!-- Generator: Adobe Illustrator 16.0.4, SVG Export Plug-In . SVG Version: 6.00 Build 0)  -->
<!DOCTYPE svg PUBLIC "-//W3C//DTD SVG 1.1//EN" "http://www.w3.org/Graphics/SVG/1.1/DTD/svg11.dtd" [
	<!ENTITY ns_extend "http://ns.adobe.com/Extensibility/1.0/">
	<!ENTITY ns_ai "http://ns.adobe.com/AdobeIllustrator/10.0/">
	<!ENTITY ns_graphs "http://ns.adobe.com/Graphs/1.0/">
	<!ENTITY ns_vars "http://ns.adobe.com/Variables/1.0/">
	<!ENTITY ns_imrep "http://ns.adobe.com/ImageReplacement/1.0/">
	<!ENTITY ns_sfw "http://ns.adobe.com/SaveForWeb/1.0/">
	<!ENTITY ns_custom "http://ns.adobe.com/GenericCustomNamespace/1.0/">
	<!ENTITY ns_adobe_xpath "http://ns.adobe.com/XPath/1.0/">
]>
<svg version="1.1" id="Layer_1" xmlns:x="&ns_extend;" xmlns:i="&ns_ai;" xmlns:graph="&ns_graphs;"
	 xmlns="http://www.w3.org/2000/svg" xmlns:xlink="http://www.w3.org/1999/xlink" x="0px" y="0px" width="100px" height="50px"
	 viewBox="0 0 100 50" enable-background="new 0 0 100 50" xml:space="preserve">
<metadata>
	<sfw  xmlns="&ns_sfw;">
		<slices></slices>
		<sliceSourceBounds  x="-87.461" y="-39.826" height="84.103" width="186.961" bottomLeftOrigin="true"></sliceSourceBounds>
	</sfw>
</metadata>
<path fill="#231F20" d="M-86.903,90.326l-0.058-0.013c0.021-0.016,0.038-0.034,0.058-0.053V90.326z"/>
<path fill="#231F20" d="M88.814,34.9l-0.023-0.033l-0.026,0.009c-0.95-0.485-1.94-1.032-2.966-1.651
	c-0.198-0.119-0.391-0.239-0.576-0.357l-0.096-0.157l-0.071,0.05c-1.116-0.72-1.919-1.334-1.919-1.334v-2.555h0.396v-0.576h-0.396
	v-2.267l-0.756-1.763l-0.1-1.476h-0.215l-0.1,1.439l-0.629,1.799h-0.469l-0.107-0.433h-0.414v-1.528h-0.449l-2.158-4.318
	l-0.347,0.001l-0.327-1.979l-0.224,1.993l-0.411-0.001l-1.318,3.584l-0.99-0.611l-0.88,1.547v-0.882h-0.271l-0.216-2.374
	l-0.18,2.374h-0.34v1.044H71.91v3.148l-0.232,0.323v0.433l0.365-0.055v0.729l-4.199,1.943v-0.459l-0.917,0.404v0.379l-2.671,1.187
	v-0.485l-1.134,0.271v-0.514l-0.432,0.108v1.349l-1.052,0.567v-1.053L61.1,32.694l-1.055-2.214l-0.119-0.89l-0.111,0.026
	l-0.119,0.837l-0.484,0.08v0.811L58.469,32.3v-0.343h0.065V31.84h-0.065v-6.018l0.117-0.47v-1.169l0.132-0.263h-0.177v-3.18
	l0.307-0.251v-0.126l-0.379-0.027v-0.371h-0.053v-0.891l-0.065-0.486l-0.083,0.448v0.935l-0.213-0.034v-0.344l0.131-0.207
	l-0.131-0.191v-0.53l0.104-0.191l-0.157-0.354l-0.181-0.028c0,0-0.712-0.934-0.952-1.392c-0.241-0.46-0.383-0.995-0.383-0.995h0.109
	v-0.826h-0.068v0.495h-0.243V13.8l0.188-0.175l-0.123-0.183v-0.134h-0.133c0,0-0.661-1.304-0.843-1.826
	c-0.394-1.128-0.657-2.644-0.657-2.644l-0.035-0.531h0.153v-0.27h-0.124V7.601l0.174-0.175l-0.243-0.284v-0.35l0.111-0.065
	l-0.06-0.109l-0.128-0.394l-0.098,0.379L54.41,6.704l0.102,0.066l0.008,0.356L54.32,7.403l0.142,0.197v0.408h-0.138v0.276h0.152
	l-0.011,0.568c0,0-0.284,2.032-0.524,2.634c-0.24,0.601-0.723,1.715-0.723,1.715l-0.162,0.011v0.153l-0.1,0.153l0.133,0.12v1.672
	l-0.133,0.01v-0.437h-0.118v0.754l0.157,0.158c0,0-0.245,0.76-0.463,1.142c-0.221,0.383-0.613,1.083-0.613,1.083l-0.359,0.032
	l-0.076,0.272v0.35l0.185,0.153v1.224h-0.294v-0.809l-0.088-0.568l-0.088,0.58v1.245H50.86v0.164l0.37,0.284v3.026h-0.194
	l0.251,0.306v1.137l0.186,0.503v5.941h-0.109v0.131h0.152v0.591h-0.141v0.12h0.152v2.809l-0.078,0.075v0.219h-0.064v2.639h-0.842
	v-0.272h0.061v-0.115h-0.061v-0.146l-0.229-0.433V37.26h0.067v-0.093h-0.067l-0.044-0.705l-0.042,0.684h-0.065v0.132h0.053v0.206
	l-0.206,0.41v0.175h-0.062v0.093h0.077v0.229h-0.48v-2.403h0.191l0.113-0.131h-0.272v-0.902l-0.082-0.273h-0.147l-0.088,0.269v0.321
	h-0.147v-2.563H49.04v0.32l-0.218-0.218v-1.158h-0.103v0.342l-0.138-0.131v-0.845l-0.161-0.175v-0.671h-0.132v0.648l-0.13,0.204
	v0.845l-0.132,0.095v-0.299h-0.109v1.174l-0.239,0.24v-0.335h-0.103v2.513h-0.117v-0.379l-0.081-0.211h-0.117l-0.101,0.226v0.961
	h-0.233l0.111,0.14h0.231v2.295h-0.438v-1.429h0.088v-0.117h-0.088v-0.319h0.096v-0.124h-0.096V33.84h0.069v-0.171h-0.09v-0.307
	l-0.109-0.102v-0.467c0,0,0.081,0.016,0.081,0c0-0.014,0-0.174,0-0.174h-0.081v-0.128h0.062v-0.094h-0.123v-0.205h-0.107
	l-0.076-0.382v-0.269h0.059v-0.169h-0.068l-0.075-0.688l-0.058,0.691h-0.065v0.167h0.08v0.27l-0.08,0.357h-0.099l0.019,0.215h-0.132
	v0.135h0.076v0.103h-0.142v0.145h0.13v0.518l-0.117,0.084v0.306l-0.077-0.007v0.189h0.092v1.268h-0.241l-0.239-1.006v-0.23
	l-0.053-0.383l-0.088,0.224l-0.104-0.868l-0.094,0.939H44.84l-0.033-0.366l-0.118-0.251l-0.035-0.825l-0.086,0.819l-0.094,0.284
	v0.208l-0.1-0.006l0.006-0.133v-0.466c0,0,0.081,0.015,0.081,0c0-0.014,0-0.175,0-0.175h-0.081v-0.127h0.061v-0.096h-0.124v-0.203
	h-0.105l-0.077-0.383v-0.27h0.059v-0.171h-0.084l-0.059-0.685l-0.058,0.691H43.93v0.168h0.078v0.27l-0.078,0.356h-0.1l0.02,0.216
	h-0.132v0.135h0.077v0.102h-0.142v0.146h0.13v0.518l-0.115,0.083v0.256h-0.396l0.002-0.272h0.069v-0.171h-0.09v-0.307l-0.109-0.102
	V32.58c0,0,0.078,0.015,0.078,0s0-0.176,0-0.176h-0.078v-0.127h0.061v-0.095h-0.124v-0.204h-0.105L42.9,31.597l0.002-0.268h0.057
	v-0.165h-0.086l-0.058-0.693l-0.057,0.692h-0.065v0.167h0.078v0.271l-0.078,0.356h-0.1l0.017,0.215h-0.13v0.135h0.077v0.103h-0.142
	v0.146h0.13v0.548h-0.097v0.268l-0.126-0.333l-0.103,0.519h-0.455l-0.069-0.589l-0.109,0.523c-0.002-0.001-0.002-0.001-0.004-0.002
	v0.102h-0.604v-0.196l-0.109-0.103v-0.466c0,0,0.08,0.015,0.08,0s0-0.175,0-0.175h-0.08v-0.128h0.061v-0.095h-0.125v-0.203h-0.105
	l-0.076-0.383v-0.269h0.059v-0.168h-0.069l-0.075-0.689l-0.057,0.692h-0.067v0.167h0.082v0.27l-0.082,0.357h-0.098l0.017,0.215
	h-0.13v0.135h0.077v0.103h-0.142v0.145h0.13v0.519l-0.116,0.082v0.299l-0.077-0.007v0.188l0,0v0.009h0.09v0.784
	c-0.004,0.012-0.008,0.023-0.012,0.035l-0.228-0.154v-0.031h0.1v-0.114h-0.1v-0.307l-0.118-0.3l-0.121,0.284l-0.063,0.062v0.09
	l0.04,0.04l-0.01,0.075h-0.023l-0.615-0.418v-0.183l-0.008-0.189l0.107-0.016V33.43h-0.103l0.004-0.043v-0.06h0.061v-0.094h-0.124
	l-0.012-0.229h-0.081l-0.087-0.357v-0.145c0,0.001,0,0.002-0.002,0.003v-0.15l0.06-0.004v-0.12H38.75l-0.06-0.711l-0.057,0.692
	h-0.065v0.168h0.078v0.27l-0.078,0.357h-0.1l0.017,0.215h-0.13v0.135h0.077v0.102h-0.142v0.146h0.13v0.034
	c-0.071,0.204-0.147,0.406-0.228,0.605h-0.474v-0.455l-0.109-0.102v-0.466c0,0,0.081,0.015,0.081,0s0-0.176,0-0.176H37.61v-0.127
	h0.063v-0.095h-0.124V32.62h-0.105l-0.076-0.382v-0.292h0.057v-0.123H37.34l-0.059-0.711l-0.058,0.692h-0.065v0.167h0.079v0.27
	l-0.079,0.357h-0.098l0.018,0.214h-0.132v0.136h0.079v0.102h-0.143v0.146h0.132v0.518l-0.117,0.084v0.295H36.78v0.182h-0.42V34.04
	l-0.155-0.356l-0.137,0.335v0.859l-0.189,0.452l-0.243,0.007v-0.854h0.071v-0.171h-0.092v-0.308l-0.109-0.101v-0.466
	c0,0,0.081,0.014,0.081,0c0-0.015,0-0.176,0-0.176h-0.081v-0.128h0.062V33.04h-0.123v-0.204h-0.107l-0.077-0.383v-0.291h0.06v-0.124
	h-0.084l-0.057-0.71l-0.06,0.691h-0.065v0.168h0.081v0.27l-0.081,0.357h-0.099l0.019,0.214h-0.132v0.136h0.077v0.102h-0.142v0.146
	h0.132v0.518l-0.117,0.083v0.307l-0.078-0.007V34.5h0.091v2.279h-0.12v0.147l0.126,0.087v0.224h-0.082v0.143h0.059v1.093
	l-0.103-0.169v-0.502h-0.092v0.496l-0.107,0.105H34.09v-0.69h0.13v-0.108h-0.13V37.15h-0.153v0.065h-0.117v-0.098h-0.212v0.076
	h-0.13v-0.087H33.27V37.2h-0.082v-0.109h-0.094v0.52H32.97v0.087h0.153v0.917h-0.797v-0.47h-0.099V37.85h0.12v-0.093h-0.071V37.31
	H32.02v-0.617h0.076v-0.269h-0.155v-2.471l0.05-0.048v-0.273h-0.12V32.78h0.057l-0.138-0.678L31.668,32.7v0.896l-0.055-0.055v-1.577
	h-0.121v0.251l-0.078-0.077v-1.019l-0.104-0.838l-0.057,0.795h-0.075l-0.071-0.947l-0.08,0.917v0.686c0,0-0.126-0.263-0.132-0.284
	c-0.008-0.021,0-0.845,0-0.845l-0.102,0.196v-2.557h-0.088l-0.098-0.1h-0.078v-1.059l-0.094,0.626h-0.176v-0.546h0.08v-0.16
	l-0.241-0.153L30,25.838h0.08v-0.204H30l-0.291-2.323l0.121-0.097V23.1l-0.121-0.147l-0.055-0.546l-0.077,0.534l-0.086,0.121v0.146
	l0.071,0.104l-0.247,2.285h-0.102v0.233h0.081l-0.147,1.078L28.95,27.01v0.176h0.08v0.547h-0.166l-0.081-0.524v1.106h-0.161
	l-0.036,0.073h-0.073v2.571l-0.103-0.299v0.779h-0.13l-0.072-1.224l-0.081,0.933h-0.109l-0.08-0.998l-0.052,0.998v0.954h-0.088
	l-0.044-0.263l-0.05,0.679v0.61l-0.065,0.387v-0.917l-0.104-0.575l-0.101,0.582v3.759h-0.174v-1.573h-0.111v-0.438h0.111v-0.109
	h-0.111v-0.139h0.075V34.04l-0.228-0.43l-0.057-0.655l-0.086,0.59l-0.212,0.452v0.102h0.046v0.129h-0.073v0.132h0.1v0.432h-0.159
	v0.616l-0.262-0.19v-0.399l-0.126-0.137v0.394l-0.333-0.333v-1.519h-0.115v0.404l-0.323-0.546l-0.026-0.727h-0.077v0.709
	l-0.329,0.541v-0.432h-0.121v0.132l-0.014,1.381l-0.499,0.095v0.382H24.18v-0.481l-0.042-0.04V34.2h0.075v-0.087h-0.075V33.9
	l-0.184-0.372v-0.601h-0.109v0.617l-0.235,0.322v0.207h-0.074V34.2h0.097v0.404l-0.049,0.044h-0.077v0.448h-0.195v0.301h-0.17
	v-0.722l-0.191,0.339v0.956l-0.363-0.021v-0.505h-0.109v-0.437h0.109v-0.109h-0.109V34.76h0.072v-0.066l-0.226-0.429l-0.059-0.655
	l-0.086,0.59l-0.212,0.451v0.103h0.046v0.129h-0.07v0.132h0.097v0.431h-0.159l-0.036,2.826l-0.491,0.017l-0.212-0.432V37.32
	l-0.073-0.071v-1.055l-0.067-0.067v-5.379h0.092v-0.173h-0.092v-0.28h0.111v-0.132h-0.123v-4.748l0.128-0.061v-0.109h-0.128v-0.838
	h-0.07l-0.069,0.189l-0.054-0.053v-0.636l0.123-0.102l-0.077-0.081v-0.601h-0.046l-0.067,0.066l-0.296-0.81v-0.571l0.088-0.088
	l0.02-0.127l-0.088-0.099l-0.099-0.387l-0.13,0.379l-0.094,0.069l0.025,0.16l0.065,0.099l0.004,0.562l-0.313,0.797l-0.073-0.117
	l-0.056-0.003l0.016,0.685l-0.098,0.051l0.094,0.106v0.542l-0.04,0.132l-0.069-0.245h-0.081v0.879h-0.136v0.134l0.125,0.044v0.929
	h-0.688v-0.349h0.092v-0.121h-0.063v-0.188l-0.371-0.204h-0.235v-0.52h-0.25v-0.459h0.136v-0.175l-0.063-0.062v-0.478l-0.373-0.732
	l-0.029-0.596l0.1-0.093v-0.132l-0.1-0.142l-0.097-0.29l-0.1,0.29l-0.086,0.093v0.137l0.065,0.143l0.021,0.584l-0.312,0.523
	l-0.31-0.862l0.081-0.152l-0.004-0.334l-0.126-0.131v-5.599l0.105-0.112l-0.015-0.143l-0.155-0.247l-0.107,0.226v0.16l0.069,0.105
	l-0.069,5.599l-0.125,0.064v0.34l0.094,0.207l-0.201,0.465l-0.056-0.41l-0.367-0.699V21.34l0.077-0.076l0.012-0.142l-0.088-0.143
	l-0.092-0.35l-0.099,0.35l-0.132,0.088v0.152l0.128,0.164l-0.027,0.601l-0.411,0.766v0.639l0.098,0.099v0.524l-0.197,0.225
	l-0.048-0.257l-0.082-0.012v0.847l-0.104,0.006v0.158h0.125v0.628h-0.312v-0.813h-0.086V25.7l-0.229,0.316v0.405h-0.667v-0.848
	h0.138V25.41h-0.094v-0.797h-0.044v0.218h-0.132V24.53h-0.065v-0.448l0.147-0.081v-0.672l-0.147-0.006c0,0-0.294-0.535-0.317-0.76
	c-0.021-0.224-0.033-0.529-0.033-0.529l0.1-0.109l0.01-0.126l-0.109-0.143l-0.082-0.387l-0.113,0.382l-0.1,0.104l0.027,0.159
	l0.082,0.132c0,0-0.009,0.382-0.023,0.48c-0.009,0.098-0.31,0.803-0.31,0.803h-0.132v0.639l0.186,0.131v0.415h-0.109v0.269h-0.153
	v-0.235h-0.1v0.798h-0.075v0.197h0.119v3.123h-0.119v0.167h0.111v1.465h-0.111v0.094l0.098,0.1v4.352l-0.409,1.08h0.121v0.312
	l-0.121,0.19v0.153h-0.44c-0.13-6.861-1.149-11.519-2.344-14.427v-0.001c-0.065-0.162-0.13-0.318-0.197-0.469H9.176
	c-0.03-0.07-0.063-0.141-0.094-0.208l0.006,0.005c-0.771-1.645-1.648-2.531-1.799-2.677c-0.43-0.387-0.828-0.575-1.159-0.575
	c-1.592,0-4.756,4.241-5.462,15.232H0V50h100V38.585C100,38.585,95.416,38.261,88.814,34.9z M60.449,46.462h-1.592v-2.557
	c0.126-0.067,0.281-0.116,0.478-0.121c0.9-0.018,1.114,0.666,1.114,1.009V46.462z M72.043,44.055h-0.725v-1.043h-0.541V41.32h-0.576
	v1.691h-0.648l-0.395-0.396h-0.467v0.396h-0.505v1.798h-0.685v0.432h-1.977v-1.654h-0.504v1.654h-1.907v-7.627l8.929-2.951V44.055z
	 M84.547,33.111l-0.689,0.474l-0.717-1.32C83.322,32.377,83.82,32.686,84.547,33.111z M84.307,35.321
	c-0.469-0.353-0.826-0.637-1.035-0.809l0.435-0.299L84.307,35.321z M83.064,33.029l0.436,0.804l-0.436,0.3V33.029z M84.846,44.009
	l-1.816,0.082v-8.815c0,0,0.709,0.584,1.816,1.341V44.009z M84.846,35.409l-0.782-1.442l0.782-0.538V35.409z M99.018,38.896
	l-1.217,0.518l-1.244-1.03C97.533,38.617,98.396,38.786,99.018,38.896z M98.93,40.909c-0.615-0.084-1.473-0.221-2.514-0.433
	l1.312-0.562L98.93,40.909z M95.748,38.271l1.607,1.333l-1.607,0.688V38.271z M92.644,37.173c0.567,0.227,1.153,0.429,1.735,0.611
	l-0.747,0.446l-1.082-1.095C92.582,37.147,92.613,37.161,92.644,37.173z M94.911,40.144c-0.774-0.187-1.618-0.409-2.511-0.677
	l1.16-0.692L94.911,40.144z M91.674,36.86l1.576,1.599l-1.405,0.838c-0.016-0.006-0.032-0.01-0.046-0.015L91.674,39.1V36.86z
	 M91.135,36.535l-0.906,0.442l-0.865-1.272C89.94,35.988,90.535,36.268,91.135,36.535z M91.127,39.066
	c-0.119-0.04-0.24-0.08-0.363-0.121c-0.649-0.221-1.299-0.498-1.93-0.807l1.248-0.608L91.127,39.066z M88.354,35.465l0.264-0.087
	l1.219,1.79l-1.482,0.725V35.465z M88.128,35.084l-1.294,0.426l-1.021-1.673C86.501,34.224,87.287,34.649,88.128,35.084z
	 M87.497,37.429c-0.635-0.362-1.233-0.739-1.771-1.101l0.916-0.302L87.497,37.429z M85.062,33.433l1.35,2.216l-1.134,0.372
	c-0.055-0.037-0.109-0.075-0.16-0.112l-0.056-0.102V33.433z M88.14,43.86l-3.078,0.139v-7.236c0.858,0.578,1.925,1.234,3.078,1.807
	V43.86z M88.14,37.65l-1.077-1.762l1.077-0.353V37.65z M91.457,43.711l-3.104,0.14v-5.176c0.748,0.36,1.525,0.683,2.304,0.918
	c0.268,0.081,0.535,0.16,0.8,0.236V43.711z M91.457,38.782l-0.983-1.444l0.983-0.479V38.782z M95.532,43.527l-3.858,0.174v-3.809
	c1.389,0.396,2.702,0.724,3.858,0.987V43.527z M95.532,40.157l-1.589-1.61l0.996-0.595c0.199,0.06,0.396,0.115,0.593,0.168V40.157z
	 M99.832,43.333l-4.084,0.185V40.93c2.066,0.464,3.596,0.719,4.084,0.797V43.333z M99.832,41.017
	c-0.033-0.003-0.067-0.007-0.111-0.011l-1.545-1.282l1.635-0.698c0.008,0.001,0.012,0.002,0.021,0.003V41.017z"/>
</svg>
