<?xml version="1.0" encoding="utf-8"?>
<!-- Generator: Adobe Illustrator 16.0.4, SVG Export Plug-In . SVG Version: 6.00 Build 0)  -->
<!DOCTYPE svg PUBLIC "-//W3C//DTD SVG 1.1//EN" "http://www.w3.org/Graphics/SVG/1.1/DTD/svg11.dtd" [
	<!ENTITY ns_extend "http://ns.adobe.com/Extensibility/1.0/">
	<!ENTITY ns_ai "http://ns.adobe.com/AdobeIllustrator/10.0/">
	<!ENTITY ns_graphs "http://ns.adobe.com/Graphs/1.0/">
	<!ENTITY ns_vars "http://ns.adobe.com/Variables/1.0/">
	<!ENTITY ns_imrep "http://ns.adobe.com/ImageReplacement/1.0/">
	<!ENTITY ns_sfw "http://ns.adobe.com/SaveForWeb/1.0/">
	<!ENTITY ns_custom "http://ns.adobe.com/GenericCustomNamespace/1.0/">
	<!ENTITY ns_adobe_xpath "http://ns.adobe.com/XPath/1.0/">
]>
<svg version="1.1" id="Layer_1" xmlns:x="&ns_extend;" xmlns:i="&ns_ai;" xmlns:graph="&ns_graphs;"
	 xmlns="http://www.w3.org/2000/svg" xmlns:xlink="http://www.w3.org/1999/xlink" x="0px" y="0px" width="100px" height="50px"
	 viewBox="0 0 100 50" enable-background="new 0 0 100 50" xml:space="preserve">
<metadata>
	<sfw  xmlns="&ns_sfw;">
		<slices></slices>
		<sliceSourceBounds  x="-0.5" y="0.5" height="36.119" width="100" bottomLeftOrigin="true"></sliceSourceBounds>
	</sfw>
</metadata>
<g>
	<path fill="#231F20" d="M100,49.123h-0.549v-7.229H96.6v-1.648h-2.713v-3.52h-0.104v-0.859h-0.103v-0.36l-0.687-1.752v-0.515
		h-0.189v-0.687l-0.154-0.31l-0.138,0.31v0.687h-0.138v0.515l-0.721,1.735h-0.43v-0.396h-0.109v-0.111h-0.16v0.111h-0.151v-0.111
		h-0.161v0.111h-0.15v-0.111h-0.161v0.111H90.18v-0.111h-0.16v0.111h-0.151v-0.111h-0.161v0.111h-0.151v-0.111h-0.16v0.111h-0.151
		v-0.111h-0.16v0.111h-0.152v-0.111h-0.16v0.111H88.62v-0.111h-0.161v0.111h-0.15v-0.111h-0.161v0.111h-0.151v-0.111h-0.16v0.111
		h-0.152v-0.111h-0.16v0.111h-0.151v-0.111h-0.161v0.111h-0.15v-0.111h-0.161v0.111h-0.151v-0.111h-0.16v0.111h-0.151v-0.111h-0.161
		v0.111h-0.151v-0.111h-0.161v0.111h-0.182v4.035h-1.493v2.232h-0.447v-0.618h-0.223v0.378H83.43v1.666h-0.293v2.026h-0.172v-8.234
		h-1.398l-0.129,0.129h-2.834V36.45h-0.36v0.292h-0.618v3.624h-0.602v0.635h-0.463v0.602h-0.24v0.257h-0.808v0.155h-0.601v-0.224
		h-0.361v-1.717l-0.172-0.43h-0.67v-0.979c0,0-0.668,0-0.755,0c-0.085,0,0-3.571,0-3.571h-4.877l-1.356,0.258v6.714h-0.206v-0.111
		h-0.163v-0.12h-1.348v0.146h-0.111v0.12h0.111v0.722H64.78v0.235h-0.323v-0.918h-0.216v-3.87h-0.329v-1.146h-0.717v-0.373h-0.746
		v0.431h-0.845v1.132h-0.216v0.832H61.26v3.74l-0.071,0.072v-0.229h-0.215v0.144h-0.216v0.415h-0.229v-0.272H60.3v0.301h-0.216
		v-0.143h-0.673V43.16h0.125v-0.28h-0.125v-0.118h0.125v-0.279h-0.125v-0.118h0.125v-0.279h-0.125v-0.119h0.125v-0.279h-0.125
		v-0.118h0.125v-0.279h-0.125v-0.118h0.125v-0.279h-0.125v-0.119h0.125v-0.279h-0.125v-0.118h0.125v-0.279h-0.125v-0.118h0.125
		v-0.279h-0.125v-0.119h0.125V39.3h-0.125v-0.118h0.125v-0.279h-0.125v-0.132h-0.771v-8.858h-0.167v-2.863h-0.116v-0.107h-0.32
		v-0.349h-0.126v-1.332h-0.224v-0.565h-0.369L56.9,23.671v-0.635h-0.111V22.38H56.66v-2.176h-0.139V19.99h0.148v-0.204h-0.205
		v-0.271h0.084v-0.27h-0.344v-1.775h-0.094v-1.497h-0.074l-0.063-2.093h-0.058l-0.064,2.093h-0.074v1.497h-0.094v1.775H55.34v0.27
		h0.084v0.271h-0.205v0.204h0.149v0.214h-0.14v2.176h-0.127v0.656h-0.112v0.635l-0.419,1.024h-0.369v0.565h-0.223v1.332h-0.126
		v0.349h-0.321v0.107h-0.116v2.863h-0.167v8.873l-1.42,0.309v0.075H51.79v0.276h0.038v0.119H51.79v0.276h0.038v0.118H51.79v0.277
		h0.038v0.119H51.79v0.078h-0.506v0.572l-0.187,0.115v2.25h-0.243v-4.887l-0.445-2.203v-1.06h-1.132v-0.416h-0.244v-0.387h-0.215
		v-1.004h0.215v-0.229h-0.229v-2.25h0.229v-0.301H48.79v-1.348l-1.261-0.071h-2.694v-1.204h-0.129v-1.133h-0.287V23.97h-0.115v5.06
		l-0.158,0.258h-0.803v1.466l-0.429,0.344v1.15l-0.165,0.047v5.179h-0.137v-5.14V32.17v-0.396h-1.161v-0.184h-0.226v-0.387h-0.279
		v-0.397h-0.409v0.397h-0.655l-0.333,0.193v0.248h-0.107v-0.172h-0.194v-0.527h-0.14v-0.29h-0.226v0.312h-1.398v-0.161h-0.107v0.172
		h-2.72v0.183h-0.294v2.189h-0.372v-0.129h-0.158l-0.286,0.294v0.738h-0.423l-0.187,0.165v1.741h-0.086v0.208h-0.09v3.068h-0.254
		v-3.068v-1.204l-0.351-0.315h-0.509l-0.129,0.144H31.21v-1.929h-0.057v-0.322h0.365v-1.72h-1.161v-0.2h-0.215v-1.29h-0.308v-0.266
		h-0.265v-1.039h-0.09v-2.226h-0.046v-1.078h-0.047v-0.734h-0.042v-0.162h0.042v-0.698H29.34l-0.071-1.189l-0.007,1.196h-0.037
		v0.696h0.044v0.17h-0.044v0.735h-0.029v1.068h-0.048v2.227h-0.081v1.054H28.68v0.21h-0.075l-0.14,0.188v1.311H27.19v1.734h0.25
		v0.243h-0.143v0.165h-0.079v0.344l-0.129,0.115v0.509h-0.315l-0.287,0.272v2.881h-0.1V36.16h-0.072v-0.208h-0.229v-1.497h-0.129
		v-0.48h-0.104v-0.502h-0.103v-0.403h-0.107v-0.414h-0.097v-0.381h-0.113v-0.587l-0.053-0.091l-0.156-2.145l-0.037,1.483
		l-0.073,0.15v0.54l-0.073,0.072v0.608h-0.091v0.344h-0.082v0.408h-0.096v0.409h-0.091v0.516h-0.064v0.451h-0.226v1.537h-0.237
		v-0.413h-0.151v-0.087h-0.488v-0.214h-1.688v0.182h-0.602v0.193h-0.248v4.145h-0.167V39.67h-0.086v0.103h-0.36v-0.36h-0.328v-1.005
		h-0.129V33.05h-0.057v-0.373H19.5v-2.422l-1.154,0.816H18.21v-1.046h-0.093v0.645l-0.366,0.373H16.77v-0.165h0.057V30.19H16.77
		l-0.048-0.466h-0.104l-0.048,0.473h-0.05v0.674h0.05v0.179l-0.76-0.76v0.774h-0.201l-0.875-0.516v5.978h-0.261v0.936h-0.452v0.172
		h-0.398v0.19h-0.161v0.24h-0.086v0.462h0.086v0.193h-0.086v0.462h0.086v0.194h-0.086v0.462h0.086v0.193h-0.086v0.462h0.086v0.193
		h-0.086v0.463h0.086v0.193h-0.086v0.462h0.086v0.194h-0.086v0.462h0.086v0.193h-0.086v0.462h0.086v0.047h-0.663v-0.474l-0.187-0.22
		l-0.021-0.273l0.154-0.113l0.007-0.261l-0.147-0.013l-0.021-0.414l-0.307,0.026c-0.287-0.106-0.342-0.909-0.342-0.909l-0.024-1.519
		l0.04-0.294l-0.042-0.988l0.111-0.174l-0.004-0.071l-0.118-0.193l-0.107-1.087l-0.167-1.015l0.217-0.066l0.49-0.521l0.227-0.04
		c0,0,0.463-0.5,0.471-0.586c0.006-0.087-0.097-0.194-0.097-0.194l0.24-0.434l-1.081-0.591l-0.625,0.697
		c0-0.084-0.029-0.351-0.087-0.439c-0.058-0.089-0.133-0.348-0.16-0.569c-0.027-0.223-0.124-0.427-0.2-0.512
		c-0.076-0.085-0.33-0.227-0.338-0.315c-0.009-0.089-0.085-0.289-0.133-0.347c-0.049-0.059-0.054-0.129-0.031-0.191
		s0.035-0.231,0.038-0.285c0.002-0.053-0.014-0.081-0.026-0.091c-0.014-0.009-0.029-0.129-0.034-0.181
		c-0.004-0.051,0.059-0.099,0.074-0.155c0.015-0.057-0.031-0.117-0.043-0.134c-0.011-0.017-0.01-0.063-0.01-0.063
		c0.062-0.063,0.102-0.193,0.102-0.193l0.836-0.007l0.001-0.028l-0.827-0.082c0.02-0.069-0.013-0.164-0.013-0.164l0.869-0.331
		l-0.005-0.033l-0.947,0.221c-0.03-0.072-0.138-0.145-0.138-0.145l0.642-0.681l-0.024-0.036l-0.747,0.646
		c-0.128-0.083-0.3-0.074-0.3-0.074L9.91,28.299l-0.04,0.003l-0.068,0.938c-0.152-0.007-0.284,0.029-0.284,0.029l-0.726-0.565
		l-0.018,0.021l0.612,0.636c-0.085,0.043-0.19,0.188-0.19,0.188l-0.664-0.173C8.521,29.241,8.51,29.086,8.512,29
		c0.005-0.173-0.187-0.991-0.218-1.107c-0.031-0.115-0.053-0.191,0.004-0.235c0.058-0.045,0.093-0.125,0.093-0.16
		c0-0.036-0.044-0.107-0.071-0.134c-0.027-0.026-0.004-0.075,0.009-0.089c0.013-0.013,0.044-0.134,0.04-0.343
		c-0.005-0.209-0.236-0.558-0.262-0.578c-0.027-0.02-0.025-0.055-0.007-0.082c0.018-0.026,0.056-0.045,0.056-0.045l0.023-0.183
		c0.076-0.03,0.253-0.153,0.263-0.257c0.01-0.104-0.126-0.193-0.126-0.193l0.006-0.177l-0.11-0.007l0.01-0.104
		c0.08-0.066,0.05-0.313,0.046-0.427c-0.002-0.113-0.183-0.407-0.169-0.304s-0.124,0.25-0.114,0.23c0.01-0.021,0.017-0.12,0-0.25
		s-0.14-0.317-0.183-0.257c-0.043,0.06-0.291,0.43-0.374,0.55c-0.083,0.12-0.03,0.32-0.017,0.374
		c0.013,0.053,0.057,0.086,0.057,0.086v0.104L7.366,25.44c0,0,0.017,0.153-0.017,0.173c-0.034,0.021-0.144,0.094-0.124,0.23
		s0.29,0.213,0.29,0.213s-0.013,0.182,0.018,0.199s0.036,0.035,0.004,0.067c-0.031,0.03-0.031,0.187-0.041,0.223
		c-0.008,0.035,0.031,0.253,0.049,0.346c0.018,0.094,0.129,0.296,0.159,0.329c0.03,0.034,0.05,0.084,0.01,0.117
		s-0.07,0.113-0.046,0.196c0.023,0.084,0.113,0.145,0.113,0.145s0.044,1.423,0.053,1.628s0.16,0.552,0.16,0.552
		s-0.018,0.098-0.187,0.329c-0.168,0.231-0.24,0.587-0.231,0.897c0.009,0.312,0.196,0.374,0.258,0.374s0.098-0.071,0.036,0.134
		c-0.062,0.204,0.16,0.355,0.222,0.417c0.062,0.063-0.027,0.338-0.098,0.508c-0.071,0.169,0.24,0.524,0.32,0.836
		c0.08,0.312-0.231,0.871-0.32,1.076s0.071,0.383,0.205,0.409c0.133,0.027,0.125,0.214,0.142,0.338
		c0.018,0.125-0.071,0.303-0.178,0.489c-0.106,0.187-0.053,0.453-0.053,0.453s0.143,1.032,0.161,1.263
		c0.018,0.231-0.009,0.507-0.053,0.57c-0.045,0.062-0.054,0.178-0.018,0.257c0.036,0.08,0.009,0.437-0.027,0.561
		c-0.036,0.125-0.026,0.508-0.009,0.614c0.019,0.106-0.08,0.249-0.125,0.319c-0.044,0.071,0.09,0.268,0.09,0.268
		s0,0.151-0.045,0.604s-0.48,0.791-0.48,0.791l-0.417,0.027l-0.018,0.391l-0.142,0.019l-0.018,0.223l0.151,0.151v0.338l-0.195,0.178
		l-0.018,0.444l-0.185,0.013v-2.936h-0.11v-0.572H6.396v-0.387H6.322v-0.068H6.197v-0.114H5.958v-0.501H5.895v-0.134H5.753v-0.181
		H5.707v0.311H5.601v-1.267H5.428v-0.616h-0.09v0.616H5.197v0.576H4.785v0.377H4.597v0.353H4.424v-0.109H4.275v0.611H4.158v0.149
		H3.859v0.368H3.703v0.58H3.318v0.063H3.146v4.393H3.085v-1.689H3.022V42.28H2.4v1.652H2.259v1.765H2.024V43.21h0.062v-0.186H2.024
		v-0.214H1.891L1.64,42.418H1.498v-0.055H1.224v0.079H1.09l-0.227,0.281v0.134h-0.11v-0.078h-0.07v0.078H0.392v2.997H0.314v0.611
		H0.251v0.345H0.181v0.354H0.125v0.385h-0.07v0.384H0v0.312V50h100V49.123z M8.792,29.866c-0.03-0.117-0.236-0.244-0.236-0.244
		s-0.01-0.094-0.021-0.214c0.151,0.055,0.624,0.226,0.615,0.251c-0.01,0.03-0.025,0.191-0.025,0.191L8.803,29.9
		C8.799,29.889,8.795,29.877,8.792,29.866z M9.16,30.346c-0.017,0.123-0.094,0.244-0.164,0.264
		c-0.055,0.016-0.146-0.066-0.126-0.272c0.015-0.161-0.022-0.285-0.053-0.389l0.302,0.011l0.054,0.051L9.16,30.346z"/>
</g>
</svg>
