<?xml version="1.0" encoding="utf-8"?>
<!-- Generator: Adobe Illustrator 16.0.4, SVG Export Plug-In . SVG Version: 6.00 Build 0)  -->
<!DOCTYPE svg PUBLIC "-//W3C//DTD SVG 1.1//EN" "http://www.w3.org/Graphics/SVG/1.1/DTD/svg11.dtd" [
	<!ENTITY ns_extend "http://ns.adobe.com/Extensibility/1.0/">
	<!ENTITY ns_ai "http://ns.adobe.com/AdobeIllustrator/10.0/">
	<!ENTITY ns_graphs "http://ns.adobe.com/Graphs/1.0/">
	<!ENTITY ns_vars "http://ns.adobe.com/Variables/1.0/">
	<!ENTITY ns_imrep "http://ns.adobe.com/ImageReplacement/1.0/">
	<!ENTITY ns_sfw "http://ns.adobe.com/SaveForWeb/1.0/">
	<!ENTITY ns_custom "http://ns.adobe.com/GenericCustomNamespace/1.0/">
	<!ENTITY ns_adobe_xpath "http://ns.adobe.com/XPath/1.0/">
]>
<svg version="1.1" id="Layer_1" xmlns:x="&ns_extend;" xmlns:i="&ns_ai;" xmlns:graph="&ns_graphs;"
	 xmlns="http://www.w3.org/2000/svg" xmlns:xlink="http://www.w3.org/1999/xlink" x="0px" y="0px" width="100px" height="50px"
	 viewBox="0 0 100 50" enable-background="new 0 0 100 50" xml:space="preserve">
<metadata>
	<sfw  xmlns="&ns_sfw;">
		<slices></slices>
		<sliceSourceBounds  x="-87.461" y="-39.826" height="93.889" width="186.961" bottomLeftOrigin="true"></sliceSourceBounds>
	</sfw>
</metadata>
<path fill="#231F20" d="M-86.903,90.326l-0.058-0.013c0.021-0.016,0.038-0.034,0.058-0.053V90.326z"/>
<path fill="#231F20" d="M99.622,40.726v-0.151h-0.113V40.31H99.42v-0.92h-0.05v-0.353h-0.188v0.353h-0.479v0.92h-0.92v0.265h-1.196
	v0.151h-0.215v4.302h-0.504v-0.124h-0.063v-0.082h-0.926v0.082h-0.12V40.65h-0.135v-2.479l-0.15-0.091v-1.018h-1.395v0.181
	l-0.807-0.483l-2.352,1.411v5.242h-0.391v-0.748h-0.404v-0.479h-0.806v0.479H88.23v0.748h-0.125v1.318h-0.404v0.967h-0.4v-2.114
	l-0.188-0.673h-1.224c0,0-0.095-0.371-0.352-0.528v-0.285l-0.104-0.179l-0.084,0.165h-0.053V41.3l0.021-0.022v-0.134h0.042v-0.228
	h-0.081v-0.429h-0.182v0.222l-0.136-0.086c0,0,0.227-1.941-1.63-3.385v-0.134l-0.074-0.074v-0.091h0.03v-0.188h-0.073v-1.076
	l0.033-0.034v-0.238h-0.062c0,0,0.066-0.419-0.389-0.974l-0.064-0.615h-0.036l-0.075,0.61c0,0-0.338,0.312-0.363,0.968h-0.061v0.237
	l0.055,0.035v1.09h-0.061v0.151h0.051v0.148l-0.04,0.084v0.128c0,0-0.982,0.925-1.083,1.409h-0.107v-0.78l-0.045-0.044v-0.293
	l-0.211-0.289v-0.235l-0.067-0.067l0.007-0.484l0.104-0.104l-0.118-0.805l-0.377-0.49c0,0-0.026-2.583-2.596-4.467v-0.142
	l-0.357-0.369v-0.505l0.055-0.014v-0.135l-0.107-0.08v-1.097l0.026-0.027v-0.269l0.058-0.058l-0.018-0.219l-0.066-0.073v-0.384
	c0,0-0.021-0.612-0.498-0.981l-0.091-0.896h-0.012h-0.012l-0.091,0.896c-0.478,0.369-0.498,0.981-0.498,0.981v0.384l-0.066,0.073
	l-0.018,0.219l0.057,0.058v0.269l0.027,0.027v1.097l-0.107,0.08v0.135l0.054,0.014v0.505l-0.356,0.369v0.142
	c-2.569,1.884-2.597,4.467-2.597,4.467l-0.376,0.49l-0.118,0.805l0.104,0.104l0.006,0.484l-0.066,0.067v0.235l-0.212,0.289v0.293
	l-0.044,0.044v0.78h-0.107c-0.102-0.484-1.083-1.409-1.083-1.409v-0.128l-0.04-0.084v-0.148h0.05v-0.151h-0.06v-1.09l0.055-0.035
	v-0.237h-0.061c-0.025-0.655-0.363-0.968-0.363-0.968l-0.076-0.61h-0.035L70.6,34.429c-0.455,0.555-0.39,0.974-0.39,0.974h-0.062
	v0.238l0.033,0.034v1.076h-0.074v0.188h0.031v0.091l-0.074,0.074v0.134c-1.857,1.443-1.63,3.385-1.63,3.385l-0.136,0.086v-0.222
	h-0.182v0.429h-0.081v0.228h0.042v0.134L68.1,41.3v0.785h-0.053l-0.085-0.165l-0.103,0.179v0.285
	c-0.258,0.157-0.352,0.528-0.352,0.528h-0.169v-2.296h-0.411v2.296h-0.034v-1.741h-0.126v0.261h-1.546v-0.177h0.303v-0.453h-0.303
	v-0.328h0.303V40.02h-0.303v-0.327h0.303v-0.453h-0.303v-0.328h0.303v-0.453h-0.303V38.13h0.303v-0.454h-0.303v-0.327h0.303v-0.453
	h-0.303v-0.328h0.303v-0.453h-0.303v-0.328h0.303v-0.454h-0.303v-0.327h0.303v-0.453h-0.303v-0.328h0.303v-0.453h-0.303v-0.328
	h0.303v-0.453h-0.303v-0.328h0.303v-0.453h-0.303V31.88h0.303v-0.453h-0.303v-0.328h0.303v-0.453h-0.303v-0.328h0.303v-0.454h-0.303
	v-0.327h0.303v-0.453h-0.303v-0.328h0.303v-0.453h-0.303v-0.328h0.303v-0.453h-0.303v-0.328h0.303v-0.454h-0.303v-0.327h0.303
	v-0.453h-0.303V25.63h0.303v-0.453h-0.303v-0.328h0.303v-0.454h-0.303v-0.302h-2.57v-0.219h-1.495v-2.268l-1.109,1.209v1.059h-0.369
	v0.219h-0.102v12.903h-0.84v-0.202h-0.101v-0.285H57.93v0.285h-0.772v0.202h-0.101v5.646h-0.102v-0.235h-2.284v0.235h-0.538v2.842
	c-0.735-1.317-3.447-6.406-3.447-6.406l0.102-0.926v-0.27h-0.059v-1.128h-1.061c0,0-0.576-1.605-0.867-2.525
	c-0.292-0.921-1.37-5.074-1.37-5.074s0.118-0.146,0.286-0.146l0.267-0.909h-0.067v-0.387h-0.808c0,0-0.71-4.766-0.822-6.304
	c-0.191-2.63-0.617-9.171-0.965-15.939c0,0-0.129-1.128,0.41-1.678V2.59l-0.168-0.118V1.944l-0.146-0.09V1.613h0.101V1.31h-0.134
	c0,0-0.056-0.55-0.618-0.662V0.21h-0.146v-1.538l-0.09-0.078l-0.062-2.156h-0.045L44.36-1.406l-0.089,0.078V0.21h-0.146v0.438
	C43.563,0.76,43.508,1.31,43.508,1.31h-0.135v0.304h0.101v0.241l-0.146,0.09v0.527L43.16,2.59v1.201
	c0.539,0.55,0.41,1.678,0.41,1.678c-0.348,6.769-0.774,13.31-0.965,15.939c-0.112,1.538-0.822,6.304-0.822,6.304h-0.808v0.387
	h-0.067l0.266,0.909c0.169,0,0.287,0.146,0.287,0.146s-1.078,4.153-1.37,5.074c-0.292,0.92-0.867,2.525-0.867,2.525h-1.061v1.128
	h-0.059v0.27l0.101,0.926c0,0-1.107,2.078-2.099,3.923v-0.997h0.039v-0.094h0.045V41.71h0.098v-0.08h-0.129v-0.471l0.016-0.016
	v-0.151h0.162v-0.087l0.122-0.087v-0.115l0.101-0.108v-0.038h-0.349v-0.248H36.14v-0.634h0.038v-0.094l0.129-0.084v-0.126h-0.178
	v-0.178H35.93v0.115h-0.672v-0.104h-0.174v0.108h-0.673v-0.119H34.24v0.108h-0.672v-0.094h-0.195v0.107h-0.638v-0.114h-0.192v0.104
	h-0.718v-0.101h-0.206v0.111h-0.303h-0.007h-0.303v-0.111H30.8v0.101h-0.718v-0.104h-0.191v0.114h-0.638v-0.107h-0.195v0.094h-0.673
	v-0.108h-0.17v0.119h-0.673v-0.108h-0.174v0.104h-0.672v-0.115h-0.199v0.178h-0.178v0.126l0.129,0.084v0.094h0.038v0.634h-0.07
	v0.248h-0.348v0.038l0.101,0.108v0.115l0.122,0.087v0.087h0.162v0.151l0.016,0.016v0.471h-0.129v0.08h0.098v0.199h0.045v0.094h0.038
	v1.895h-0.144v0.069l0.106,0.082v0.293h0.033v1.895h-0.204v-1.243l-0.907-0.504l-0.235,0.117v-3.175l-0.974-0.504l-0.471,0.243
	v-4.343l-1.882-1.008v7.156h-0.806v-4.065l-2.487-1.108l-2.587,1.108v7.325h-0.369v-4.482h-0.116v0.26h-0.185v-0.798h0.079v-0.153
	l-0.167-0.13V40.14l0.13-0.153v-0.102h-0.088v-0.288h-0.046v-1.071h0.046v-0.229h0.153v-0.097h-0.146v-0.474h0.278v-0.091h-0.174
	v-0.695h-0.09v0.236h-0.32v-3.381l0.059-0.059V33.1h-0.071v-0.278h-0.204v0.26h-0.093v-0.39h0.102V32.39h0.051v-0.292h-0.088V31.88
	h0.102v-0.125l-0.264-0.241h-0.246v-0.236h-0.106l-0.121-0.241v-0.283H14.01v0.288l-0.102,0.24h-0.121v0.362h-3.044l-0.223,0.148
	v0.271l-0.136,0.136l0.003,0.219v0.338h-0.236v0.615h-0.118v0.159h0.097v0.759v2.817h-1l-0.127-1.955v-0.41h0.035v-0.153H9.004
	l-0.058-1.006l-0.059,1.006H8.854v0.153h0.034v0.41L8.76,37.106h-1v-2.817V33.53h0.098v-0.159H7.74v-0.615H7.504v-0.338l0.003-0.219
	l-0.136-0.136v-0.271l-0.223-0.148H4.104v-0.362H3.984l-0.102-0.24v-0.288H3.826v0.283l-0.121,0.241H3.599v0.236H3.353l-0.264,0.241
	v0.125h0.102v0.218H3.103v0.292h0.051v0.302h0.102v0.39H3.163v-0.26H2.959V33.1H2.888v0.637l0.059,0.059v3.381h-0.32v-0.236h-0.09
	v0.695H2.363v0.091h0.278v0.474H2.495v0.097h0.153v0.229h0.046v1.071H2.648v0.288H2.56v0.102l0.13,0.153v0.793l-0.167,0.13v0.153
	h0.079v0.798H2.417v-0.26H2.3v4.214H1.916v-0.201H1.21v-0.77H1.075v-1.499H0.555v1.499H0V50h100v-9.274H99.622z M30.082,47.875
	h0.126v0.764h-0.126V47.875z M30.914,46.808h0.134v0.105h-0.134V46.808z M30.914,46.707v-0.104h0.134v0.104H30.914z M30.914,46.501
	v-0.104h0.134v0.104H30.914z M30.914,46.296V46.19h0.134v0.105H30.914z M30.914,46.09v-0.105h0.134v0.105H30.914z M30.914,45.884
	v-0.104h0.134v0.104H30.914z M30.914,45.679v-0.105h0.134v0.105H30.914z M30.914,45.473v-0.105h0.134v0.105H30.914z M31.048,45.267
	h-0.134v-0.104h0.134V45.267z M30.914,47.014h0.134v0.097h-0.134V47.014z M43.232,30.288h2.425c0,0,0.213,2.172,1.089,6.415h-4.603
	C43.02,32.46,43.232,30.288,43.232,30.288z M44.445,40.918c0,0,5.59,0.062,6.792,5.756h-0.648v-0.27h-2.755v0.27h-1.008v-3.73
	h-0.202v-0.185h-2.201v0.185h-0.823v4.335h-0.655v-3.125h-0.118v-0.135h-0.118v-0.218h-0.538v0.218H41.6v0.135h-0.672v1.764H38.76
	v1.059h-1.166C38.658,40.981,44.445,40.918,44.445,40.918z M29.607,44.332h0.048v-0.327h0.059v-0.094h-0.107
	c0.172-1.523,1.594-1.546,1.594-1.546c0.033,0.056,0.112,0.046,0.112,0.046s0.078,0.01,0.111-0.046c0,0,1.421,0.022,1.594,1.546
	h-0.106v0.094h0.058v0.327h0.048v3.278c-0.098,0.098-0.157,0.155-0.157,0.155h0.157v0.556l-0.067,0.102v0.191h-0.188v-0.517v-0.832
	h-0.328v0.832h-0.059v-3.911h-1.327v0.874h-0.134v-0.117h-0.706v2.419h-0.126v-0.177h-0.378v1.453h-0.03v-0.216l-0.067-0.102V44.332
	z"/>
</svg>
