<?xml version="1.0" encoding="utf-8"?>
<!-- Generator: Adobe Illustrator 16.0.4, SVG Export Plug-In . SVG Version: 6.00 Build 0)  -->
<!DOCTYPE svg PUBLIC "-//W3C//DTD SVG 1.1//EN" "http://www.w3.org/Graphics/SVG/1.1/DTD/svg11.dtd" [
	<!ENTITY ns_extend "http://ns.adobe.com/Extensibility/1.0/">
	<!ENTITY ns_ai "http://ns.adobe.com/AdobeIllustrator/10.0/">
	<!ENTITY ns_graphs "http://ns.adobe.com/Graphs/1.0/">
	<!ENTITY ns_vars "http://ns.adobe.com/Variables/1.0/">
	<!ENTITY ns_imrep "http://ns.adobe.com/ImageReplacement/1.0/">
	<!ENTITY ns_sfw "http://ns.adobe.com/SaveForWeb/1.0/">
	<!ENTITY ns_custom "http://ns.adobe.com/GenericCustomNamespace/1.0/">
	<!ENTITY ns_adobe_xpath "http://ns.adobe.com/XPath/1.0/">
]>
<svg version="1.1" id="Layer_1" xmlns:x="&ns_extend;" xmlns:i="&ns_ai;" xmlns:graph="&ns_graphs;"
	 xmlns="http://www.w3.org/2000/svg" xmlns:xlink="http://www.w3.org/1999/xlink" x="0px" y="0px" width="100px" height="50px"
	 viewBox="0 0 100 50" enable-background="new 0 0 100 50" xml:space="preserve">
<metadata>
	<sfw  xmlns="&ns_sfw;">
		<slices></slices>
		<sliceSourceBounds  x="-87.461" y="-39.826" height="76.579" width="186.961" bottomLeftOrigin="true"></sliceSourceBounds>
	</sfw>
</metadata>
<path fill="#231F20" d="M-86.903,90.326l-0.058-0.013c0.021-0.016,0.038-0.034,0.058-0.053V90.326z"/>
<path fill="#231F20" d="M99.668,42.424l0.162-0.096v-0.11l0.17-0.097V41.98h-0.414v-0.185h-0.111v-0.214l0.164-0.117V41.31
	l0.052-0.072h0.042v-0.265h-0.377v0.062H99.18v-0.062h-0.378v0.062h-0.174v-0.062H98.25v0.062h-0.176v-0.062h-0.377v0.062h-0.176
	v-0.062h-0.378v0.062h-0.175v-0.062H96.59v0.062h-0.174v-0.062h-0.377v0.062h-0.176v-0.062h-0.378v0.062h-0.173v-0.062h-0.378v0.062
	h-0.176v-0.062h-0.378v0.062h-0.274v0.085h-0.134v-0.197l0.134-0.078v-0.526l0.255-0.266l0.163-0.006l0.077-0.103l-0.171-0.143
	l-0.324,0.3l-0.149-0.217v-0.205h0.125v-0.153H93.9l-0.074-0.073v-0.394H93.9v-0.123c0,0-0.474,0-0.492,0c-0.02,0,0,0.113,0,0.113
	h-0.291v0.089h-1.445v-0.091h-0.25v-0.062h-0.456v0.062h-0.304l-0.019-0.096l-0.179-0.03l0.129-0.37l-0.05-0.154l-0.157-0.115
	l0.035-0.034l0.214,0.034l0.101-0.056l0.151-0.052l0.03-0.086l-0.188-0.104l-0.099-0.176l-0.126-0.044l-0.12,0.146l-0.101-0.074
	l0.082-0.219l-0.155-0.063l-0.2,0.289l-0.18,0.021l0.01-0.233l-0.131-0.066l0.068-0.273l-0.148-0.11l0.109-0.05l-0.025-0.166
	l0.095-0.108l-0.034-0.06l-0.292,0.15l-0.014-0.073l-0.058-0.034l-0.091,0.125l-0.04-0.259l-0.126-0.127v-0.059l-0.03-0.021
	l-0.033,0.021v0.059l-0.124,0.127l-0.042,0.259l-0.09-0.125l-0.057,0.034l-0.016,0.073l-0.289-0.15l-0.037,0.06l0.098,0.108
	l-0.029,0.166l0.111,0.05l-0.146,0.11l0.068,0.273l-0.134,0.066l0.012,0.233l-0.18-0.021l-0.202-0.289l-0.154,0.063l0.084,0.219
	l-0.102,0.074l-0.12-0.146l-0.128,0.044l-0.1,0.176l-0.187,0.104l0.032,0.086l0.15,0.052l0.102,0.056l0.214-0.034l0.032,0.034
	l-0.156,0.115l-0.049,0.154l0.131,0.37l-0.18,0.03l-0.021,0.096h-0.302v-0.062h-0.457v0.062h-0.25v0.091h-1.445v-0.089H84.84
	c0,0,0.021-0.113,0-0.113c-0.02,0-0.49,0-0.49,0v0.123h0.072v0.394l-0.072,0.073h-0.182v0.153h0.122v0.205l-0.147,0.217l-0.324-0.3
	l-0.174,0.143l0.08,0.103l0.162,0.006l0.256,0.266v0.526l0.132,0.078v0.197H84.16v-0.14h-0.378v0.055h-0.175v-0.055h-0.376v0.055
	h-0.176v-0.055h-0.378v0.055h-0.176v-0.055h-0.312l0.174-0.174l0.015-0.249l-0.07-0.082V40.29h0.274l0.092-0.07v-0.103h-0.694
	v-0.244h-0.317l-0.479-21.629l-0.53-1.428l0.062-0.313l0.23-0.225l-0.08-0.184l-0.178-0.067l-0.211-0.272v-0.286l0.047-0.109
	l-0.014-0.251l-0.129-0.116v-0.591h0.464v-0.163h-0.464v-0.491h-0.094h-0.098v0.491h-0.461v0.163h0.461v0.591l-0.127,0.116
	l-0.016,0.251l0.049,0.109v0.286l-0.211,0.272l-0.178,0.067l-0.082,0.184l0.232,0.225l0.062,0.313l-0.53,1.428l-0.48,21.629h-0.207
	v-0.252h0.158v-0.214h-0.158v-0.204h-0.244l-0.15-0.146h-0.525v0.198h-1.146l-0.176-0.167h-1.571v-0.585l-0.456-0.569h-1.08v-0.229
	h-0.858v0.243h-0.228v0.235h-0.85l-0.35,0.661h-0.54v-0.106h-0.112v0.114l-1.027,0.145h-1.413l-0.235-0.145h-0.342v-0.316h0.096
	v-0.241l-0.283-0.101v-0.309h-0.18v0.286l-1.43-0.55v-0.177h-0.078v-0.302h-0.286v-0.426l0.078-0.192v-0.247l-0.169-0.225v-0.116
	h-0.226l-0.038,0.186l-0.116,0.131v0.178l0.085,0.147l-0.022,0.154l-0.116-0.246h-0.232l-0.123,0.092l-0.24-0.046l-0.455-0.758
	v-0.107l-0.186-0.171v-0.077l-0.225-0.07l-0.162,0.059v0.077l-0.182,0.158v0.128l-0.548,0.784v-0.532h0.034v-0.252h-0.309v-0.337
	h0.092v-0.247h0.108v-0.247l-0.101-0.092v-0.186h0.047v-0.078l-0.082-0.08h-0.064c0,0,0.045-0.452-0.309-0.848
	c-0.357-0.394-0.588-0.455-0.588-0.455v-0.079h-0.063v-0.261h-0.069v-0.287h0.047v-0.085l-0.047-0.069c0,0,0.008-0.158-0.097-0.271
	s-0.192-0.229-0.192-0.229v-0.058l-0.042-0.034v-0.059l-0.004-0.047l0.03-0.185h0.076v-0.069H60.75l-0.03-0.29h-0.044h-0.044
	l-0.028,0.29h-0.076v0.069h0.076l0.028,0.185l-0.002,0.047v0.059l-0.042,0.034v0.058c0,0-0.09,0.116-0.194,0.229
	c-0.104,0.112-0.096,0.271-0.096,0.271l-0.048,0.069v0.085h0.048v0.287h-0.07v0.261h-0.062v0.079c0,0-0.232,0.062-0.588,0.455
	c-0.354,0.396-0.309,0.848-0.309,0.848h-0.064l-0.082,0.08v0.078h0.045v0.186l-0.099,0.092v0.247h0.106v0.247h0.094v0.156h-0.316
	v0.207h-0.094v-2.001h0.062v-0.154h-0.093v-0.109v-0.116h0.124v-0.13h0.045v-0.094l-0.116-0.123h-0.106v0.046h-0.441V33.04H58.18
	v-0.672l0.186-0.187v-0.084h-0.132c0,0-0.216-2.335-1.405-3.51c-1.191-1.174-1.888-1.515-1.888-1.515V26.74H54.59v-0.938l0.07-0.208
	v-0.055l-0.105-0.046l-0.196-0.332h0.03v-0.693h-0.217v0.163c0,0-0.289-0.344-0.39-0.614s-0.124-0.382-0.124-0.382v-0.136h-0.086
	v-0.197c0,0,0.13-0.068,0.13-0.236c0-0.167-0.185-0.29-0.185-0.29v-0.435h0.174v-0.068h-0.174V22.04h-0.047h-0.047v0.232H53.25
	v0.068h0.174v0.435c0,0-0.186,0.123-0.186,0.29c0,0.168,0.131,0.236,0.131,0.236v0.197h-0.084v0.136c0,0-0.025,0.111-0.127,0.382
	c-0.099,0.271-0.389,0.614-0.389,0.614v-0.163h-0.216v0.693h0.03l-0.196,0.332l-0.104,0.046v0.055l0.068,0.208v0.938H52v0.333
	c0,0-0.693,0.341-1.887,1.515c-1.188,1.175-1.406,3.51-1.406,3.51h-0.132v0.084l0.187,0.187v0.672h-0.155v0.077h-0.44v-0.046h-0.109
	l-0.116,0.123v0.094h0.047v0.13h0.123v0.116v0.109h-0.092v0.154h0.061v2.001H47.99v-0.207h-0.318v-0.156h0.093v-0.247h0.109v-0.247
	l-0.101-0.092v-0.186h0.046v-0.078l-0.08-0.08h-0.067c0,0,0.047-0.452-0.309-0.848c-0.355-0.394-0.586-0.455-0.586-0.455v-0.079
	h-0.062v-0.261h-0.069v-0.287h0.046v-0.085l-0.046-0.069c0,0,0.008-0.158-0.098-0.271c-0.103-0.112-0.192-0.229-0.192-0.229v-0.058
	l-0.044-0.034v-0.059l-0.002-0.047l0.031-0.185h0.076v-0.069H46.34l-0.031-0.29h-0.044h-0.044l-0.028,0.29h-0.079v0.069h0.079
	l0.028,0.185l-0.002,0.047v0.059l-0.042,0.034v0.058c0,0-0.09,0.116-0.193,0.229c-0.107,0.112-0.097,0.271-0.097,0.271l-0.048,0.069
	v0.085h0.048v0.287h-0.071v0.261h-0.061v0.079c0,0-0.231,0.062-0.587,0.455c-0.355,0.396-0.309,0.848-0.309,0.848h-0.067l-0.08,0.08
	v0.078h0.045v0.186l-0.099,0.092v0.247h0.107v0.247h0.094v0.337H44.55v0.252h0.034v0.532l-0.548-0.784v-0.128l-0.183-0.158v-0.077
	l-0.162-0.059l-0.223,0.07v0.077l-0.185,0.171v0.107l-0.456,0.758l-0.241,0.046l-0.124-0.092h-0.231l-0.117,0.246l-0.022-0.154
	l0.083-0.147v-0.178l-0.114-0.131l-0.04-0.186h-0.223v0.116l-0.17,0.225v0.247l0.076,0.192v0.426h-0.286v0.302h-0.076v0.177
	l-1.429,0.55v-0.286h-0.178v0.309l-0.128,0.044c-0.314-0.18-0.671-0.36-1.074-0.528c-2.124-0.893-5.044-1.396-5.044-1.396v-0.064
	c0,0-1.379-0.251-2.335-0.341c-0.958-0.09-2.003-0.04-2.003-0.04v0.591l-0.147,0.252h-0.688v-0.787h-0.397v0.316h-1.177v0.496
	h-1.719v-0.27h-0.446l-0.674-1.11h-2.115l-0.707-1.654l-0.389-0.356v-0.202l0.141-0.144v-1.769l-0.536-0.465l-0.929,0.141
	l-1.965-2.766l-0.634-0.315c0,0-3.415,1.166-5.718,4.135c-1.337,1.729-1.362,3.335-1.362,3.335l0.248,0.175v2.514l-0.325,1.021
	v0.357l0.194,0.698v1.103l-0.389,1.006l0.227,0.795v1.752L9.58,44.913v0.405l-0.162,0.13v0.535l0.259,0.292v2.094v0.373v0.105h-0.13
	l-0.193-0.236v-0.72L9.282,47.82v-3.312l0.052-0.05v-0.323l0.084-0.141v-0.064h0.07l0.031-0.103v-0.052H9.196v-0.228h0.025v-0.106
	l-0.086-0.063H9.067v-0.795l0.089-0.164v-0.067h0.055v-0.139H9.002v-0.135H8.937v-0.105H8.752V41.91H8.367v0.063H4.978H1.591V41.91
	H1.204v0.063H1.019v0.105H0.956v0.135h-0.21v0.139h0.055v0.067l0.09,0.164v0.795H0.822l-0.086,0.063v0.106h0.025v0.228H0.439v0.052
	l0.031,0.103h0.071v0.064l0.083,0.141v0.323l0.05,0.05v3.312l-0.071,0.071v0.72l-0.194,0.236H0.035v0.108h0.034v0.304L0,49.378
	v0.395h0.069V50h1.585v-1.08L1.62,48.824v-1.778c0,0,0.124-0.562,0.561-0.562c0.439,0,0.512,0.472,0.512,0.472v1.892L2.62,49.01V50
	h1.097v-1.927L3.765,48v-0.07H3.719v-1.547l0.112-0.1v-0.062h0.067v-0.102H3.73c0,0,0.067-0.437,0.359-0.802
	s0.799-0.371,0.799-0.371v0.049h0.09h0.091v-0.049c0,0,0.508,0.006,0.799,0.371c0.292,0.365,0.359,0.802,0.359,0.802H6.06v0.102
	h0.066v0.062l0.112,0.1v1.547H6.193V48l0.045,0.073V50h1.099v-0.99l-0.073-0.162v-1.892c0,0,0.073-0.472,0.512-0.472
	c0.437,0,0.561,0.562,0.561,0.562v1.778L8.303,48.92V50H100v-0.924l-0.228-0.343l0.108-0.1v-0.138l-0.242-0.373v-4.652l0.154-0.066
	v-0.236h-0.162v-0.17l0.096-0.051v-0.096h-0.125v-0.296L99.668,42.424z M13.441,32.001l0.534-0.357v0.94l-0.534,0.277V32.001z
	 M11.104,34.239l0.212-0.211v0.778l-0.212,0.18V34.239z M10.797,44.117v-1.58c0,0-0.074-0.787,0.185-0.958
	c0.26-0.17,0.285,0.535,0.285,0.535l0.057,1.745L10.797,44.117z M11.419,37.971v1.514l-0.477,0.347v-1.347
	c0,0-0.097-0.838,0.206-0.979C11.451,37.365,11.419,37.971,11.419,37.971z M12.459,43.461l-0.811,0.31v-1.753
	c0,0,0.033-0.974,0.397-1.054c0.366-0.082,0.414,0.624,0.414,0.624V43.461z M12.629,38.651l-0.811,0.584v-1.546
	c0,0,0.065-0.865,0.412-1.093c0.345-0.227,0.399,0.53,0.399,0.53V38.651z M14.008,42.935l-1.055,0.373v-1.802c0,0,0-1.086,0.519-1.2
	c0.521-0.113,0.537,0.683,0.537,0.683V42.935z M14.153,37.852l-1.015,0.605v-1.687c0,0,0.053-0.778,0.486-1.146
	c0.431-0.368,0.528,0.41,0.528,0.41V37.852z M16.231,42.464l-1.477,0.324v-1.963c0,0,0.082-1.168,0.746-1.266
	c0.666-0.097,0.731,0.764,0.731,0.764V42.464z M16.36,36.986l-1.482,0.616v-1.827c0,0,0.033-0.877,0.64-1.146
	c0.604-0.271,0.843,0.411,0.843,0.411V36.986z M19.07,41.993l-1.931,0.325v-2.191c0,0,0.145-1.005,0.94-1.268
	c0.796-0.263,0.99,0.798,0.99,0.798V41.993z M19.173,36.187l-1.916,0.486v-1.871c0,0,0.044-0.865,0.778-1.136
	c1.011-0.372,1.137,0.509,1.137,0.509V36.187z M22.59,41.636l-2.337,0.244v-2.353c0,0,0.114-1.216,1.152-1.313
	c1.038-0.098,1.185,0.973,1.185,0.973V41.636z M26.806,40.198v1.157l-1.383,0.076l-0.498-1.45c0,0,0.141-0.725,0.864-0.725
	C26.837,39.257,26.806,40.198,26.806,40.198z M30.333,41.788h-1.2h-1.211v-1.601c0,0,0.086-1.168,1.211-1.136
	c1.124,0.033,1.2,1.081,1.2,1.081V41.788z M37.193,37.603l0.321,0.129v0.909l-0.325-0.129L37.193,37.603z M33.383,36.771l0.658,0.15
	v0.92l-0.658-0.087V36.771z M34.495,41.441v1.119h-1.377v-1.184c0,0,0-0.974,0.729-0.974C34.578,40.403,34.495,41.441,34.495,41.441
	z M35.144,39.512c0,0,0.019-0.506,0.641-0.446c0.422,0.04,0.512,0.568,0.512,0.568v0.964l-1.152-0.26V39.512z M36.363,43.704
	c-0.349-0.035-0.721-0.067-1.122-0.097v-2.124c0,0-0.112-0.642,0.536-0.642c0.649,0,0.584,0.778,0.584,0.778L36.363,43.704z
	 M37.903,43.893c-0.294-0.044-0.612-0.086-0.959-0.126v-2.034c0,0-0.097-0.64,0.458-0.64c0.557,0,0.502,0.779,0.502,0.779V43.893z
	 M39.156,44.115c-0.223-0.048-0.471-0.095-0.746-0.143v-1.948c0,0-0.076-0.606,0.357-0.606c0.431,0,0.389,0.737,0.389,0.737V44.115z
	 M46.2,32.636h0.065h0.067v0.486h-0.067H46.2V32.636z M46.567,36.364h-0.302h-0.301c0,0,0-0.448,0-0.728
	c0-0.278,0.301-0.309,0.301-0.309s0.302,0.03,0.302,0.309C46.567,35.916,46.567,36.364,46.567,36.364z M60.61,32.636h0.065h0.066
	v0.486h-0.066H60.61V32.636z M60.977,36.364h-0.301h-0.301c0,0,0-0.448,0-0.728c0-0.278,0.301-0.309,0.301-0.309
	s0.301,0.03,0.301,0.309C60.977,35.916,60.977,36.364,60.977,36.364z M69.41,47.552v0.374h-1.488v-0.374h0.136v-0.197h-0.069v-0.137
	l-0.047-0.05l-0.05-6.297l0.166-0.073v-0.114l0.091-0.057v-0.22h1.035v0.22l0.089,0.057v0.114l0.169,0.073l-0.051,6.297l-0.049,0.05
	v0.137h-0.069v0.197H69.41z M71.553,47.552v0.374h-1.49v-0.374h0.137v-0.197h-0.068v-0.137l-0.047-0.05l-0.052-6.297l0.167-0.073
	v-0.114l0.093-0.057v-0.22h1.032v0.22l0.092,0.057v0.114l0.167,0.073l-0.05,6.297l-0.049,0.05v0.137h-0.068v0.197H71.553z
	 M73.695,47.552v0.374h-1.49v-0.374h0.138v-0.197h-0.069v-0.137l-0.049-0.05l-0.05-6.297l0.168-0.073v-0.114l0.091-0.057v-0.22
	h1.033v0.22l0.092,0.057v0.114l0.168,0.073l-0.051,6.297l-0.049,0.05v0.137h-0.068v0.197H73.695z M75.836,47.552v0.374h-1.488
	v-0.374h0.138v-0.197h-0.069v-0.137l-0.049-0.05l-0.05-6.297l0.168-0.073v-0.114l0.091-0.057v-0.22h1.033v0.22l0.092,0.057v0.114
	l0.165,0.073l-0.05,6.297l-0.047,0.05v0.137h-0.068v0.197H75.836z M77.979,47.552v0.374H76.49v-0.374h0.138v-0.197h-0.069v-0.137
	l-0.049-0.05l-0.051-6.297l0.169-0.073v-0.114l0.089-0.057v-0.22h1.035v0.22l0.091,0.057v0.114l0.167,0.073l-0.051,6.297
	l-0.047,0.05v0.137h-0.069v0.197H77.979z M90.775,48.562H90.02l0.184-0.197l-0.111-0.226l0.068-0.189l-0.039-0.315L89.9,47.445
	l0.047-0.095l-0.136-0.112l-0.302-0.065L89.438,46.9l0.042-0.125l-0.118-0.354l-0.148-0.201v-0.185l0.053-0.089l-0.053-0.142h-0.218
	l-0.067,0.106l0.037,0.095l0.03,0.035l-0.024,0.078l-0.084,0.028l-0.277,0.066l-0.208,0.183l-0.06,0.386l0.107,0.111l0.141,0.066
	l-0.07,0.391l-0.344,0.415l-0.029,0.153l-0.065,0.397l-0.071,0.245h-0.535v-3.185l0.112-0.061v-0.271l0.151-0.047v-0.089h-0.061
	c0,0-0.016-1.041,1.214-1.232v0.042l0.233,0.054l0.23-0.054v-0.042c1.232,0.191,1.213,1.232,1.213,1.232H90.51v0.089l0.15,0.047
	v0.271l0.115,0.061V48.562z"/>
</svg>
