<?xml version="1.0" encoding="utf-8"?>
<!-- Generator: Adobe Illustrator 16.0.4, SVG Export Plug-In . SVG Version: 6.00 Build 0)  -->
<!DOCTYPE svg PUBLIC "-//W3C//DTD SVG 1.1//EN" "http://www.w3.org/Graphics/SVG/1.1/DTD/svg11.dtd" [
	<!ENTITY ns_extend "http://ns.adobe.com/Extensibility/1.0/">
	<!ENTITY ns_ai "http://ns.adobe.com/AdobeIllustrator/10.0/">
	<!ENTITY ns_graphs "http://ns.adobe.com/Graphs/1.0/">
	<!ENTITY ns_vars "http://ns.adobe.com/Variables/1.0/">
	<!ENTITY ns_imrep "http://ns.adobe.com/ImageReplacement/1.0/">
	<!ENTITY ns_sfw "http://ns.adobe.com/SaveForWeb/1.0/">
	<!ENTITY ns_custom "http://ns.adobe.com/GenericCustomNamespace/1.0/">
	<!ENTITY ns_adobe_xpath "http://ns.adobe.com/XPath/1.0/">
]>
<svg version="1.1" id="Layer_1" xmlns:x="&ns_extend;" xmlns:i="&ns_ai;" xmlns:graph="&ns_graphs;"
	 xmlns="http://www.w3.org/2000/svg" xmlns:xlink="http://www.w3.org/1999/xlink" x="0px" y="0px" width="100px" height="50px"
	 viewBox="0 0 100 50" enable-background="new 0 0 100 50" xml:space="preserve">
<metadata>
	<sfw  xmlns="&ns_sfw;">
		<slices></slices>
		<sliceSourceBounds  x="-87.461" y="-39.826" height="76.376" width="186.961" bottomLeftOrigin="true"></sliceSourceBounds>
	</sfw>
</metadata>
<path fill="#231F20" d="M-86.903,90.326l-0.058-0.013c0.021-0.016,0.038-0.034,0.058-0.053V90.326z"/>
<g>
	<g>
		<path fill="#0D0C0C" d="M53.289,31.721v0.002h0.062l0,0L53.289,31.721z"/>
		<path fill="#0D0C0C" d="M52.312,35.8c-0.233,2.202-0.497,4.53-0.744,6.647c-0.05,0.438-0.101,0.865-0.15,1.281
			c-0.414,3.508-0.748,6.174-0.758,6.246L50.657,50H0V33.127h4.057v1.768h2.606v-3.149h2.738v2.884h1.414v-2.341h3.754v-2.649h4.947
			v4.549h1.369v-1.369h3.224V22.471l4.771,1.116v9.144h0.928v-3.402h3.445v2.258h1.237v-1.418h0.971v-0.883h0.928v-1.281
			l1.149-1.192h1.148l1.458,1.237v4.283h3.755v-3.4h0.75v-3.049h4.063v2.431h0.663v8.878h0.567v1.457h0.912V35.8H52.312z"/>
		<path fill="#0D0C0C" d="M100,36.529V50H56.822l-0.446-2.939c-0.004-0.045-0.134-1.371-0.312-3.332
			c-0.037-0.402-0.075-0.831-0.115-1.281c-0.423-4.757-0.998-11.869-0.941-14.73c0.011-0.562,0.035-1.107,0.069-1.625l1.321,0.027
			v6.258l1.06,1.127v-2.761h0.972v-2.651h3.667v3.977h0.22v4.461H63.2v-7.555h0.265v-3.047h0.795l1.192-1.325l1.017,1.634h0.795
			v3.224h1.768v2.18h0.751v4.551h3.185l0.646,0.646v-3.479l0.585-0.586h2.738l0.398,0.311v1.943h0.221v0.994h2.87v1.766h2.254v5.322
			h1.28v-4.062h0.573v-3.025h1.236v1.523h1.105v-1.061h2.298v-2.98c0,0,3.4-0.023,3.4,0c0,0.021,0,3.025,0,3.025s2.021,0,3.354,0
			h1.235v7.221h0.225v-5.72h1.104v-1.501H100z"/>
		<path fill="#0D0C0C" d="M97.163,39.514v-1.976C97.212,38.075,97.203,38.776,97.163,39.514z"/>
	</g>
	<g>
		<g>
			<path fill="#0D0C0C" d="M53.289,31.721v0.002h0.062l0,0L53.289,31.721z M53.11,31.723h0.004v-0.023L53.11,31.723z"/>
			<path fill="#0D0C0C" d="M58.287,18.955v-0.203h-0.78v-0.427h-0.472v-0.479l-1.914-0.589V16.91l0.311-0.248h-0.192v-0.334
				l-1.03-0.397v-1.98l-0.176,1.946H53.8v0.324h-0.647v0.413h-0.382l0.293,0.188v0.46h-0.662v0.273l-1.104,0.265v0.558l-1.267,0.382
				v0.152h1.208v0.651h-0.428v0.365h1.498l0.004,0.026c0.006,0.04,0.599,3.955,0.751,7.056c0.059,1.185-0.265,4.782-0.689,8.79
				c-0.068,0.648-0.139,1.307-0.212,1.967c-0.009,0.081-0.018,0.162-0.026,0.243c-0.167,1.507-0.339,3.019-0.505,4.438
				c-0.051,0.438-0.101,0.865-0.15,1.281c-0.392,3.319-0.712,5.887-0.754,6.219h0.265v-0.498l0.642-5.721l0.144-1.281l0.324-2.896
				l0.199-1.542l0.032-0.243l0.253-1.967l0.525-4.076l0.004-0.023l0.038-0.295l0.035-0.273h0.406v3.874l0.077,2.761h-0.062
				l-0.077-2.76v-3.812h-0.288l-0.027,0.211l-0.042,0.318l-0.069,0.543l-0.456,3.533l-0.254,1.967l-0.031,0.243l-0.2,1.55
				l-0.324,2.889l-0.144,1.281l-0.642,5.724v0.495h0.228c0.035-0.305,0.335-2.985,0.695-6.219h1.418l0.022,6.219h0.533l-0.174-6.219
				l-0.037-1.281l-0.123-4.438h0.062l0.124,4.438l0.036,1.281l0.174,6.219h0.434l-0.032-3.657h0.885
				c0.089,1.979,0.152,3.43,0.163,3.657h1.29l-0.437-2.879c-0.005-0.045-0.135-1.375-0.313-3.34
				c-0.036-0.402-0.075-0.832-0.115-1.281c-0.423-4.758-0.997-11.869-0.941-14.731c0.012-0.563,0.035-1.106,0.07-1.626
				c0.235-3.591,0.939-6.039,0.947-6.067L55.969,20h1.449v-0.306h-0.544l0.289-0.739H58.287z M52.854,35.799
				c0.083-0.76,0.159-1.461,0.225-2.068c0.099-0.915,0.173-1.621,0.211-2.008v-0.002l0.062,0.002l0,0l0.021,6.043h-0.734
				C52.713,37.08,52.785,36.42,52.854,35.799z M52.119,42.447c0.163-1.47,0.333-3.001,0.492-4.438h0.763l0.016,4.438H52.119z
				 M54.159,25.266h-0.452c0,0.287-0.003,0.557-0.009,0.797c-0.019,0.662-0.065,1.103-0.158,1.103s-0.19-0.444-0.284-1.112
				c-0.033-0.237-0.065-0.503-0.098-0.787h-0.192v-0.244h0.165c-0.228-2.122-0.408-5.057-0.408-5.057h0.817
				c0,0,0.153,2.935,0.166,5.057h0.453V25.266z M54.291,32.354c0,0,0.166-1.546,0.32,0.1c0.018,0.181,0.041,0.538,0.069,1.026h-0.38
				L54.291,32.354z M54.303,33.724h0.393c0.028,0.507,0.062,1.13,0.098,1.833h-0.474L54.303,33.724z M54.323,35.998h0.492
				c0.024,0.48,0.05,0.992,0.075,1.525h-0.554L54.323,35.998z M55.281,45.914H54.41l-0.016-1.811h0.805
				C55.228,44.735,55.255,45.344,55.281,45.914z M55.123,42.447c0.02,0.434,0.039,0.861,0.06,1.281h-0.792l-0.011-1.281
				l-0.004-0.331h0.732C55.113,42.227,55.118,42.336,55.123,42.447z M55.093,41.785h-0.719l-0.015-1.701h0.653
				C55.04,40.648,55.066,41.219,55.093,41.785z M54.999,39.775h-0.644l-0.015-1.767h0.574C54.942,38.581,54.97,39.174,54.999,39.775
				z M54.799,24.228c-0.75,2.938-0.86-4.263-0.86-4.263h1.523C55.462,19.965,55.551,21.29,54.799,24.228z"/>
			<path fill="#0D0C0C" d="M53.289,31.721v0.002h0.062l0,0L53.289,31.721z M53.289,31.721v0.002h0.062l0,0L53.289,31.721z"/>
		</g>
		<g>
			<polygon fill="#0D0C0C" points="53.114,31.699 53.114,31.723 53.111,31.723 			"/>
			<rect x="53.32" y="31.692" fill="#0D0C0C" width="0" height="0.062"/>
		</g>
	</g>
</g>
</svg>
