<?xml version="1.0" encoding="utf-8"?>
<!-- Generator: Adobe Illustrator 16.0.4, SVG Export Plug-In . SVG Version: 6.00 Build 0)  -->
<!DOCTYPE svg PUBLIC "-//W3C//DTD SVG 1.1//EN" "http://www.w3.org/Graphics/SVG/1.1/DTD/svg11.dtd" [
	<!ENTITY ns_extend "http://ns.adobe.com/Extensibility/1.0/">
	<!ENTITY ns_ai "http://ns.adobe.com/AdobeIllustrator/10.0/">
	<!ENTITY ns_graphs "http://ns.adobe.com/Graphs/1.0/">
	<!ENTITY ns_vars "http://ns.adobe.com/Variables/1.0/">
	<!ENTITY ns_imrep "http://ns.adobe.com/ImageReplacement/1.0/">
	<!ENTITY ns_sfw "http://ns.adobe.com/SaveForWeb/1.0/">
	<!ENTITY ns_custom "http://ns.adobe.com/GenericCustomNamespace/1.0/">
	<!ENTITY ns_adobe_xpath "http://ns.adobe.com/XPath/1.0/">
]>
<svg version="1.1" id="Layer_1" xmlns:x="&ns_extend;" xmlns:i="&ns_ai;" xmlns:graph="&ns_graphs;"
	 xmlns="http://www.w3.org/2000/svg" xmlns:xlink="http://www.w3.org/1999/xlink" x="0px" y="0px" width="100px" height="50px"
	 viewBox="0 0 100 50" enable-background="new 0 0 100 50" xml:space="preserve">
<metadata>
	<sfw  xmlns="&ns_sfw;">
		<slices></slices>
		<sliceSourceBounds  x="-0.5" y="0.5" height="40.28" width="100" bottomLeftOrigin="true"></sliceSourceBounds>
	</sfw>
</metadata>
<path fill-rule="evenodd" clip-rule="evenodd" fill="#231F20" d="M57.795,31.358l-0.104,10.141l-4.334-0.051l-0.026-1.91
	l-1.213-0.671l-1.315,0.567l0.025,0.388l-0.104,1.626l-1.677,0.129l-0.581,0.296l-0.013-1.496l-1.341-0.052L46.79,40.48l-0.31-0.581
	l0.026-6.193c0,0,0.051-0.516,0.013-0.619c-0.039-0.104-0.993-0.503-1.071-0.478c-0.078,0.026-0.994,0.361-0.994,0.361
	s-0.09,0.142-0.129,0.271c-0.039,0.129,0.103,0.478,0.116,0.555c0.013,0.077-0.039,6.386-0.039,6.386l-0.658,1.032l-0.013-3.496
	l-1.213-1.148l-0.02-2.529l-0.194-0.032l-0.058-2.264h-0.149l-0.026,2.335l-1.032,0.787l-0.4,0.193l-0.052-0.567
	c0,0-1.407-0.104-1.51-0.129c-0.104-0.026-1.097,0.528-1.097,0.528l-0.032,0.948c0,0-0.032-0.013-0.181-0.097
	c-0.148-0.083-0.413-0.064-0.413-0.064l-0.019-0.154c0,0,0.071-0.084,0.051-0.239c-0.02-0.154-0.077-0.167-0.077-0.167l0.019-0.291
	c0,0,0.058-0.226,0.026-0.329c-0.032-0.103-0.135-0.135-0.135-0.135l-0.013-1l-0.167-0.013l-0.026,1.006
	c0,0-0.116,0.052-0.161,0.168c-0.045,0.116,0.077,0.238,0.077,0.238l0.006,0.265c0,0-0.109,0.077-0.109,0.193s0.103,0.22,0.103,0.22
	l0.013,0.258c0,0-0.348,0.059-0.516,0.155s-0.413,0.412-0.413,0.412s-0.665,0.13-0.697,0.194c-0.033,0.064,0.142,0.251,0.142,0.251
	l-0.723,0.013l-0.077,0.452l-0.684,0.039l-0.051,3.083l-0.419-0.011l-0.052-1.292l-0.277-0.026l-0.045-1.032l-2.594-0.025
	l-0.348,0.168l-0.013,8.463l-1.303-0.09l-0.465-0.542l-0.658-0.091l-0.929-1.496c0,0,0.039-0.329-0.058-0.49
	s-0.277-0.155-0.277-0.155l-1.161-1.967c0,0,0.064-0.065,0.207-0.271c0.142-0.206,0.645-1.303,0.426-2.413
	c-0.22-1.109-0.942-0.98-0.942-0.98l-0.013-11.031c0,0,0.4-0.154,0.671-0.723c0.271-0.567,0.329-1.535,0-2.122s-0.981-0.8-0.981-0.8
	l-0.045-0.819c0,0,0.129-0.181,0.129-0.381s-0.11-0.226-0.11-0.226l-0.036-1.742c0,0,0.352-0.445,0.284-0.761
	c-0.068-0.316-0.207-0.436-0.207-0.436v-0.081c0,0,0.142-0.193,0.097-0.307c-0.045-0.112-0.222-0.203-0.222-0.203l-0.02-1.636
	c0,0,0-0.003,0.032-0.038c0.032-0.036,0.1-0.171,0.071-0.268c-0.029-0.097-0.116-0.194-0.116-0.194l-0.013-0.038l-0.006-2.017
	c0,0,0.019-0.022,0.048-0.061c0.029-0.039,0.051-0.2,0.039-0.269c-0.013-0.067-0.116-0.129-0.116-0.129L24.443,9.72h-0.158
	l-0.084,4.067c0,0-0.103,0.039-0.136,0.142c-0.032,0.104,0.084,0.227,0.084,0.227l-0.006,2.135c0,0-0.136,0.052-0.181,0.168
	c-0.045,0.116,0.039,0.226,0.071,0.265c0.032,0.038-0.013,1.735-0.013,1.735s-0.136,0.025-0.22,0.181
	c-0.084,0.154-0.006,0.167,0.052,0.231s0.013,0.143,0.013,0.143s-0.045,0.038-0.135,0.161c-0.091,0.123-0.142,0.303-0.091,0.529
	c0.052,0.226,0.239,0.438,0.239,0.438l-0.006,1.819c0,0-0.051,0.025-0.116,0.109c-0.064,0.084-0.051,0.084-0.051,0.213
	s0.109,0.174,0.109,0.174l-0.007,0.916c0,0-0.722,0.336-0.98,0.71c-0.258,0.374-0.593,0.877-0.348,1.69
	c0.245,0.812,0.632,0.98,0.632,0.98l-0.02,11.412c0,0-0.323,0.128-0.555,0.49c-0.232,0.361-0.452,0.812-0.387,1.393
	c0.064,0.581,0.232,0.981,0.232,0.981l-1.419,0.025l-0.078,5.354l-1.613-0.026l0.039-2.264l-0.935,0.006l-0.026,0.188l-0.464,0.013
	l-0.039,1.89h-0.922l-0.129-2.657l-2.077-0.787l-0.993-0.039c0,0-0.413-0.542-1.058-0.839s-1.162-0.181-1.162-0.181l0.065-1.013
	l-0.303-0.399l-0.02-1.13l-0.168-0.103l-0.025-0.697l-0.8-0.696l-0.071-1.471l-0.11,0.058l-0.019,0.723l-0.02,0.122l-0.026,0.478
	l-0.813,0.787l-0.013,0.685l-0.142,0.077l-0.026,1.29l-0.129,0.129l-0.013,1.716L7.8,42.861l-0.987,0.22c0,0-0.02,0.329-0.02,0.38
	c0,0.052,0.078,0.129,0.078,0.129s0.006,0.11,0.006,0.148c0,0.039,0.142,0.2,0.142,0.2s0.02,2.606,0.02,2.761l-0.902-0.104
	l-0.161-0.154c0,0-0.768-0.077-1.026,0.077l-0.8-0.052c0,0-0.335-0.671-0.722-0.902c-0.387-0.232-1.652-0.194-1.652-0.194
	s-1.226,0.143-1.574,0.349c-0.348,0.206-0.142,1.483-0.142,1.483V50H100v-2.798v-0.231v-6.567l-1.174-0.129l-0.297-0.207
	l-0.465,0.039l-0.078,0.735l-0.605,0.039l-0.297,0.245l-0.039-2.168l-0.348-0.4l-1.07,0.026L95.588,39.1l-0.607,0.064l0.023,0.274
	l-0.4,0.052l-0.035,0.604l-0.633,0.064l0.025,2.426l-0.566-0.052v-5.058l-0.904-0.155l-1.006,0.129l-0.207,0.98L90.84,38.48
	l0.076,1.109h-0.49c0,0-0.129,2.71-0.104,2.787c0.027,0.077-0.18,0.207-0.18,0.207l-0.748-0.155l-0.053-5.471l-1.289-0.696
	l-2.529-0.104l-0.025-4.31l-2.375-0.825l-3.096,0.464l0.025-1.522c0,0-0.852-0.283-2.426-0.206s-2.658,0.155-2.658,0.155
	l-0.076,15.817l-0.801-0.104l-0.104-1.393l-0.387-0.697l0.051-15.921l-0.902-0.438l-1.754,0.31l-0.646,0.206l0.053,5.6l-0.465-0.077
	l-0.078-5.367l-0.297-0.052c0,0-0.051-0.374-0.219-0.697c-0.168-0.322-0.645-0.58-0.645-0.58s-0.104-0.735-0.129-0.878
	c-0.027-0.142-0.143-0.181-0.143-0.181l-0.104-1.754l-0.09,1.754c0,0-0.104,0.143-0.143,0.22s-0.078,0.852-0.078,0.852
	s-0.348,0.206-0.592,0.451c-0.246,0.245-0.246,0.787-0.246,0.787l-0.336,0.116l-0.104,3.6l-0.051,1.664c0,0-0.711,0.375-0.773,0.4
	c-0.066,0.025-0.039,2.232-0.039,2.232s-1.305-0.555-1.768-0.529c-0.465,0.025-1.098,0.154-1.098,0.154l0.039-3.07
	c0,0-2.322,0.723-2.387,0.723S57.795,31.358,57.795,31.358L57.795,31.358z M24.199,27.074l0.02,0.961h-0.455v-0.942l-0.003-0.139
	L24.199,27.074L24.199,27.074z M24.173,29.184l0.006,0.8h-0.455v-0.942l-0.003-0.139L24.173,29.184L24.173,29.184z M24.122,30.989
	l0.007,0.801h-0.455v-0.942l-0.003-0.139L24.122,30.989L24.122,30.989z M24.147,32.783l0.006,0.8h-0.455v-0.941l-0.003-0.139
	L24.147,32.783L24.147,32.783z M24.159,34.692l0.006,0.8H23.71v-0.941l-0.003-0.139L24.159,34.692L24.159,34.692z M24.141,36.571
	c0.016,0.01,0.007,0.8,0.007,0.8s-0.4,0-0.417-0.003c-0.016-0.003-0.039-0.938-0.039-0.938l-0.003-0.139L24.141,36.571
	L24.141,36.571z M26.429,44.516l0.658,1.252c0,0-0.852,0.231-0.865,0.296c-0.013,0.065-1.329,0.078-1.329,0.078l-0.039-0.413
	c0,0,1.277-1.238,1.342-1.277l0.039-0.042c0,0,0.008,0.013,0.056,0.048C26.34,44.493,26.429,44.516,26.429,44.516L26.429,44.516z
	 M26.048,43.903l-0.003,0.241l-1.135,1.084l-0.052-3.174l0.003-0.19L26.048,43.903z"/>
</svg>
