<?xml version="1.0" encoding="utf-8"?>
<!-- Generator: Adobe Illustrator 16.0.4, SVG Export Plug-In . SVG Version: 6.00 Build 0)  -->
<!DOCTYPE svg PUBLIC "-//W3C//DTD SVG 1.1//EN" "http://www.w3.org/Graphics/SVG/1.1/DTD/svg11.dtd" [
	<!ENTITY ns_extend "http://ns.adobe.com/Extensibility/1.0/">
	<!ENTITY ns_ai "http://ns.adobe.com/AdobeIllustrator/10.0/">
	<!ENTITY ns_graphs "http://ns.adobe.com/Graphs/1.0/">
	<!ENTITY ns_vars "http://ns.adobe.com/Variables/1.0/">
	<!ENTITY ns_imrep "http://ns.adobe.com/ImageReplacement/1.0/">
	<!ENTITY ns_sfw "http://ns.adobe.com/SaveForWeb/1.0/">
	<!ENTITY ns_custom "http://ns.adobe.com/GenericCustomNamespace/1.0/">
	<!ENTITY ns_adobe_xpath "http://ns.adobe.com/XPath/1.0/">
]>
<svg version="1.1" id="Layer_1" xmlns:x="&ns_extend;" xmlns:i="&ns_ai;" xmlns:graph="&ns_graphs;"
	 xmlns="http://www.w3.org/2000/svg" xmlns:xlink="http://www.w3.org/1999/xlink" x="0px" y="0px" width="100px" height="50px"
	 viewBox="0 0 100 50" enable-background="new 0 0 100 50" xml:space="preserve">
<metadata>
	<sfw  xmlns="&ns_sfw;">
		<slices></slices>
		<sliceSourceBounds  x="-87.461" y="-39.826" height="66.306" width="186.961" bottomLeftOrigin="true"></sliceSourceBounds>
	</sfw>
</metadata>
<path fill="#231F20" d="M-86.903,90.326l-0.058-0.013c0.021-0.016,0.038-0.034,0.058-0.053V90.326z"/>
<path id="XMLID_592_" fill="#0D0C0C" d="M100,37.924h-0.68v-1.557h-3.837v1.557h-0.679v5.318h-2.766v-6.063h-0.852v-3.966h-0.613
	V29.68h-2.345v3.533h-0.612v3.966h-0.854v10.459h-0.535V34.992h-0.633v-0.764h-1.362V33.87h-0.825v-2.314h-0.307v2.314h-0.912v0.358
	h-1.362v0.764h-0.632v7.824l-1.92,0.434v-7.602l-4.924-3.814v16.615h-3.875v-3.837h2.238c-1.223-0.678-2.033-2.116-2.141-2.314
	l0.074-0.023c0,0,0.57-0.312,0.552-0.929c0,0-0.638,0.417-1.349,0.429h-1.373l0.613-0.179c0,0,2.52-0.846,2.964-1.327V40.04
	c0,0-1.96-0.388-3.618-1.331V37.64l0.348-0.102c0,0,2.189-0.734,2.574-1.152v-0.198c0,0-1.534-0.304-2.922-1.036v-1.208l0.1-0.029
	c0,0,2.082-0.698,2.449-1.097v-0.188c0,0-1.295-0.257-2.549-0.868V30.84c0.477-0.166,1.887-0.676,2.176-0.99v-0.18
	c0,0-2.429-0.48-3.768-1.703v-0.652H65.74c-0.031-0.086-0.096-0.153-0.178-0.187v-0.175c0.277-0.009,0.486-0.05,0.486-0.099
	c0-0.05-0.209-0.091-0.486-0.1v-0.127c0.277-0.009,0.486-0.05,0.486-0.1c0-0.049-0.209-0.09-0.486-0.099v-0.128
	c0.277-0.009,0.486-0.05,0.486-0.099c0-0.05-0.209-0.091-0.486-0.1v-0.127c0.277-0.009,0.486-0.05,0.486-0.1
	c0-0.049-0.209-0.09-0.486-0.099V25.65c0.277-0.009,0.486-0.05,0.486-0.099c0-0.05-0.209-0.091-0.486-0.1v-0.094h0.21
	c0.056,0,0.101-0.045,0.101-0.1c0-0.056-0.045-0.101-0.101-0.101h-0.21v-0.105c0.08-0.016,0.137-0.054,0.137-0.15
	c0-0.096-0.057-0.212-0.137-0.273v-0.142c0.08-0.015,0.137-0.054,0.137-0.149c0-0.137-0.111-0.317-0.248-0.317
	s-0.248,0.181-0.248,0.317c0,0.096,0.055,0.135,0.135,0.149v0.142c-0.08,0.062-0.135,0.178-0.135,0.273
	c0,0.097,0.055,0.135,0.135,0.15v0.105h-0.209c-0.055,0-0.1,0.045-0.1,0.101c0,0.055,0.045,0.1,0.1,0.1h0.209v0.094
	c-0.276,0.009-0.486,0.05-0.486,0.1c0,0.049,0.21,0.09,0.486,0.099v0.128c-0.276,0.009-0.486,0.05-0.486,0.099
	c0,0.05,0.21,0.091,0.486,0.1v0.127c-0.276,0.009-0.486,0.05-0.486,0.1c0,0.049,0.21,0.09,0.486,0.099v0.128
	c-0.276,0.009-0.486,0.05-0.486,0.099c0,0.05,0.21,0.091,0.486,0.1v0.127c-0.276,0.009-0.486,0.05-0.486,0.1
	c0,0.049,0.21,0.09,0.486,0.099v0.175c-0.082,0.033-0.146,0.101-0.177,0.187h-0.104v0.652c-1.34,1.223-3.77,1.703-3.77,1.703v0.18
	c0.291,0.314,1.7,0.824,2.176,0.99v0.921c-1.253,0.611-2.548,0.868-2.548,0.868v0.188c0.367,0.398,2.45,1.097,2.45,1.097
	l0.098,0.029v1.208c-1.387,0.732-2.922,1.036-2.922,1.036v0.198c0.387,0.418,2.575,1.152,2.575,1.152l0.347,0.102v1.069
	c-1.656,0.943-3.617,1.331-3.617,1.331v0.229c0.443,0.481,2.964,1.327,2.964,1.327l0.612,0.179h-1.373
	c-0.711-0.012-1.348-0.429-1.348-0.429c-0.019,0.616,0.551,0.929,0.551,0.929l0.074,0.026c-0.113,0.207-0.922,1.637-2.139,2.312
	h2.237v2.706h-8.15l-0.189-7.633l2.778,0.002v-0.876l-2.004-0.001l-0.462-0.453h-0.345l-0.01-0.396h0.354v-0.442
	c1.321-0.072,2.157-0.147,2.157-0.147l0.197-0.197l0.142-0.537h1.017l0.989-1.709l0.254-0.099l0.155-0.452
	c-2.508,1.008-8.249,1.109-10.519,1.109v-0.002c-0.06,0.001-0.125,0.001-0.193,0.001c-0.068,0-0.132,0-0.191-0.001v0.002
	c-2.322,0.001-8.549-0.101-11.059-1.109l0.155,0.452l0.254,0.099l0.988,1.709h1.017l0.141,0.537l0.198,0.197
	c0,0,0.848,0.067,2.158,0.136v0.454h0.277l-0.01,0.396h-0.267L40.807,38.8l-2.015-0.002v0.875l2.701,0.003l-0.169,6.844h-6.239
	v-8.441l-4.622-2.43v5.907h-4.357v5.123H23.44v-7.841h-3.928v-9.024h-1.199v-1.043h-0.879v-3.913h-0.799v3.913h-0.879v1.043h-1.199
	v8.399h-0.442V37.56h-3.943v0.653H8.893v6.274l-2.144-0.238v-4.452H5.909v-2.07H1.993v2.07H1.153v8.652H0v1.53h8.893V50h6.331
	v-0.021h11.814h6.904h66.045v-0.556H100V37.924z M68.462,45.173v3.276h-1.331v-3.276H68.462z M66.116,45.173v3.276h-1.331v-3.276
	H66.116z M63.771,45.173v3.276h-1.331v-3.276H63.771z M42.492,39.677l9.593,0.008l-0.218,8.765h-9.158L42.492,39.677z
	 M42.804,37.961v-0.385c1.426,0.054,3.116,0.09,4.793,0.06c1.529,0.027,3,0,4.253-0.047v0.372h0.277l-0.011,0.396h-0.267l-0.46,0.45
	l-8.133-0.007l-0.453-0.443h-0.345l-0.01-0.396H42.804z"/>
</svg>
