<?xml version="1.0" encoding="utf-8"?>
<!-- Generator: Adobe Illustrator 16.0.4, SVG Export Plug-In . SVG Version: 6.00 Build 0)  -->
<!DOCTYPE svg PUBLIC "-//W3C//DTD SVG 1.1//EN" "http://www.w3.org/Graphics/SVG/1.1/DTD/svg11.dtd" [
	<!ENTITY ns_extend "http://ns.adobe.com/Extensibility/1.0/">
	<!ENTITY ns_ai "http://ns.adobe.com/AdobeIllustrator/10.0/">
	<!ENTITY ns_graphs "http://ns.adobe.com/Graphs/1.0/">
	<!ENTITY ns_vars "http://ns.adobe.com/Variables/1.0/">
	<!ENTITY ns_imrep "http://ns.adobe.com/ImageReplacement/1.0/">
	<!ENTITY ns_sfw "http://ns.adobe.com/SaveForWeb/1.0/">
	<!ENTITY ns_custom "http://ns.adobe.com/GenericCustomNamespace/1.0/">
	<!ENTITY ns_adobe_xpath "http://ns.adobe.com/XPath/1.0/">
]>
<svg version="1.1" id="Layer_1" xmlns:x="&ns_extend;" xmlns:i="&ns_ai;" xmlns:graph="&ns_graphs;"
	 xmlns="http://www.w3.org/2000/svg" xmlns:xlink="http://www.w3.org/1999/xlink" x="0px" y="0px" width="100px" height="50px"
	 viewBox="0 0 100 50" enable-background="new 0 0 100 50" xml:space="preserve">
<metadata>
	<sfw  xmlns="&ns_sfw;">
		<slices></slices>
		<sliceSourceBounds  x="-87.461" y="-39.826" height="74.83" width="186.961" bottomLeftOrigin="true"></sliceSourceBounds>
	</sfw>
</metadata>
<path fill="#231F20" d="M-86.903,90.326l-0.058-0.013c0.021-0.016,0.038-0.034,0.058-0.053V90.326z"/>
<g>
	<path fill="#231F20" d="M99.777,44.138v-0.408H100v-0.964h-0.223v-0.481l-0.51-0.436v-0.361h-0.333V40.82h-0.611v-0.36l-0.194-0.39
		v-0.223h-0.361c0,0-1.584-2.918-4.975-2.918s-4.974,2.918-4.974,2.918h-0.362v0.223l-0.193,0.39v0.36h-0.611v0.445h-4.623l-2.037,1
		v0.297h0.24v0.352h0.167v0.981l0.147,0.242v2.019h-0.814v-0.223h-0.814v-0.24h-1.391v-0.89h0.186V44.47h-0.352v-0.722h-0.814v0.11
		h-0.854v-0.24h-1.438v-1.645h0.07v-0.211h-0.127v-0.436h-0.914V41.13h-4.489v-3.561h-0.099v3.561h-4.602l-1.055,0.83h-2.983v-0.211
		h-1.772l-1.126-0.395v-0.717h-1.421v0.815l-1.141,0.353h-0.787v-0.591h-1.604v-0.226h0.141v-0.197h-0.126l-0.1-0.154h-0.183v-0.31
		l-0.07-0.113v-1.59l0.084-0.085v-0.253h0.099v-0.323l-0.225-0.338l-0.619-0.154v-1.365h0.112l0.042-0.183v-0.099l-0.238-0.142
		v-0.112l-0.142-0.099v-0.169l-0.338-0.507c0,0-0.07-0.956-0.619-1.646c-0.549-0.689-1.224-0.957-1.224-0.957v-0.168l-0.148-0.226
		l-0.331-0.162v-0.268h0.049v-0.197l-0.183-0.091V30.28l0.092-0.07l-0.007-0.154l0.113-0.105v-0.134l-0.338-0.232v-0.141
		l-0.239-0.288v-0.296l0.042-0.021v-0.106l-0.155-0.218l0.006-0.147l0.078-0.091v-0.205l0.071-0.147l-0.162-0.437v-0.105
		l0.045-0.021L47.7,27.178l-0.084-0.13l-0.085,0.13l-0.035,0.184l0.046,0.021v0.105l-0.162,0.437l0.07,0.147v0.205l0.078,0.091
		l0.007,0.147l-0.154,0.218v0.106l0.042,0.021v0.296l-0.239,0.288v0.141l-0.338,0.232v0.134l0.112,0.105L46.95,30.21l0.091,0.07
		v0.803l-0.183,0.091v0.197h0.049v0.268l-0.331,0.162l-0.148,0.226v0.168c0,0-0.675,0.268-1.224,0.957
		c-0.549,0.689-0.62,1.646-0.62,1.646l-0.337,0.507v0.169l-0.141,0.099v0.112l-0.239,0.142v0.099l0.042,0.183h0.113v1.365
		l-0.619,0.154l-0.225,0.338v0.323h0.098v0.253l0.084,0.085v1.59l-0.07,0.113v0.31h-0.184l-0.098,0.154h-0.126v0.197h0.14v0.226
		H41.42v0.591h-0.788l-1.14-0.353v-0.815h-1.42v0.717l-1.126,0.395h-1.773v0.211h-2.983l-1.055-0.83h-4.602v-3.561h-0.099v3.561
		h-0.583l-0.776-22.923l-1.064-2.711l-1.064,2.711L22.168,41.13h-0.223v0.197h-0.424v-0.06h0.032v-0.15h-0.032v-0.142l0.243-0.32
		v-0.088l-0.062-0.045h-0.18v-0.319l-0.05-0.08v-0.267c0,0,0.044,0.027,0.044,0c0-0.026,0-0.133,0-0.133h-0.231v-0.213h0.044v-0.159
		h-0.124v-0.275h-0.24v0.292h-0.186v0.125h0.098v0.213h-0.95v-0.142h-2.272l-0.168-0.204h-0.151v0.089l-0.284-0.134v-0.471H16.98
		v0.338h-0.914v-0.56h-0.542v0.542h-0.684v-0.214h-1.145v0.204h-0.825v-0.576h-0.488v0.399l-1.34-0.178v-0.08h-0.128l-0.023-5.236
		l-0.01-0.019l-0.01,0.019l-0.014,3.052c-0.052,0.038-0.182,0.049-0.262,0.28c-0.167,0.48-0.233,0.449-0.278,0.455
		s0.112,0.228,0.08,0.287c-0.033,0.059,0.263-0.039,0.32-0.322c0.021-0.105,0.094-0.179,0.138-0.163l-0.007,1.647h-0.128v0.08
		l-1.34,0.178v-0.399H8.893v0.576H8.067v-0.204H6.922v0.214H6.239v-0.542H5.698v0.56H4.784v-0.338H4.713v0.471l-0.285,0.134V39.36
		h-0.15l-0.169,0.204H1.837v0.142H0.888v-0.213h0.098v-0.125H0.799v-0.292h-0.24v0.275H0.435v0.159h0.044v0.213h-0.23
		c0,0,0,0.106,0,0.133c0,0.027,0.044,0,0.044,0v0.267l-0.05,0.08v0.319H0.062L0,40.567v0.088l0.243,0.32v0.142H0.21v0.15h0.033
		v0.213l-0.065,0.045v0.29h0.065v6.503L0,48.959V50h100l-0.445-2.893v-2.674L99.777,44.138z"/>
</g>
</svg>
